<svg xmlns="http://www.w3.org/2000/svg" xmlns:xlink="http://www.w3.org/1999/xlink" version="1.1" width="67.19213104248047" height="144.68531799316406" viewBox="2.453932762145996 0.29455435276031494 67.19213104248047 144.68531799316406">
  <!-- Exported by Scratch - http://scratch.mit.edu/ -->
  <path id="ID0.9135261522606015" fill="#FFD005" stroke="#000000" stroke-width="2" d="M 36.425 17.35 C 43.026 17.35 49.007 20.916 53.338 26.677 C 57.669 32.438 60.35 40.395 60.35 49.175 C 60.35 57.955 57.669 65.912 53.338 71.673 C 49.007 77.434 43.026 81 36.425 81 C 29.824 81 23.843 77.434 19.512 71.673 C 15.181 65.912 12.5 57.955 12.5 49.175 C 12.5 40.395 15.181 32.438 19.512 26.677 C 23.843 20.916 29.824 17.35 36.425 17.35 Z "/>
  <g id="ID0.23922329768538475">
    <path id="ID0.19963421486318111" fill="#99B2FF" stroke="#000000" stroke-width="2" stroke-linecap="round" d="M 41.5 98.65 C 39.636 98.893 36.385 96.94 35.85 98.65 C 33.829 105.925 34.84 113.773 35.1 121.15 C 35.272 126.028 35.421 131.1 37.25 135.65 C 37.816 137.083 40.032 137.484 41.6 137.4 C 43.517 137.302 46.128 136.844 46.75 135.05 C 48.477 130.645 47.838 125.626 47.85 120.9 C 47.87 113.005 49.039 104.637 46.85 96.9 C 46.303 95.048 43.334 98.409 41.5 98.65 Z "/>
    <path id="ID0.7019679127261043" fill="#CC99FF" stroke="#000000" stroke-width="2" stroke-linecap="round" d="M 42.45 133.5 C 40.381 133.5 38.506 134.223 37.148 135.39 C 35.79 136.558 35.227 138.288 34.95 139.95 C 34.771 141.032 35.02 142.551 36.1 143 C 37.918 143.902 40.253 143.511 42.35 143.4 C 44.567 143.282 46.818 143.205 48.75 142.3 C 49.597 141.943 50.098 140.823 49.95 139.95 C 49.669 138.289 49.11 136.558 47.752 135.39 C 46.394 134.223 44.519 133.5 42.45 133.5 Z "/>
  </g>
  <g id="ID0.23922329768538475">
    <path id="ID0.19963421486318111" fill="#99B2FF" stroke="#000000" stroke-width="2" stroke-linecap="round" d="M 30.05 99.05 C 31.914 99.293 35.165 97.34 35.7 99.05 C 37.721 106.325 36.71 114.173 36.45 121.55 C 36.278 126.428 36.129 131.5 34.3 136.05 C 33.734 137.483 31.518 137.884 29.95 137.8 C 28.033 137.702 25.422 137.244 24.8 135.45 C 23.073 131.045 23.712 126.026 23.7 121.3 C 23.68 113.405 22.511 105.037 24.7 97.3 C 25.247 95.448 28.216 98.809 30.05 99.05 Z "/>
    <path id="ID0.7019679127261043" fill="#CC99FF" stroke="#000000" stroke-width="2" stroke-linecap="round" d="M 29.1 133.9 C 31.169 133.9 33.044 134.623 34.402 135.79 C 35.76 136.958 36.323 138.688 36.6 140.35 C 36.779 141.432 36.53 142.951 35.45 143.4 C 33.632 144.302 31.297 143.911 29.2 143.8 C 26.983 143.682 24.732 143.605 22.8 142.7 C 21.953 142.343 21.452 141.223 21.6 140.35 C 21.881 138.689 22.44 136.958 23.798 135.79 C 25.156 134.623 27.031 133.9 29.1 133.9 Z "/>
  </g>
  <g id="ID0.4572075121104717">
    <path id="ID0.7623941171914339" fill="#FF99E5" stroke="#000000" stroke-width="1.9999999898339107" stroke-linecap="round" d="M 44.0941 61.6468 C 42.5594 62.0738 42.2483 64.4272 42.3157 65.9887 C 42.4676 69.4637 43.5834 72.9677 45.0506 76.1497 C 46.7019 79.7314 48.7479 83.1482 51.5035 85.8931 C 52.2389 86.6281 53.696 85.982 54.7583 85.6309 C 55.6763 85.2308 57.045 84.7476 57.226 83.7223 C 57.6224 81.4556 56.8878 79.2623 56.4816 77.172 C 56.0782 75.3692 55.4905 73.6019 54.8069 72.087 C 53.481 69.1389 52.6561 65.7664 50.2526 63.5133 C 48.6897 62.0459 46.1199 60.9626 44.0941 61.6468 Z "/>
    <path id="ID0.01313785370439291" fill="#FFCC77" stroke="#000000" stroke-width="1.526548617043654" stroke-linecap="round" d="M 61.7196 97.6488 C 61.6523 95.5338 59.2661 92.1259 60.1195 91.6202 C 60.974 91.1142 63.2358 94.5172 65.1286 95.403 C 65.6033 95.6248 66.5793 95.0206 66.4084 94.4794 C 65.6071 92.3904 62.4077 89.3814 62.707 88.8515 C 63.0058 88.3226 66.1103 91.4692 68.1412 91.7277 C 68.8601 91.8188 68.7191 90.1522 68.2897 89.5883 C 67.2498 88.127 65.6249 87.2278 64.1359 86.2057 C 62.517 85.0944 61.0046 83.5298 59.0719 83.1845 C 57.6511 82.932 56.5181 84.1382 55.2118 84.5128 C 53.9346 84.8809 52.0663 84.4492 51.0933 85.5063 C 50.2607 86.5212 50.811 88.1643 50.8144 89.5585 C 50.8234 91.9236 50.6066 94.3934 51.3648 96.6423 C 51.5364 97.3442 52.7025 97.9406 53.3209 97.5108 C 54.4184 96.7466 53.9187 93.6451 55.1593 93.9383 C 57.4588 94.4839 58.277 98.1688 60.5218 99.3447 C 61.2119 99.7017 61.797 98.3077 61.7196 97.6488 Z "/>
  </g>
  <g id="ID0.4572075121104717">
    <path id="ID0.7623941171914339" fill="#FF99E5" stroke="#000000" stroke-width="1.9999999898339107" stroke-linecap="round" d="M 28.0059 63.3968 C 29.5406 63.8238 29.8517 66.1772 29.7843 67.7387 C 29.6324 71.2137 28.5166 74.7177 27.0494 77.8997 C 25.3981 81.4814 23.3521 84.8982 20.5965 87.6431 C 19.8611 88.3781 18.404 87.732 17.3417 87.3809 C 16.4237 86.9808 15.055 86.4976 14.874 85.4723 C 14.4776 83.2056 15.2122 81.0123 15.6184 78.922 C 16.0218 77.1192 16.6095 75.3519 17.2931 73.837 C 18.619 70.8889 19.4439 67.5164 21.8474 65.2633 C 23.4103 63.7959 25.9801 62.7126 28.0059 63.3968 Z "/>
    <path id="ID0.01313785370439291" fill="#FFCC77" stroke="#000000" stroke-width="1.526548617043654" stroke-linecap="round" d="M 10.3804 99.3988 C 10.4477 97.2838 12.8339 93.8759 11.9805 93.3702 C 11.126 92.8642 8.8642 96.2672 6.9714 97.153 C 6.4967 97.3748 5.5207 96.7706 5.6916 96.2294 C 6.4929 94.1404 9.6923 91.1314 9.393 90.6015 C 9.0942 90.0726 5.9897 93.2192 3.9588 93.4777 C 3.2399 93.5688 3.3809 91.9022 3.8103 91.3383 C 4.8502 89.877 6.4751 88.9778 7.9641 87.9557 C 9.583 86.8444 11.0954 85.2798 13.0281 84.9345 C 14.4489 84.682 15.5819 85.8882 16.8882 86.2628 C 18.1654 86.6309 20.0337 86.1992 21.0067 87.2563 C 21.8393 88.2712 21.289 89.9143 21.2856 91.3085 C 21.2766 93.6736 21.4934 96.1434 20.7352 98.3923 C 20.5636 99.0942 19.3975 99.6906 18.7791 99.2608 C 17.6816 98.4966 18.1813 95.3951 16.9407 95.6883 C 14.6412 96.2339 13.823 99.9188 11.5782 101.0947 C 10.8881 101.4517 10.303 100.0577 10.3804 99.3988 Z "/>
  </g>
  <path id="ID0.10097399353981018" fill="#FF99E5" stroke="#000000" stroke-width="2" stroke-linecap="round" d="M 36.25 64.7 C 38.89 64.754 41.524 61.756 43.95 62.8 C 46.631 63.953 47.948 67.373 49 70.15 C 49.84 72.368 50.024 74.906 49.45 77.15 C 48.901 79.343 45.962 80.601 45.8 82.8 C 45.376 88.549 50.35 94.825 47.75 100 C 46.025 103.434 40.145 101.615 36.35 101.8 C 34.633 101.884 32.946 101.278 31.25 101 C 28.749 100.59 24.631 101.889 23.75 99.5 C 21.801 94.217 24.935 88.225 24.6 82.6 C 24.495 80.84 23.017 79.412 22.6 77.7 C 22.231 76.186 22.002 74.527 22.25 72.95 C 22.513 71.156 23.155 69.387 24.1 67.8 C 25.249 65.871 26.288 63.224 28.45 62.65 C 31.045 61.96 33.446 64.641 36.25 64.7 Z "/>
  <path id="ID0.9834481873549521" fill="#FFCC77" stroke="#000000" stroke-width="2" d="M 36.875 12.35 C 43.517 12.35 49.536 15.375 53.894 20.263 C 58.252 25.151 60.95 31.901 60.95 39.35 C 60.95 46.799 58.252 53.549 53.894 58.437 C 49.536 63.325 43.517 66.35 36.875 66.35 C 30.233 66.35 24.214 63.325 19.856 58.437 C 15.498 53.549 12.8 46.799 12.8 39.35 C 12.8 31.901 15.498 25.151 19.856 20.263 C 24.214 15.375 30.233 12.35 36.875 12.35 Z "/>
  <path id="ID0.32517488626763225" fill="#FFFFFF" stroke="#000000" stroke-width="2" d="M 28.825 22.4 C 31.122 22.4 33.203 23.515 34.71 25.316 C 36.217 27.117 37.15 29.605 37.15 32.35 C 37.15 35.095 36.217 37.583 34.71 39.384 C 33.203 41.185 31.122 42.3 28.825 42.3 C 26.528 42.3 24.447 41.185 22.94 39.384 C 21.433 37.583 20.5 35.095 20.5 32.35 C 20.5 29.605 21.433 27.117 22.94 25.316 C 24.447 23.515 26.528 22.4 28.825 22.4 Z "/>
  <path id="ID0.32517488626763225" fill="#FFFFFF" stroke="#000000" stroke-width="2" d="M 45.625 22.9 C 47.922 22.9 50.003 24.015 51.51 25.816 C 53.017 27.617 53.95 30.105 53.95 32.85 C 53.95 35.595 53.017 38.083 51.51 39.884 C 50.003 41.685 47.922 42.8 45.625 42.8 C 43.328 42.8 41.247 41.685 39.74 39.884 C 38.233 38.083 37.3 35.595 37.3 32.85 C 37.3 30.105 38.233 27.617 39.74 25.816 C 41.247 24.015 43.328 22.9 45.625 22.9 Z "/>
  <path id="ID0.3123384383507073" fill="#990072" stroke="none" d="M 30.675 26.5 C 31.785 26.5 32.792 27.184 33.52 28.288 C 34.249 29.392 34.7 30.917 34.7 32.6 C 34.7 34.283 34.249 35.808 33.52 36.912 C 32.792 38.016 31.785 38.7 30.675 38.7 C 29.565 38.7 28.558 38.016 27.83 36.912 C 27.101 35.808 26.65 34.283 26.65 32.6 C 26.65 30.917 27.101 29.392 27.83 28.288 C 28.558 27.184 29.565 26.5 30.675 26.5 Z " stroke-width="1"/>
  <path id="ID0.9945462001487613" fill="#000000" stroke="none" d="M 31.3 28.6557 C 31.962 28.6557 32.562 29.1734 32.997 30.0112 C 33.431 30.8489 33.7 32.0043 33.7 33.2807 C 33.7 34.557 33.431 35.7124 32.997 36.5502 C 32.562 37.3879 31.962 37.9057 31.3 37.9057 C 30.638 37.9057 30.038 37.3879 29.603 36.5502 C 29.169 35.7124 28.9 34.557 28.9 33.2807 C 28.9 32.0043 29.169 30.8489 29.603 30.0112 C 30.038 29.1734 30.638 28.6557 31.3 28.6557 Z " stroke-width="1.0848464076329243"/>
  <path id="ID0.7593508111312985" fill="#FFFFFF" stroke="none" d="M 32.325 28.1 C 32.842 28.1 33.311 28.397 33.65 28.877 C 33.99 29.356 34.2 30.019 34.2 30.75 C 34.2 31.481 33.99 32.144 33.65 32.623 C 33.311 33.103 32.842 33.4 32.325 33.4 C 31.808 33.4 31.339 33.103 31 32.623 C 30.66 32.144 30.45 31.481 30.45 30.75 C 30.45 30.019 30.66 29.356 31 28.877 C 31.339 28.397 31.808 28.1 32.325 28.1 Z " stroke-width="1"/>
  <path id="ID0.8557649310678244" fill="#FFFFFF" stroke="none" d="M 28.55 33.8 C 28.826 33.8 29.076 33.946 29.257 34.181 C 29.438 34.416 29.55 34.741 29.55 35.1 C 29.55 35.459 29.438 35.784 29.257 36.019 C 29.076 36.254 28.826 36.4 28.55 36.4 C 28.274 36.4 28.024 36.254 27.843 36.019 C 27.662 35.784 27.55 35.459 27.55 35.1 C 27.55 34.741 27.662 34.416 27.843 34.181 C 28.024 33.946 28.274 33.8 28.55 33.8 Z " stroke-width="1"/>
  <path id="ID0.3123384383507073" fill="#990072" stroke="none" d="M 43.725 27.1 C 42.615 27.1 41.608 27.784 40.88 28.888 C 40.151 29.992 39.7 31.517 39.7 33.2 C 39.7 34.883 40.151 36.408 40.88 37.512 C 41.608 38.616 42.615 39.3 43.725 39.3 C 44.835 39.3 45.842 38.616 46.57 37.512 C 47.299 36.408 47.75 34.883 47.75 33.2 C 47.75 31.517 47.299 29.992 46.57 28.888 C 45.842 27.784 44.835 27.1 43.725 27.1 Z " stroke-width="1"/>
  <path id="ID0.9945462001487613" fill="#000000" stroke="none" d="M 43.1 29.3557 C 42.438 29.3557 41.838 29.8734 41.403 30.7112 C 40.969 31.5489 40.7 32.7043 40.7 33.9807 C 40.7 35.257 40.969 36.4124 41.403 37.2502 C 41.838 38.0879 42.438 38.6057 43.1 38.6057 C 43.762 38.6057 44.362 38.0879 44.797 37.2502 C 45.231 36.4124 45.5 35.257 45.5 33.9807 C 45.5 32.7043 45.231 31.5489 44.797 30.7112 C 44.362 29.8734 43.762 29.3557 43.1 29.3557 Z " stroke-width="1.0848464076329243"/>
  <path id="ID0.7593508111312985" fill="#FFFFFF" stroke="none" d="M 42.125 28.6 C 41.608 28.6 41.139 28.897 40.8 29.377 C 40.46 29.856 40.25 30.519 40.25 31.25 C 40.25 31.981 40.46 32.644 40.8 33.123 C 41.139 33.603 41.608 33.9 42.125 33.9 C 42.642 33.9 43.111 33.603 43.45 33.123 C 43.79 32.644 44 31.981 44 31.25 C 44 30.519 43.79 29.856 43.45 29.377 C 43.111 28.897 42.642 28.6 42.125 28.6 Z " stroke-width="1"/>
  <path id="ID0.8557649310678244" fill="#FFFFFF" stroke="none" d="M 45.9 34.3 C 45.624 34.3 45.374 34.446 45.193 34.681 C 45.012 34.916 44.9 35.241 44.9 35.6 C 44.9 35.959 45.012 36.284 45.193 36.519 C 45.374 36.754 45.624 36.9 45.9 36.9 C 46.176 36.9 46.426 36.754 46.607 36.519 C 46.788 36.284 46.9 35.959 46.9 35.6 C 46.9 35.241 46.788 34.916 46.607 34.681 C 46.426 34.446 46.176 34.3 45.9 34.3 Z " stroke-width="1"/>
  <path id="ID0.21714129857718945" fill="none" stroke="#000000" stroke-width="2" stroke-linecap="round" d="M 23.3 52.1 C 23.3 52.1 23.98 53.859 24.4 54.7 C 24.714 55.328 25.084 55.934 25.5 56.5 C 25.919 57.07 26.33 57.681 26.9 58.1 C 27.488 58.533 28.178 58.892 28.9 59 C 30.217 59.198 31.583 59.201 32.9 59 C 33.592 58.894 34.8 58.1 34.8 58.1 "/>
  <path id="ID0.11013443116098642" fill="none" stroke="#000000" stroke-width="2" stroke-linecap="round" d="M 33.65 48 C 33.65 48 34.455 49.491 35.15 49.9 C 35.771 50.266 36.602 50.331 37.3 50.15 C 37.98 49.973 38.436 49.32 39 48.9 C 39.219 48.737 39.65 48.4 39.65 48.4 "/>
  <path id="ID0.09000997431576252" fill="#FFD005" stroke="#000000" stroke-width="2" stroke-linecap="round" d="M 20.3 6.5 C 25.148 3.189 31.214 1.682 37 1.35 C 41.968 1.049 47.29 1.963 51.65 4.35 C 55.403 6.404 59.36 9.682 60.3 13.85 C 62.609 23.999 62.627 44.114 61.15 45.1 C 59.673 46.086 58.389 24.874 50.8 20.2 C 42.501 15.143 29.996 16.108 21.8 21 C 15.111 24.994 13.776 43.273 12.8 42.6 C 11.824 41.927 12.732 24.917 14.5 16.35 C 15.284 12.522 17.127 8.539 20.3 6.5 Z "/>
  <g id="ID0.7511085895821452">
    <path id="ID0.9202246675267816" fill="#FFCC77" stroke="#000000" stroke-width="2" stroke-linecap="round" d="M 11.5 39.6 C 12.741 39.981 13.654 41.159 14.35 42.267 C 15.029 43.348 15.5 44.497 15.5 45.925 C 15.5 47.353 15.127 48.572 14.35 49.583 C 13.821 50.271 12.819 50.536 12 50.4 C 10.835 50.29 9.681 49.712 8.85 48.9 C 7.911 47.982 7.093 46.722 6.95 45.4 C 6.707 43.63 6.652 41.507 7.75 40.1 C 8.527 39.104 10.302 39.18 11.5 39.6 Z "/>
    <path id="ID0.32951963087543845" fill="#FFCC77" stroke="none" stroke-linecap="round" d="M 12.9 42.9 C 14.009 42.95 15.271 42.501 16.198 43.049 C 17.033 43.541 17.4 44.665 17.4 45.7 C 17.4 46.735 16.941 47.672 16.198 48.351 C 15.456 49.03 14.431 49.45 13.3 49.45 C 12.169 49.45 11.144 49.03 10.402 48.351 C 9.659 47.672 9.2 46.735 9.2 45.7 C 9.2 44.665 9.606 43.6 10.402 43.049 C 11.108 42.562 12.076 42.95 12.9 42.9 Z " stroke-width="1"/>
    <path id="ID0.32951963087543845" fill="#FFCC77" stroke="none" stroke-linecap="round" d="M 16.05 40.1 C 17.383 39.937 18.706 40.949 19.648 41.799 C 20.369 42.449 20.85 43.415 20.85 44.45 C 20.85 45.485 20.391 46.422 19.648 47.101 C 18.906 47.78 17.881 48.2 16.75 48.2 C 15.619 48.2 14.594 47.78 13.852 47.101 C 13.109 46.422 12.891 45.388 12.65 44.45 C 12.525 43.968 12.349 43.223 12.7 42.8 C 13.624 41.698 14.662 40.329 16.05 40.1 Z " stroke-width="1"/>
    <path id="ID0.08531287917867303" fill="none" stroke="#000000" stroke-width="1" stroke-linecap="round" d="M 8.95 42.35 C 8.95 42.35 10.257 41.517 10.95 41.65 C 11.658 41.786 12.113 42.519 12.6 43.05 C 13.053 43.543 13.75 44.7 13.75 44.7 "/>
    <path id="ID0.08531287917867303" fill="none" stroke="#000000" stroke-width="1.0000000242889973" stroke-linecap="round" d="M 9.4722 46.671 C 9.4722 46.671 9.8754 45.0286 10.5058 44.6501 C 11.3442 44.1747 13.3391 44.4217 13.3391 44.4217 "/>
  </g>
  <g id="ID0.7511085895821452">
    <path id="ID0.9202246675267816" fill="#FFCC77" stroke="#000000" stroke-width="2" stroke-linecap="round" d="M 61.15 40.2 C 59.909 40.581 58.996 41.759 58.3 42.867 C 57.621 43.948 57.15 45.097 57.15 46.525 C 57.15 47.953 57.523 49.172 58.3 50.183 C 58.829 50.871 59.831 51.136 60.65 51 C 61.815 50.89 62.969 50.312 63.8 49.5 C 64.739 48.582 65.557 47.322 65.7 46 C 65.943 44.23 65.998 42.107 64.9 40.7 C 64.123 39.704 62.348 39.78 61.15 40.2 Z "/>
    <path id="ID0.32951963087543845" fill="#FFCC77" stroke="none" stroke-linecap="round" d="M 59.75 43.5 C 58.641 43.55 57.379 43.101 56.452 43.649 C 55.617 44.141 55.25 45.265 55.25 46.3 C 55.25 47.335 55.709 48.272 56.452 48.951 C 57.194 49.63 58.219 50.05 59.35 50.05 C 60.481 50.05 61.506 49.63 62.248 48.951 C 62.991 48.272 63.45 47.335 63.45 46.3 C 63.45 45.265 63.044 44.2 62.248 43.649 C 61.542 43.162 60.574 43.55 59.75 43.5 Z " stroke-width="1"/>
    <path id="ID0.32951963087543845" fill="#FFCC77" stroke="none" stroke-linecap="round" d="M 56.6 40.7 C 55.267 40.537 53.944 41.549 53.002 42.399 C 52.281 43.049 51.8 44.015 51.8 45.05 C 51.8 46.085 52.259 47.022 53.002 47.701 C 53.744 48.38 54.769 48.8 55.9 48.8 C 57.031 48.8 58.056 48.38 58.798 47.701 C 59.541 47.022 59.759 45.988 60 45.05 C 60.125 44.568 60.301 43.823 59.95 43.4 C 59.026 42.298 57.988 40.929 56.6 40.7 Z " stroke-width="1"/>
    <path id="ID0.08531287917867303" fill="none" stroke="#000000" stroke-width="1" stroke-linecap="round" d="M 63.7 42.95 C 63.7 42.95 62.393 42.117 61.7 42.25 C 60.992 42.386 60.537 43.119 60.05 43.65 C 59.597 44.143 58.9 45.3 58.9 45.3 "/>
    <path id="ID0.08531287917867303" fill="none" stroke="#000000" stroke-width="1.0000000242889973" stroke-linecap="round" d="M 63.1778 47.271 C 63.1778 47.271 62.7746 45.6286 62.1442 45.2501 C 61.3058 44.7747 59.3109 45.0217 59.3109 45.0217 "/>
  </g>
  <path id="ID0.14617311488837004" fill="none" stroke="#000000" stroke-width="1.2028985023498535" stroke-linecap="round" d="M 17.1239 28.5649 L 18.2667 30.0985 L 20.071 31.7525 "/>
  <path id="ID0.14617311488837004" fill="none" stroke="#000000" stroke-width="1.2028985023498535" stroke-linecap="round" d="M 17.2739 25.8649 L 18.4167 27.3985 L 20.221 29.0525 "/>
  <path id="ID0.14617311488837004" fill="none" stroke="#000000" stroke-width="1.2028985023498535" stroke-linecap="round" d="M 56.9261 27.1649 L 55.7833 28.6985 L 53.979 30.3525 "/>
  <path id="ID0.14617311488837004" fill="none" stroke="#000000" stroke-width="1.2028985023498535" stroke-linecap="round" d="M 57.1761 29.8649 L 56.0333 31.3985 L 54.229 33.0525 "/>
  <path id="ID0.2650244985707104" fill="none" stroke="#000000" stroke-width="2" stroke-linecap="round" d="M 28.1 81.9 C 28.1 81.9 29.563 81.585 30.25 81.3 C 30.939 81.014 32.2 80.2 32.2 80.2 "/>
  <path id="ID0.19685576995834708" fill="none" stroke="#000000" stroke-width="2" stroke-linecap="round" d="M 37.75 79.95 C 37.75 79.95 38.59 81.196 39.2 81.6 C 39.767 81.975 40.489 82.045 41.15 82.2 C 41.558 82.296 42.4 82.35 42.4 82.35 "/>
</svg>