<svg version="1.1" xmlns="http://www.w3.org/2000/svg" xmlns:xlink="http://www.w3.org/1999/xlink" width="995" height="594" viewBox="0,0,995,594"><g transform="translate(257.5,117)"><g stroke-miterlimit="10"><path d="M-255.5,475v-590h991v590z" fill="#000000" stroke="#000000" stroke-width="4" stroke-linecap="butt"/><text transform="translate(240,43.125) scale(0.79253,0.79253)" font-size="40" xml:space="preserve" fill="#ffffff" stroke="none" stroke-width="1" stroke-linecap="butt" font-family="Playful" font-weight="normal" text-anchor="middle"><tspan x="0" dy="0">Don't worry, we are still </tspan><tspan x="0" dy="46.15px">working on it.</tspan></text><path d="M278.25,158.68243c0,-22.26678 -17.12511,-40.31757 -38.25,-40.31757c-21.12489,0 -38.25,18.05079 -38.25,40.31757c0,22.26678 17.12511,40.31757 38.25,40.31757c21.12489,0 38.25,-18.05079 38.25,-40.31757z" fill="none" stroke="#ffffff" stroke-width="2" stroke-linecap="butt"/><path d="M240.03472,153.33334c0,-7.9391 -5.0368,-14.375 -11.25,-14.375c-6.2132,0 -11.25,6.4359 -11.25,14.375c0,7.9391 5.0368,14.375 11.25,14.375c6.2132,0 11.25,-6.4359 11.25,-14.375z" fill="none" stroke="#ffffff" stroke-width="2" stroke-linecap="butt"/><path d="M263.78472,153.33334c0,-7.9391 -5.03679,-14.375 -11.25,-14.375c-6.2132,0 -11.25,6.4359 -11.25,14.375c0,7.9391 5.0368,14.375 11.25,14.375c6.21321,0 11.25,-6.4359 11.25,-14.375z" fill="none" stroke="#ffffff" stroke-width="2" stroke-linecap="butt"/><path d="M221.03472,181.20833c0,0 6.3837,8.10015 18.75,8.5c11.86879,0.38376 20.25,-8.5 20.25,-8.5" fill="none" stroke="#ffffff" stroke-width="2" stroke-linecap="round"/><path d="M236.78472,153.70833c0,-4.28021 -1.7349,-7.75 -3.875,-7.75c-2.1401,0 -3.875,3.46979 -3.875,7.75c0,4.28021 1.7349,7.75 3.875,7.75c2.1401,0 3.875,-3.46979 3.875,-7.75z" fill="#ffffff" stroke="none" stroke-width="0" stroke-linecap="butt"/><path d="M252.03472,153.70833c0,-4.2802 -1.73489,-7.75 -3.875,-7.75c-2.14011,0 -3.875,3.4698 -3.875,7.75c0,4.2802 1.73489,7.75 3.875,7.75c2.14011,0 3.875,-3.4698 3.875,-7.75z" fill="#ffffff" stroke="none" stroke-width="0" stroke-linecap="butt"/></g></g></svg>