<svg version="1.1" xmlns="http://www.w3.org/2000/svg" xmlns:xlink="http://www.w3.org/1999/xlink" width="186" height="186" viewBox="0,0,186,186"><g transform="translate(-150.56998,-81.86451)"><g stroke-miterlimit="10"><path d="M150.56998,267.86451v-186h186v186z" fill="#00afff" stroke="none" stroke-width="none" stroke-linecap="butt"/><g fill-opacity="0.27451" fill="#000000" stroke-width="0"><g stroke-linecap="round"><path d="M275.59231,145.23846c1.098,1.407 1.043,3.53 0.8,5.3c-0.143,1.322 -0.961,2.582 -1.9,3.5c-0.831,0.812 -1.985,1.39 -3.15,1.5c-0.819,0.136 -1.821,-0.129 -2.35,-0.817c-0.777,-1.011 -1.15,-2.23 -1.15,-3.658c0,-1.428 0.471,-2.577 1.15,-3.658c0.696,-1.108 1.609,-2.286 2.85,-2.667c1.198,-0.42 2.973,-0.496 3.75,0.5z" stroke="#000000"/><path d="M272.94031,148.18746c0.796,0.551 1.202,1.616 1.202,2.651c0,1.035 -0.459,1.972 -1.202,2.651c-0.742,0.679 -1.767,1.099 -2.898,1.099c-1.131,0 -2.156,-0.42 -2.898,-1.099c-0.743,-0.679 -1.202,-1.616 -1.202,-2.651c0,-1.035 0.367,-2.159 1.202,-2.651c0.927,-0.548 2.189,-0.099 3.298,-0.149c0.824,0.05 1.792,-0.338 2.498,0.149z" stroke="none"/><path d="M270.64231,147.93846c0.351,0.423 0.175,1.168 0.05,1.65c-0.241,0.938 -0.459,1.972 -1.202,2.651c-0.742,0.679 -1.767,1.099 -2.898,1.099c-1.131,0 -2.156,-0.42 -2.898,-1.099c-0.743,-0.679 -1.202,-1.616 -1.202,-2.651c0,-1.035 0.481,-2.001 1.202,-2.651c0.942,-0.85 2.265,-1.862 3.598,-1.699c1.388,0.229 2.426,1.598 3.35,2.7z" stroke="none"/><path d="M269.59231,149.83846c0,0 0.697,-1.157 1.15,-1.65c0.487,-0.531 0.942,-1.264 1.65,-1.4c0.693,-0.133 2,0.7 2,0.7" stroke="#000000"/><path d="M270.00321,149.56016c0,0 1.9949,-0.247 2.8333,0.2284c0.6304,0.3785 1.0336,2.0209 1.0336,2.0209" stroke="#000000"/></g><g stroke="#000000" stroke-linecap="round"><path d="M256.84351,203.21356c1.4477,7.9093 -0.5073,16.1293 -1.2737,23.9871c-0.4588,4.7037 -0.2972,9.7606 -2.433,13.9826c-0.7888,1.7271 -3.4314,1.9362 -5.3491,1.8525c-1.5689,-0.0646 -3.7371,-0.6734 -4.165,-2.1535c-1.3906,-4.7025 -1.0594,-9.7659 -0.7694,-14.6383c0.4386,-7.3685 0.1742,-15.2769 2.874,-22.3283c0.6943,-1.6517 3.7461,0.5999 5.6247,0.5342c1.8486,-0.0665 5.1221,-3.1317 5.4915,-1.2363z"/><path d="M254.10711,241.62916c1.2231,1.2723 1.6343,3.0672 1.757,4.7474c0.0648,0.8831 -0.7845,1.618 -1.4168,2.226c-1.7621,1.704 -3.337,4.5579 -5.8392,4.3675c-2.7517,-0.0173 -4.8391,-2.766 -6.8204,-4.8667c-0.7469,-0.7872 -1.1369,-2.0849 -0.8564,-3.1451c0.4329,-1.6284 1.1784,-3.3124 2.6193,-4.3317c1.4795,-1.0458 3.4938,-1.5667 5.4569,-1.3803c1.9632,0.1865 3.8434,1.0773 5.0996,2.3829z"/></g><g stroke="#000000" stroke-linecap="round"><path d="M241.13371,204.30926c1.8179,0.4785 5.2912,-1.0444 5.604,0.7198c1.0778,7.4732 -0.9248,15.1284 -2.1224,22.4122c-0.792,4.8164 -1.5859,9.828 -3.9796,14.108c-0.744,1.3492 -2.993,1.4646 -4.5375,1.1816c-1.8889,-0.3414 -4.4203,-1.1283 -4.8087,-2.9869c-1.1518,-4.5891 0.1214,-9.4859 0.7115,-14.1749c0.9859,-7.8332 0.8925,-16.2819 4.0492,-23.6771c0.7785,-1.7672 3.2952,1.9447 5.0835,2.4173z"/><path d="M235.79691,238.77486c2.0522,0.2635 3.8198,1.2195 5.0181,2.55c1.1981,1.3315 1.5361,3.1191 1.5992,4.8028c0.0397,1.096 -0.5178,2.4924 -1.5292,2.8787c-2.6294,0.9891 -5.5855,1.9231 -8.3652,1.5469c-1.8125,-0.4737 -2.8994,-2.5299 -4.0926,-3.8527c-0.5863,-0.647 -1.1428,-1.6369 -0.8908,-2.4837c0.4806,-1.615 1.2652,-3.2574 2.761,-4.2429c1.4956,-0.9845 3.4474,-1.4627 5.4995,-1.1991z"/></g><g stroke="#000000" stroke-linecap="round"><path d="M257.83811,166.42896c2.4167,-2.2391 5.8389,-2.8246 8.8729,-3.9398c1.5592,-0.5753 3.3635,-1.0373 5.1903,-1.3129c2.1137,-0.2581 4.3532,-0.8365 6.5864,-0.2817c1.01,0.2527 1.3957,1.652 1.7302,2.5959c0.2755,1.0844 0.8175,2.5833 0.0326,3.2652c-2.9319,2.5557 -6.4842,4.3562 -10.1732,5.7514c-3.2774,1.2397 -6.8512,2.1062 -10.3283,2.0133c-1.5624,-0.0427 -3.888,-0.5185 -4.206,-2.0795c-0.54,-2.0689 0.7214,-4.5562 2.2951,-6.0119z"/><path d="M294.26171,158.67726c-1.331,2.1565 -5.0643,2.7134 -5.7704,4.9688c-0.3797,1.217 2.7493,0.9367 3.4344,2.0852c0.3851,0.6471 -0.2918,1.7684 -1.004,1.8901c-2.2967,0.5981 -4.7452,0.2082 -7.105,0.0508c-1.391,-0.0948 -3.0688,0.3386 -4.0226,-0.5634c-0.9859,-1.0449 -0.4239,-2.8782 -0.7012,-4.1782c-0.2818,-1.3294 -1.4053,-2.5444 -1.0534,-3.9439c0.4804,-1.9036 2.1475,-3.3022 3.37,-4.8389c1.1243,-1.4134 2.1356,-2.971 3.6664,-3.9055c0.5927,-0.3888 2.2651,-0.4121 2.1237,0.2986c-0.4008,2.0077 -3.7581,4.8831 -3.2515,5.2184c0.5076,0.3358 3.7343,-2.644 5.8745,-3.2963c0.5518,-0.1324 1.0859,0.8837 0.8312,1.3416c-1.0167,1.8258 -4.5705,3.8425 -4.1259,4.7306c0.4445,0.8869 4.0118,-1.2537 6.1263,-1.1721c0.6627,-0.0308 2.0121,0.6509 1.6075,1.3142z"/></g><g stroke="#000000" stroke-linecap="round"><path d="M238.10581,172.46816c-0.4327,1.5331 -2.7872,1.8355 -4.3485,1.7624c-3.4744,-0.1648 -6.9743,-1.2934 -10.1509,-2.7724c-3.5755,-1.6644 -6.9848,-3.723 -9.7195,-6.4886c-0.7323,-0.7382 -0.0808,-2.1928 0.2742,-3.2538c0.4035,-0.9166 0.8917,-2.2836 1.9177,-2.4607c2.2681,-0.3881 4.4587,0.3546 6.5475,0.7685c1.8013,0.41 3.5664,1.0043 5.0788,1.6934c2.9431,1.3368 6.3126,2.1741 8.5569,4.5859c1.4616,1.5682 2.5354,4.1421 1.8438,6.1653z"/><path d="M202.25341,154.66906c2.1147,0.0751 5.5137,2.4739 6.0226,1.6223c0.5092,-0.8527 -2.8855,-3.1269 -3.7644,-5.023c-0.22,-0.4755 0.3878,-1.4493 0.9283,-1.2764c2.0861,0.809 5.0833,4.0195 5.6143,3.7221c0.53,-0.2968 -2.6051,-3.4129 -2.8562,-5.4448c-0.0884,-0.7192 1.5777,-0.5721 2.14,-0.1405c1.4574,1.0453 2.3506,2.6734 3.3672,4.1661c1.1054,1.6231 2.6644,3.1412 3.0026,5.0752c0.2473,1.4217 -0.9631,2.5502 -1.3425,3.8551c-0.3728,1.2759 0.052,3.1457 -1.0087,4.1148c-1.0179,0.8289 -2.659,0.2725 -4.0532,0.2641c-2.365,-0.0178 -4.8356,0.1899 -7.0817,-0.5766c-0.7013,-0.1742 -1.2933,-1.3425 -0.8613,-1.9592c0.7682,-1.0947 3.8679,-0.5836 3.5793,-1.8253c-0.5372,-2.3015 -4.219,-3.1333 -5.3867,-5.3823c-0.3544,-0.6915 1.0417,-1.2714 1.7004,-1.1916z"/></g><path d="M246.94231,169.23846c2.64,0.054 5.308,-3.087 7.7,-1.9c2.365,0.954 2.752,4.327 3.3,6.85c0.916,4.217 1.145,8.435 1.25,12.9c0.13,5.827 2.363,12.598 -0.75,17.45c-2.056,3.337 -7.605,1.615 -11.4,1.8c-1.717,0.084 -3.404,-0.522 -5.1,-0.8c-2.501,-0.41 -6.526,0.925 -7.5,-1.5c-2.203,-5.239 -0.593,-11.482 -0.25,-17.2c0.275,-4.579 1.301,-9.16 2.35,-13.65c0.499,-2.142 0.485,-5.278 2.6,-6c2.465,-1.018 4.996,1.991 7.8,2.05z" stroke="#000000" stroke-linecap="round"/><path d="M247.56731,116.88846c6.642,0 12.661,3.025 17.019,7.913c4.358,4.888 7.056,11.638 7.056,19.087c0,7.449 -2.698,14.199 -7.056,19.087c-4.358,4.888 -10.377,7.913 -17.019,7.913c-6.642,0 -12.661,-3.025 -17.019,-7.913c-4.358,-4.888 -7.056,-11.638 -7.056,-19.087c0,-7.449 2.698,-14.199 7.056,-19.087c4.358,-4.888 10.377,-7.913 17.019,-7.913z" stroke="#000000" stroke-linecap="butt"/><path d="M256.34231,153.48846c0,0 -0.431,0.337 -0.65,0.5c-0.564,0.42 -1.02,1.073 -1.7,1.25c-0.698,0.181 -1.529,0.116 -2.15,-0.25c-0.695,-0.409 -1.5,-1.9 -1.5,-1.9" stroke="#000000" stroke-linecap="round"/><path d="M233.49231,119.03846c5.079,-0.061 6.638,-20.667 10.7,-21.5c3.323,-0.678 1.035,17.737 4.4,18.1c3.385,0.487 5.171,-17.464 9.1,-16.4c4.745,1.292 3.864,19.7 8.3,20.65c3.714,0.95 7.536,-18.024 8,-16.85c0.465,1.174 -0.879,17.342 -5.05,24.5c-1.328,2.389 -4.705,-2.623 -7.45,-2.8c-9.641,-0.613 -20.804,-4.092 -29,0.8c-6.689,3.994 -7.642,26.043 -9,21.6c-2.473,-8.097 -2.192,-40.461 0.85,-49.1c1.568,-4.452 4.304,21.189 9.15,21z" stroke="#000000" stroke-linecap="round"/><g stroke-linecap="round"><path d="M222.19231,144.13846c1.241,0.381 2.154,1.559 2.85,2.667c0.679,1.081 1.15,2.23 1.15,3.658c0,1.428 -0.373,2.647 -1.15,3.658c-0.529,0.688 -1.531,0.953 -2.35,0.817c-1.165,-0.11 -2.319,-0.688 -3.15,-1.5c-0.939,-0.918 -1.757,-2.178 -1.9,-3.5c-0.243,-1.77 -0.298,-3.893 0.8,-5.3c0.777,-0.996 2.552,-0.92 3.75,-0.5z" stroke="#000000"/><path d="M223.59231,147.43846c1.109,0.05 2.371,-0.399 3.298,0.149c0.835,0.492 1.202,1.616 1.202,2.651c0,1.035 -0.459,1.972 -1.202,2.651c-0.742,0.679 -1.767,1.099 -2.898,1.099c-1.131,0 -2.156,-0.42 -2.898,-1.099c-0.743,-0.679 -1.202,-1.616 -1.202,-2.651c0,-1.035 0.406,-2.1 1.202,-2.651c0.706,-0.487 1.674,-0.099 2.498,-0.149z" stroke="none"/><path d="M226.74231,144.63846c1.333,-0.163 2.656,0.849 3.598,1.699c0.721,0.65 1.202,1.616 1.202,2.651c0,1.035 -0.459,1.972 -1.202,2.651c-0.742,0.679 -1.767,1.099 -2.898,1.099c-1.131,0 -2.156,-0.42 -2.898,-1.099c-0.743,-0.679 -0.961,-1.713 -1.202,-2.651c-0.125,-0.482 -0.301,-1.227 0.05,-1.65c0.924,-1.102 1.962,-2.471 3.35,-2.7z" stroke="none"/><path d="M219.64231,146.88846c0,0 1.307,-0.833 2,-0.7c0.708,0.136 1.163,0.869 1.65,1.4c0.453,0.493 1.15,1.65 1.15,1.65" stroke="#000000"/><path d="M220.16451,151.20946c0,0 0.4032,-1.6424 1.0336,-2.0209c0.8384,-0.4754 2.8333,-0.2284 2.8333,-0.2284" stroke="#000000"/></g><path d="M262.31731,130.48846c2.297,0 4.378,1.115 5.885,2.916c1.507,1.801 2.44,4.289 2.44,7.034c0,2.745 -0.933,5.233 -2.44,7.034c-1.507,1.801 -3.588,2.916 -5.885,2.916c-2.297,0 -4.378,-1.115 -5.885,-2.916c-1.507,-1.801 -2.44,-4.289 -2.44,-7.034c0,-2.745 0.933,-5.233 2.44,-7.034c1.507,-1.801 3.588,-2.916 5.885,-2.916z" stroke="#000000" stroke-linecap="butt"/><path d="M245.51731,129.98846c2.297,0 4.378,1.115 5.885,2.916c1.507,1.801 2.44,4.289 2.44,7.034c0,2.745 -0.933,5.233 -2.44,7.034c-1.507,1.801 -3.588,2.916 -5.885,2.916c-2.297,0 -4.378,-1.115 -5.885,-2.916c-1.507,-1.801 -2.44,-4.289 -2.44,-7.034c0,-2.745 0.933,-5.233 2.44,-7.034c1.507,-1.801 3.588,-2.916 5.885,-2.916z" stroke="#000000" stroke-linecap="butt"/><g stroke-linecap="round"><path d="M233.99231,160.93846l4.5,-3.15l8.4,1.6l-2.5,6.75h-1.5z" stroke="none"/><path d="M235.59231,159.73846c0.649,-0.065 1.195,0.07 1.7,0.35c0.572,0.318 1.092,0.877 1.45,1.5c0.312,0.494 0.884,1.405 0.5,1.75c-0.442,0.393 -1.504,-0.131 -2.2,-0.4c-0.71,-0.282 -1.42,-0.706 -2.05,-1.2c-0.167,-0.165 -0.297,-0.452 -0.25,-0.7c0.057,-0.292 0.426,-0.437 0.615,-0.672c0.162,-0.191 0.014,-0.605 0.235,-0.628z" stroke="none"/><path d="M243.75961,166.07256l-9.7105,-4.0288c-0.8389,-0.7105 0.569,-2.1732 1.3048,-2.9116c0.7101,-0.6985 1.8158,-0.8782 2.7237,-1.0926c0.9246,-0.2177 1.8928,-0.2851 2.8429,-0.2509c0.7754,0.0266 1.6209,0.1564 2.3824,0.4202c0.9863,0.3392 3.2932,1.5033 3.2932,1.5033" stroke="#000000"/></g><g stroke="none" stroke-linecap="butt"><path d="M263.72551,138.22046c0.8151,0 1.5547,0.5024 2.0893,1.3131c0.5353,0.8108 0.8665,1.9307 0.8665,3.1666c0,1.236 -0.3312,2.3559 -0.8665,3.1667c-0.5346,0.8107 -1.2742,1.313 -2.0893,1.313c-0.8152,0 -1.5547,-0.5023 -2.0893,-1.313c-0.5354,-0.8108 -0.8666,-1.9307 -0.8666,-3.1667c0,-1.2359 0.3312,-2.3558 0.8666,-3.1666c0.5346,-0.8107 1.2741,-1.3131 2.0893,-1.3131z"/><path d="M264.18451,139.80356c0.4861,0 0.9268,0.3802 1.2462,0.9954c0.3187,0.6153 0.5163,1.4637 0.5163,2.4011c0,0.9373 -0.1976,1.7858 -0.5163,2.401c-0.3194,0.6152 -0.7601,0.9955 -1.2462,0.9955c-0.4862,0 -0.9268,-0.3803 -1.2463,-0.9955c-0.3187,-0.6152 -0.5162,-1.4637 -0.5162,-2.401c0,-0.9374 0.1975,-1.7858 0.5162,-2.4011c0.3195,-0.6152 0.7601,-0.9954 1.2463,-0.9954z"/><path d="M264.90051,139.32206c0.3797,0 0.7241,0.2181 0.973,0.5706c0.2497,0.3518 0.4039,0.8387 0.4039,1.3755c0,0.5368 -0.1542,1.0237 -0.4039,1.3755c-0.2489,0.3525 -0.5933,0.5706 -0.973,0.5706c-0.3797,0 -0.7241,-0.2181 -0.9731,-0.5706c-0.2496,-0.3518 -0.4039,-0.8387 -0.4039,-1.3755c0,-0.5368 0.1543,-1.0237 0.4039,-1.3755c0.249,-0.3525 0.5934,-0.5706 0.9731,-0.5706z"/><path d="M262.12821,143.50796c0.2027,0 0.3863,0.1073 0.5192,0.2798c0.1329,0.1726 0.2152,0.4113 0.2152,0.6749c0,0.2637 -0.0823,0.5023 -0.2152,0.6749c-0.1329,0.1726 -0.3165,0.2798 -0.5192,0.2798c-0.2027,0 -0.3863,-0.1072 -0.5192,-0.2798c-0.1329,-0.1726 -0.2152,-0.4112 -0.2152,-0.6749c0,-0.2636 0.0823,-0.5023 0.2152,-0.6749c0.1329,-0.1725 0.3165,-0.2798 0.5192,-0.2798z"/></g><g stroke="none" stroke-linecap="butt"><path d="M248.97551,137.57986c0.8152,0 1.5547,0.5023 2.0893,1.3131c0.5354,0.8107 0.8666,1.9306 0.8666,3.1666c0,1.2359 -0.3312,2.3559 -0.8666,3.1666c-0.5346,0.8108 -1.2741,1.3131 -2.0893,1.3131c-0.8152,0 -1.5547,-0.5023 -2.0893,-1.3131c-0.5354,-0.8107 -0.8666,-1.9307 -0.8666,-3.1666c0,-1.236 0.3312,-2.3559 0.8666,-3.1666c0.5346,-0.8108 1.2741,-1.3131 2.0893,-1.3131z"/><path d="M249.39781,139.08946c0.4861,0 0.9268,0.3803 1.2462,0.9955c0.3187,0.6152 0.5163,1.4637 0.5163,2.401c0,0.9374 -0.1976,1.7858 -0.5163,2.4011c-0.3194,0.6152 -0.7601,0.9954 -1.2462,0.9954c-0.4862,0 -0.9268,-0.3802 -1.2463,-0.9954c-0.3187,-0.6153 -0.5162,-1.4637 -0.5162,-2.4011c0,-0.9373 0.1975,-1.7858 0.5162,-2.401c0.3195,-0.6152 0.7601,-0.9955 1.2463,-0.9955z"/><path d="M250.18721,138.75486c0.3797,0 0.7241,0.2181 0.9731,0.5706c0.2497,0.3518 0.4039,0.8387 0.4039,1.3755c0,0.5368 -0.1542,1.0237 -0.4039,1.3755c-0.249,0.3525 -0.5934,0.5706 -0.9731,0.5706c-0.3797,0 -0.7241,-0.2181 -0.973,-0.5706c-0.2497,-0.3518 -0.4039,-0.8387 -0.4039,-1.3755c0,-0.5368 0.1542,-1.0237 0.4039,-1.3755c0.2489,-0.3525 0.5933,-0.5706 0.973,-0.5706z"/><path d="M247.41501,142.94076c0.2026,0 0.3862,0.1073 0.5192,0.2798c0.1329,0.1726 0.2151,0.4113 0.2151,0.6749c0,0.2637 -0.0822,0.5023 -0.2151,0.6749c-0.133,0.1726 -0.3166,0.2798 -0.5192,0.2798c-0.2027,0 -0.3863,-0.1072 -0.5192,-0.2798c-0.133,-0.1726 -0.2152,-0.4112 -0.2152,-0.6749c0,-0.2636 0.0822,-0.5023 0.2152,-0.6749c0.1329,-0.1725 0.3165,-0.2798 0.5192,-0.2798z"/></g></g><g><g stroke-linecap="round"><path d="M272.9,143.7c1.098,1.407 1.043,3.53 0.8,5.3c-0.143,1.322 -0.961,2.582 -1.9,3.5c-0.831,0.812 -1.985,1.39 -3.15,1.5c-0.819,0.136 -1.821,-0.129 -2.35,-0.817c-0.777,-1.011 -1.15,-2.23 -1.15,-3.658c0,-1.428 0.471,-2.577 1.15,-3.658c0.696,-1.108 1.609,-2.286 2.85,-2.667c1.198,-0.42 2.973,-0.496 3.75,0.5z" fill="#ffcc77" stroke="#000000" stroke-width="2"/><path d="M270.248,146.649c0.796,0.551 1.202,1.616 1.202,2.651c0,1.035 -0.459,1.972 -1.202,2.651c-0.742,0.679 -1.767,1.099 -2.898,1.099c-1.131,0 -2.156,-0.42 -2.898,-1.099c-0.743,-0.679 -1.202,-1.616 -1.202,-2.651c0,-1.035 0.367,-2.159 1.202,-2.651c0.927,-0.548 2.189,-0.099 3.298,-0.149c0.824,0.05 1.792,-0.338 2.498,0.149z" fill="#ffcc77" stroke="none" stroke-width="1"/><path d="M267.95,146.4c0.351,0.423 0.175,1.168 0.05,1.65c-0.241,0.938 -0.459,1.972 -1.202,2.651c-0.742,0.679 -1.767,1.099 -2.898,1.099c-1.131,0 -2.156,-0.42 -2.898,-1.099c-0.743,-0.679 -1.202,-1.616 -1.202,-2.651c0,-1.035 0.481,-2.001 1.202,-2.651c0.942,-0.85 2.265,-1.862 3.598,-1.699c1.388,0.229 2.426,1.598 3.35,2.7z" fill="#ffcc77" stroke="none" stroke-width="1"/><path d="M266.9,148.3c0,0 0.697,-1.157 1.15,-1.65c0.487,-0.531 0.942,-1.264 1.65,-1.4c0.693,-0.133 2,0.7 2,0.7" fill="none" stroke="#000000" stroke-width="1"/><path d="M267.3109,148.0217c0,0 1.9949,-0.247 2.8333,0.2284c0.6304,0.3785 1.0336,2.0209 1.0336,2.0209" fill="none" stroke="#000000" stroke-width="1"/></g><g stroke="#000000" stroke-width="2" stroke-linecap="round"><path d="M254.1512,201.6751c1.4477,7.9093 -0.5073,16.1293 -1.2737,23.9871c-0.4588,4.7037 -0.2972,9.7606 -2.433,13.9826c-0.7888,1.7271 -3.4314,1.9362 -5.3491,1.8525c-1.5689,-0.0646 -3.7371,-0.6734 -4.165,-2.1535c-1.3906,-4.7025 -1.0594,-9.7659 -0.7694,-14.6383c0.4386,-7.3685 0.1742,-15.2769 2.874,-22.3283c0.6943,-1.6517 3.7461,0.5999 5.6247,0.5342c1.8486,-0.0665 5.1221,-3.1317 5.4915,-1.2363z" fill="#001966"/><path d="M251.4148,240.0907c1.2231,1.2723 1.6343,3.0672 1.757,4.7474c0.0648,0.8831 -0.7845,1.618 -1.4168,2.226c-1.7621,1.704 -3.337,4.5579 -5.8392,4.3675c-2.7517,-0.0173 -4.8391,-2.766 -6.8204,-4.8667c-0.7469,-0.7872 -1.1369,-2.0849 -0.8564,-3.1451c0.4329,-1.6284 1.1784,-3.3124 2.6193,-4.3317c1.4795,-1.0458 3.4938,-1.5667 5.4569,-1.3803c1.9632,0.1865 3.8434,1.0773 5.0996,2.3829z" fill="#663b00"/></g><g stroke="#000000" stroke-width="2" stroke-linecap="round"><path d="M238.4414,202.7708c1.8179,0.4785 5.2912,-1.0444 5.604,0.7198c1.0778,7.4732 -0.9248,15.1284 -2.1224,22.4122c-0.792,4.8164 -1.5859,9.828 -3.9796,14.108c-0.744,1.3492 -2.993,1.4646 -4.5375,1.1816c-1.8889,-0.3414 -4.4203,-1.1283 -4.8087,-2.9869c-1.1518,-4.5891 0.1214,-9.4859 0.7115,-14.1749c0.9859,-7.8332 0.8925,-16.2819 4.0492,-23.6771c0.7785,-1.7672 3.2952,1.9447 5.0835,2.4173z" fill="#001966"/><path d="M233.1046,237.2364c2.0522,0.2635 3.8198,1.2195 5.0181,2.55c1.1981,1.3315 1.5361,3.1191 1.5992,4.8028c0.0397,1.096 -0.5178,2.4924 -1.5292,2.8787c-2.6294,0.9891 -5.5855,1.9231 -8.3652,1.5469c-1.8125,-0.4737 -2.8994,-2.5299 -4.0926,-3.8527c-0.5863,-0.647 -1.1428,-1.6369 -0.8908,-2.4837c0.4806,-1.615 1.2652,-3.2574 2.761,-4.2429c1.4956,-0.9845 3.4474,-1.4627 5.4995,-1.1991z" fill="#663b00"/></g><g stroke="#000000" stroke-linecap="round"><path d="M255.1458,164.8905c2.4167,-2.2391 5.8389,-2.8246 8.8729,-3.9398c1.5592,-0.5753 3.3635,-1.0373 5.1903,-1.3129c2.1137,-0.2581 4.3532,-0.8365 6.5864,-0.2817c1.01,0.2527 1.3957,1.652 1.7302,2.5959c0.2755,1.0844 0.8175,2.5833 0.0326,3.2652c-2.9319,2.5557 -6.4842,4.3562 -10.1732,5.7514c-3.2774,1.2397 -6.8512,2.1062 -10.3283,2.0133c-1.5624,-0.0427 -3.888,-0.5185 -4.206,-2.0795c-0.54,-2.0689 0.7214,-4.5562 2.2951,-6.0119z" fill="#2bffe4" stroke-width="2"/><path d="M291.5694,157.1388c-1.331,2.1565 -5.0643,2.7134 -5.7704,4.9688c-0.3797,1.217 2.7493,0.9367 3.4344,2.0852c0.3851,0.6471 -0.2918,1.7684 -1.004,1.8901c-2.2967,0.5981 -4.7452,0.2082 -7.105,0.0508c-1.391,-0.0948 -3.0688,0.3386 -4.0226,-0.5634c-0.9859,-1.0449 -0.4239,-2.8782 -0.7012,-4.1782c-0.2818,-1.3294 -1.4053,-2.5444 -1.0534,-3.9439c0.4804,-1.9036 2.1475,-3.3022 3.37,-4.8389c1.1243,-1.4134 2.1356,-2.971 3.6664,-3.9055c0.5927,-0.3888 2.2651,-0.4121 2.1237,0.2986c-0.4008,2.0077 -3.7581,4.8831 -3.2515,5.2184c0.5076,0.3358 3.7343,-2.644 5.8745,-3.2963c0.5518,-0.1324 1.0859,0.8837 0.8312,1.3416c-1.0167,1.8258 -4.5705,3.8425 -4.1259,4.7306c0.4445,0.8869 4.0118,-1.2537 6.1263,-1.1721c0.6627,-0.0308 2.0121,0.6509 1.6075,1.3142z" fill="#ffcc77" stroke-width="1.52655"/></g><g stroke="#000000" stroke-linecap="round"><path d="M235.4135,170.9297c-0.4327,1.5331 -2.7872,1.8355 -4.3485,1.7624c-3.4744,-0.1648 -6.9743,-1.2934 -10.1509,-2.7724c-3.5755,-1.6644 -6.9848,-3.723 -9.7195,-6.4886c-0.7323,-0.7382 -0.0808,-2.1928 0.2742,-3.2538c0.4035,-0.9166 0.8917,-2.2836 1.9177,-2.4607c2.2681,-0.3881 4.4587,0.3546 6.5475,0.7685c1.8013,0.41 3.5664,1.0043 5.0788,1.6934c2.9431,1.3368 6.3126,2.1741 8.5569,4.5859c1.4616,1.5682 2.5354,4.1421 1.8438,6.1653z" fill="#2bffe4" stroke-width="2"/><path d="M199.5611,153.1306c2.1147,0.0751 5.5137,2.4739 6.0226,1.6223c0.5092,-0.8527 -2.8855,-3.1269 -3.7644,-5.023c-0.22,-0.4755 0.3878,-1.4493 0.9283,-1.2764c2.0861,0.809 5.0833,4.0195 5.6143,3.7221c0.53,-0.2968 -2.6051,-3.4129 -2.8562,-5.4448c-0.0884,-0.7192 1.5777,-0.5721 2.14,-0.1405c1.4574,1.0453 2.3506,2.6734 3.3672,4.1661c1.1054,1.6231 2.6644,3.1412 3.0026,5.0752c0.2473,1.4217 -0.9631,2.5502 -1.3425,3.8551c-0.3728,1.2759 0.052,3.1457 -1.0087,4.1148c-1.0179,0.8289 -2.659,0.2725 -4.0532,0.2641c-2.365,-0.0178 -4.8356,0.1899 -7.0817,-0.5766c-0.7013,-0.1742 -1.2933,-1.3425 -0.8613,-1.9592c0.7682,-1.0947 3.8679,-0.5836 3.5793,-1.8253c-0.5372,-2.3015 -4.219,-3.1333 -5.3867,-5.3823c-0.3544,-0.6915 1.0417,-1.2714 1.7004,-1.1916z" fill="#ffcc77" stroke-width="1.52655"/></g><path d="M244.25,167.7c2.64,0.054 5.308,-3.087 7.7,-1.9c2.365,0.954 2.752,4.327 3.3,6.85c0.916,4.217 1.145,8.435 1.25,12.9c0.13,5.827 2.363,12.598 -0.75,17.45c-2.056,3.337 -7.605,1.615 -11.4,1.8c-1.717,0.084 -3.404,-0.522 -5.1,-0.8c-2.501,-0.41 -6.526,0.925 -7.5,-1.5c-2.203,-5.239 -0.593,-11.482 -0.25,-17.2c0.275,-4.579 1.301,-9.16 2.35,-13.65c0.499,-2.142 0.485,-5.278 2.6,-6c2.465,-1.018 4.996,1.991 7.8,2.05z" fill="#2bffe4" stroke="#000000" stroke-width="2" stroke-linecap="round"/><path d="M244.875,115.35c6.642,0 12.661,3.025 17.019,7.913c4.358,4.888 7.056,11.638 7.056,19.087c0,7.449 -2.698,14.199 -7.056,19.087c-4.358,4.888 -10.377,7.913 -17.019,7.913c-6.642,0 -12.661,-3.025 -17.019,-7.913c-4.358,-4.888 -7.056,-11.638 -7.056,-19.087c0,-7.449 2.698,-14.199 7.056,-19.087c4.358,-4.888 10.377,-7.913 17.019,-7.913z" fill="#ffcc77" stroke="#000000" stroke-width="2" stroke-linecap="butt"/><path d="M253.65,151.95c0,0 -0.431,0.337 -0.65,0.5c-0.564,0.42 -1.02,1.073 -1.7,1.25c-0.698,0.181 -1.529,0.116 -2.15,-0.25c-0.695,-0.409 -1.5,-1.9 -1.5,-1.9" fill="none" stroke="#000000" stroke-width="2" stroke-linecap="round"/><path d="M230.8,117.5c5.079,-0.061 6.638,-20.667 10.7,-21.5c3.323,-0.678 1.035,17.737 4.4,18.1c3.385,0.487 5.171,-17.464 9.1,-16.4c4.745,1.292 3.864,19.7 8.3,20.65c3.714,0.95 7.536,-18.024 8,-16.85c0.465,1.174 -0.879,17.342 -5.05,24.5c-1.328,2.389 -4.705,-2.623 -7.45,-2.8c-9.641,-0.613 -20.804,-4.092 -29,0.8c-6.689,3.994 -7.642,26.043 -9,21.6c-2.473,-8.097 -2.192,-40.461 0.85,-49.1c1.568,-4.452 4.304,21.189 9.15,21z" fill="#ffbf02" stroke="#000000" stroke-width="2" stroke-linecap="round"/><g stroke-linecap="round"><path d="M219.5,142.6c1.241,0.381 2.154,1.559 2.85,2.667c0.679,1.081 1.15,2.23 1.15,3.658c0,1.428 -0.373,2.647 -1.15,3.658c-0.529,0.688 -1.531,0.953 -2.35,0.817c-1.165,-0.11 -2.319,-0.688 -3.15,-1.5c-0.939,-0.918 -1.757,-2.178 -1.9,-3.5c-0.243,-1.77 -0.298,-3.893 0.8,-5.3c0.777,-0.996 2.552,-0.92 3.75,-0.5z" fill="#ffcc77" stroke="#000000" stroke-width="2"/><path d="M220.9,145.9c1.109,0.05 2.371,-0.399 3.298,0.149c0.835,0.492 1.202,1.616 1.202,2.651c0,1.035 -0.459,1.972 -1.202,2.651c-0.742,0.679 -1.767,1.099 -2.898,1.099c-1.131,0 -2.156,-0.42 -2.898,-1.099c-0.743,-0.679 -1.202,-1.616 -1.202,-2.651c0,-1.035 0.406,-2.1 1.202,-2.651c0.706,-0.487 1.674,-0.099 2.498,-0.149z" fill="#ffcc77" stroke="none" stroke-width="1"/><path d="M224.05,143.1c1.333,-0.163 2.656,0.849 3.598,1.699c0.721,0.65 1.202,1.616 1.202,2.651c0,1.035 -0.459,1.972 -1.202,2.651c-0.742,0.679 -1.767,1.099 -2.898,1.099c-1.131,0 -2.156,-0.42 -2.898,-1.099c-0.743,-0.679 -0.961,-1.713 -1.202,-2.651c-0.125,-0.482 -0.301,-1.227 0.05,-1.65c0.924,-1.102 1.962,-2.471 3.35,-2.7z" fill="#ffcc77" stroke="none" stroke-width="1"/><path d="M216.95,145.35c0,0 1.307,-0.833 2,-0.7c0.708,0.136 1.163,0.869 1.65,1.4c0.453,0.493 1.15,1.65 1.15,1.65" fill="none" stroke="#000000" stroke-width="1"/><path d="M217.4722,149.671c0,0 0.4032,-1.6424 1.0336,-2.0209c0.8384,-0.4754 2.8333,-0.2284 2.8333,-0.2284" fill="none" stroke="#000000" stroke-width="1"/></g><path d="M259.625,128.95c2.297,0 4.378,1.115 5.885,2.916c1.507,1.801 2.44,4.289 2.44,7.034c0,2.745 -0.933,5.233 -2.44,7.034c-1.507,1.801 -3.588,2.916 -5.885,2.916c-2.297,0 -4.378,-1.115 -5.885,-2.916c-1.507,-1.801 -2.44,-4.289 -2.44,-7.034c0,-2.745 0.933,-5.233 2.44,-7.034c1.507,-1.801 3.588,-2.916 5.885,-2.916z" fill="#ffffff" stroke="#000000" stroke-width="2" stroke-linecap="butt"/><path d="M242.825,128.45c2.297,0 4.378,1.115 5.885,2.916c1.507,1.801 2.44,4.289 2.44,7.034c0,2.745 -0.933,5.233 -2.44,7.034c-1.507,1.801 -3.588,2.916 -5.885,2.916c-2.297,0 -4.378,-1.115 -5.885,-2.916c-1.507,-1.801 -2.44,-4.289 -2.44,-7.034c0,-2.745 0.933,-5.233 2.44,-7.034c1.507,-1.801 3.588,-2.916 5.885,-2.916z" fill="#ffffff" stroke="#000000" stroke-width="2" stroke-linecap="butt"/><g stroke-linecap="round"><path d="M231.3,159.4l4.5,-3.15l8.4,1.6l-2.5,6.75h-1.5z" fill="#3d0101" stroke="none" stroke-width="1"/><path d="M232.9,158.2c0.649,-0.065 1.195,0.07 1.7,0.35c0.572,0.318 1.092,0.877 1.45,1.5c0.312,0.494 0.884,1.405 0.5,1.75c-0.442,0.393 -1.504,-0.131 -2.2,-0.4c-0.71,-0.282 -1.42,-0.706 -2.05,-1.2c-0.167,-0.165 -0.297,-0.452 -0.25,-0.7c0.057,-0.292 0.426,-0.437 0.615,-0.672c0.162,-0.191 0.014,-0.605 0.235,-0.628z" fill="#ff9999" stroke="none" stroke-width="1"/><path d="M241.0673,164.5341l-9.7105,-4.0288c-0.8389,-0.7105 0.569,-2.1732 1.3048,-2.9116c0.7101,-0.6985 1.8158,-0.8782 2.7237,-1.0926c0.9246,-0.2177 1.8928,-0.2851 2.8429,-0.2509c0.7754,0.0266 1.6209,0.1564 2.3824,0.4202c0.9863,0.3392 3.2932,1.5033 3.2932,1.5033" fill="none" stroke="#000000" stroke-width="2"/></g><g stroke="none" stroke-linecap="butt"><path d="M261.0332,136.682c0.8151,0 1.5547,0.5024 2.0893,1.3131c0.5353,0.8108 0.8665,1.9307 0.8665,3.1666c0,1.236 -0.3312,2.3559 -0.8665,3.1667c-0.5346,0.8107 -1.2742,1.313 -2.0893,1.313c-0.8152,0 -1.5547,-0.5023 -2.0893,-1.313c-0.5354,-0.8108 -0.8666,-1.9307 -0.8666,-3.1667c0,-1.2359 0.3312,-2.3558 0.8666,-3.1666c0.5346,-0.8107 1.2741,-1.3131 2.0893,-1.3131z" fill="#009999" stroke-width="0.73438"/><path d="M261.4922,138.2651c0.4861,0 0.9268,0.3802 1.2462,0.9954c0.3187,0.6153 0.5163,1.4637 0.5163,2.4011c0,0.9373 -0.1976,1.7858 -0.5163,2.401c-0.3194,0.6152 -0.7601,0.9955 -1.2462,0.9955c-0.4862,0 -0.9268,-0.3803 -1.2463,-0.9955c-0.3187,-0.6152 -0.5162,-1.4637 -0.5162,-2.401c0,-0.9374 0.1975,-1.7858 0.5162,-2.4011c0.3195,-0.6152 0.7601,-0.9954 1.2463,-0.9954z" fill="#000000" stroke-width="0.79669"/><path d="M262.2082,137.7836c0.3797,0 0.7241,0.2181 0.973,0.5706c0.2497,0.3518 0.4039,0.8387 0.4039,1.3755c0,0.5368 -0.1542,1.0237 -0.4039,1.3755c-0.2489,0.3525 -0.5933,0.5706 -0.973,0.5706c-0.3797,0 -0.7241,-0.2181 -0.9731,-0.5706c-0.2496,-0.3518 -0.4039,-0.8387 -0.4039,-1.3755c0,-0.5368 0.1543,-1.0237 0.4039,-1.3755c0.249,-0.3525 0.5934,-0.5706 0.9731,-0.5706z" fill="#ffffff" stroke-width="0.73438"/><path d="M259.4359,141.9695c0.2027,0 0.3863,0.1073 0.5192,0.2798c0.1329,0.1726 0.2152,0.4113 0.2152,0.6749c0,0.2637 -0.0823,0.5023 -0.2152,0.6749c-0.1329,0.1726 -0.3165,0.2798 -0.5192,0.2798c-0.2027,0 -0.3863,-0.1072 -0.5192,-0.2798c-0.1329,-0.1726 -0.2152,-0.4112 -0.2152,-0.6749c0,-0.2636 0.0823,-0.5023 0.2152,-0.6749c0.1329,-0.1725 0.3165,-0.2798 0.5192,-0.2798z" fill="#ffffff" stroke-width="0.73438"/></g><g stroke="none" stroke-linecap="butt"><path d="M246.2832,136.0414c0.8152,0 1.5547,0.5023 2.0893,1.3131c0.5354,0.8107 0.8666,1.9306 0.8666,3.1666c0,1.2359 -0.3312,2.3559 -0.8666,3.1666c-0.5346,0.8108 -1.2741,1.3131 -2.0893,1.3131c-0.8152,0 -1.5547,-0.5023 -2.0893,-1.3131c-0.5354,-0.8107 -0.8666,-1.9307 -0.8666,-3.1666c0,-1.236 0.3312,-2.3559 0.8666,-3.1666c0.5346,-0.8108 1.2741,-1.3131 2.0893,-1.3131z" fill="#009999" stroke-width="0.73438"/><path d="M246.7055,137.551c0.4861,0 0.9268,0.3803 1.2462,0.9955c0.3187,0.6152 0.5163,1.4637 0.5163,2.401c0,0.9374 -0.1976,1.7858 -0.5163,2.4011c-0.3194,0.6152 -0.7601,0.9954 -1.2462,0.9954c-0.4862,0 -0.9268,-0.3802 -1.2463,-0.9954c-0.3187,-0.6153 -0.5162,-1.4637 -0.5162,-2.4011c0,-0.9373 0.1975,-1.7858 0.5162,-2.401c0.3195,-0.6152 0.7601,-0.9955 1.2463,-0.9955z" fill="#000000" stroke-width="0.79669"/><path d="M247.4949,137.2164c0.3797,0 0.7241,0.2181 0.9731,0.5706c0.2497,0.3518 0.4039,0.8387 0.4039,1.3755c0,0.5368 -0.1542,1.0237 -0.4039,1.3755c-0.249,0.3525 -0.5934,0.5706 -0.9731,0.5706c-0.3797,0 -0.7241,-0.2181 -0.973,-0.5706c-0.2497,-0.3518 -0.4039,-0.8387 -0.4039,-1.3755c0,-0.5368 0.1542,-1.0237 0.4039,-1.3755c0.2489,-0.3525 0.5933,-0.5706 0.973,-0.5706z" fill="#ffffff" stroke-width="0.73438"/><path d="M244.7227,141.4023c0.2026,0 0.3862,0.1073 0.5192,0.2798c0.1329,0.1726 0.2151,0.4113 0.2151,0.6749c0,0.2637 -0.0822,0.5023 -0.2151,0.6749c-0.133,0.1726 -0.3166,0.2798 -0.5192,0.2798c-0.2027,0 -0.3863,-0.1072 -0.5192,-0.2798c-0.133,-0.1726 -0.2152,-0.4112 -0.2152,-0.6749c0,-0.2636 0.0822,-0.5023 0.2152,-0.6749c0.1329,-0.1725 0.3165,-0.2798 0.5192,-0.2798z" fill="#ffffff" stroke-width="0.73438"/></g></g></g></g></svg>