<svg xmlns="http://www.w3.org/2000/svg" xmlns:xlink="http://www.w3.org/1999/xlink" version="1.1" width="95.83969880532575" height="157.45999146889997" viewBox="3.803979866746306 0.9806721141370529 95.83969880532575 157.45999146889997">
  <!-- Exported by Scratch - http://scratch.mit.edu/ -->
  <g id="ID0.7511085895821452">
    <path id="ID0.9202246675267816" fill="#FFCC77" stroke="#000000" stroke-width="2" stroke-linecap="round" d="M 76.15 49.2 C 74.909 49.581 73.996 50.759 73.3 51.867 C 72.621 52.948 72.15 54.097 72.15 55.525 C 72.15 56.953 72.523 58.172 73.3 59.183 C 73.829 59.871 74.831 60.136 75.65 60 C 76.815 59.89 77.969 59.312 78.8 58.5 C 79.739 57.582 80.557 56.322 80.7 55 C 80.943 53.23 80.998 51.107 79.9 49.7 C 79.123 48.704 77.348 48.78 76.15 49.2 Z "/>
    <path id="ID0.32951963087543845" fill="#FFCC77" stroke="none" stroke-linecap="round" d="M 74.75 52.5 C 73.641 52.55 72.379 52.101 71.452 52.649 C 70.617 53.141 70.25 54.265 70.25 55.3 C 70.25 56.335 70.709 57.272 71.452 57.951 C 72.194 58.63 73.219 59.05 74.35 59.05 C 75.481 59.05 76.506 58.63 77.248 57.951 C 77.991 57.272 78.45 56.335 78.45 55.3 C 78.45 54.265 78.044 53.2 77.248 52.649 C 76.542 52.162 75.574 52.55 74.75 52.5 Z " stroke-width="1"/>
    <path id="ID0.32951963087543845" fill="#FFCC77" stroke="none" stroke-linecap="round" d="M 71.6 49.7 C 70.267 49.537 68.944 50.549 68.002 51.399 C 67.281 52.049 66.8 53.015 66.8 54.05 C 66.8 55.085 67.259 56.022 68.002 56.701 C 68.744 57.38 69.769 57.8 70.9 57.8 C 72.031 57.8 73.056 57.38 73.798 56.701 C 74.541 56.022 74.759 54.988 75 54.05 C 75.125 53.568 75.301 52.823 74.95 52.4 C 74.026 51.298 72.988 49.929 71.6 49.7 Z " stroke-width="1"/>
    <path id="ID0.08531287917867303" fill="none" stroke="#000000" stroke-width="1" stroke-linecap="round" d="M 78.7 51.95 C 78.7 51.95 77.393 51.117 76.7 51.25 C 75.992 51.386 75.537 52.119 75.05 52.65 C 74.597 53.143 73.9 54.3 73.9 54.3 "/>
    <path id="ID0.08531287917867303" fill="none" stroke="#000000" stroke-width="1.0000000242889973" stroke-linecap="round" d="M 78.1778 56.271 C 78.1778 56.271 77.7746 54.6286 77.1442 54.2501 C 76.3058 53.7747 74.3109 54.0217 74.3109 54.0217 "/>
  </g>
  <g id="ID0.23922329768538475">
    <path id="ID0.19963421486318111" fill="#001966" stroke="#000000" stroke-width="1.9999999533529265" stroke-linecap="round" d="M 55.6597 108.9114 C 53.7811 108.9771 50.7293 106.7255 50.035 108.3772 C 47.3352 115.4286 47.5996 123.337 47.161 130.7055 C 46.871 135.5779 46.5398 140.6413 47.9304 145.3438 C 48.3583 146.8239 50.5265 147.4327 52.0954 147.4973 C 54.0131 147.581 56.6557 147.3719 57.4445 145.6448 C 59.5803 141.4228 59.4187 136.3659 59.8775 131.6622 C 60.6439 123.8044 62.5989 115.5844 61.1512 107.6751 C 60.7818 105.7797 57.5083 108.8449 55.6597 108.9114 Z "/>
    <path id="ID0.7019679127261043" fill="#663B00" stroke="#000000" stroke-width="1.9999999533529265" stroke-linecap="round" d="M 53.3152 143.7078 C 51.3521 143.5214 49.3378 144.0423 47.8583 145.0881 C 46.4174 146.1074 45.6719 147.7914 45.239 149.4198 C 44.9585 150.48 45.3485 151.7777 46.0954 152.5649 C 48.0767 154.6656 50.1641 157.4143 52.9158 157.4316 C 55.418 157.622 56.9929 154.7681 58.755 153.0641 C 59.3873 152.4561 60.2366 151.7212 60.1718 150.8381 C 60.0491 149.1579 59.6379 147.363 58.4148 146.0907 C 57.1586 144.7851 55.2784 143.8943 53.3152 143.7078 Z "/>
  </g>
  <g id="ID0.23922329768538475">
    <path id="ID0.19963421486318111" fill="#001966" stroke="#000000" stroke-width="1.9999999951006233" stroke-linecap="round" d="M 45.4414 108.7708 C 47.2593 109.2493 50.7326 107.7264 51.0454 109.4906 C 52.1232 116.9638 50.1206 124.619 48.923 131.9028 C 48.131 136.7192 47.3371 141.7308 44.9434 146.0108 C 44.1994 147.36 41.9504 147.4754 40.4059 147.1924 C 38.517 146.851 35.9856 146.0641 35.5972 144.2055 C 34.4454 139.6164 35.7186 134.7196 36.3087 130.0306 C 37.2946 122.1974 37.2012 113.7487 40.3579 106.3535 C 41.1364 104.5863 43.6531 108.2982 45.4414 108.7708 Z "/>
    <path id="ID0.7019679127261043" fill="#663B00" stroke="#000000" stroke-width="1.9999999951006233" stroke-linecap="round" d="M 40.1046 143.2364 C 42.1568 143.4999 43.9244 144.4559 45.1227 145.7864 C 46.3208 147.1179 46.6588 148.9055 46.7219 150.5892 C 46.7616 151.6852 46.2041 153.0816 45.1927 153.4679 C 42.5633 154.457 39.6072 155.391 36.8275 155.0148 C 35.015 154.5411 33.9281 152.4849 32.7349 151.1621 C 32.1486 150.5151 31.5921 149.5252 31.8441 148.6784 C 32.3247 147.0634 33.1093 145.421 34.6051 144.4355 C 36.1007 143.451 38.0525 142.9728 40.1046 143.2364 Z "/>
  </g>
  <g id="ID0.4572075121104717">
    <path id="ID0.7623941171914339" fill="#2BFFE4" stroke="#000000" stroke-width="2.0000000138218414" stroke-linecap="round" d="M 59.8507 76.9024 C 60.1687 78.4634 62.4943 78.9392 64.0567 78.9819 C 67.5338 79.0748 71.1076 78.2083 74.385 76.9686 C 78.074 75.5734 81.6263 73.7729 84.5582 71.2172 C 85.3431 70.5353 84.8011 69.0364 84.5256 67.952 C 84.1911 67.0081 83.8054 65.6088 82.7954 65.3561 C 80.5622 64.8013 78.3227 65.3797 76.209 65.6378 C 74.3822 65.9134 72.5779 66.3754 71.0187 66.9507 C 67.9847 68.0659 64.5625 68.6514 62.1458 70.8905 C 60.5721 72.3462 59.3107 74.8335 59.8507 76.9024 Z "/>
    <path id="ID0.01313785370439291" fill="#FFCC77" stroke="#000000" stroke-width="1.526548568246056" stroke-linecap="round" d="M 96.9619 61.8246 C 94.8474 61.743 91.2801 63.8836 90.8356 62.9967 C 90.391 62.1086 93.9448 60.0919 94.9615 58.2661 C 95.2162 57.8082 94.6821 56.7921 94.1303 56.9245 C 91.9901 57.5768 88.7634 60.5566 88.2558 60.2208 C 87.7492 59.8855 91.1065 57.0101 91.5073 55.0024 C 91.6487 54.2917 89.9763 54.315 89.3836 54.7038 C 87.8528 55.6383 86.8415 57.1959 85.7172 58.6093 C 84.4947 60.146 82.8276 61.5446 82.3472 63.4482 C 81.9953 64.8477 83.1188 66.0627 83.4006 67.3921 C 83.6779 68.6921 83.1159 70.5254 84.1018 71.5703 C 85.0556 72.4723 86.7334 72.0389 88.1244 72.1337 C 90.4842 72.2911 92.9327 72.681 95.2294 72.0829 C 95.9416 71.9612 96.6185 70.8399 96.2334 70.1928 C 95.5483 69.0443 92.4193 69.3246 92.799 68.1076 C 93.5051 65.8522 97.2384 65.2953 98.5694 63.1388 C 98.974 62.4755 97.6246 61.7938 96.9619 61.8246 Z "/>
  </g>
  <g id="ID0.4572075121104717">
    <path id="ID0.7623941171914339" fill="#2BFFE4" stroke="#000000" stroke-width="1.9999999636084167" stroke-linecap="round" d="M 42.4135 76.9297 C 41.9808 78.4628 39.6263 78.7652 38.065 78.6921 C 34.5906 78.5273 31.0907 77.3987 27.9141 75.9197 C 24.3386 74.2553 20.9293 72.1967 18.1946 69.4311 C 17.4623 68.6929 18.1138 67.2383 18.4688 66.1773 C 18.8723 65.2607 19.3605 63.8937 20.3865 63.7166 C 22.6546 63.3285 24.8452 64.0712 26.934 64.4851 C 28.7353 64.8951 30.5004 65.4894 32.0128 66.1785 C 34.9559 67.5153 38.3254 68.3526 40.5697 70.7644 C 42.0313 72.3326 43.1051 74.9065 42.4135 76.9297 Z "/>
    <path id="ID0.01313785370439291" fill="#FFCC77" stroke="#000000" stroke-width="1.526548569587842" stroke-linecap="round" d="M 6.5611 59.1306 C 8.6758 59.2057 12.0748 61.6045 12.5837 60.7529 C 13.0929 59.9002 9.6982 57.626 8.8193 55.7299 C 8.5993 55.2544 9.2071 54.2806 9.7476 54.4535 C 11.8337 55.2625 14.8309 58.473 15.3619 58.1756 C 15.8919 57.8788 12.7568 54.7627 12.5057 52.7308 C 12.4173 52.0116 14.0834 52.1587 14.6457 52.5903 C 16.1031 53.6356 16.9963 55.2637 18.0129 56.7564 C 19.1183 58.3795 20.6773 59.8976 21.0155 61.8316 C 21.2628 63.2533 20.0524 64.3818 19.673 65.6867 C 19.3002 66.9626 19.725 68.8324 18.6643 69.8015 C 17.6464 70.6304 16.0053 70.074 14.6111 70.0656 C 12.2461 70.0478 9.7755 70.2555 7.5294 69.489 C 6.8281 69.3148 6.2361 68.1465 6.6681 67.5298 C 7.4363 66.4351 10.536 66.9462 10.2474 65.7045 C 9.7102 63.403 6.0284 62.5712 4.8607 60.3222 C 4.5063 59.6307 5.9024 59.0508 6.5611 59.1306 Z "/>
  </g>
  <path id="ID0.10097399353981018" fill="#2BFFE4" stroke="#000000" stroke-width="2" stroke-linecap="round" d="M 51.25 73.7 C 53.89 73.754 56.558 70.613 58.95 71.8 C 61.315 72.754 61.702 76.127 62.25 78.65 C 63.166 82.867 63.395 87.085 63.5 91.55 C 63.63 97.377 65.863 104.148 62.75 109 C 60.694 112.337 55.145 110.615 51.35 110.8 C 49.633 110.884 47.946 110.278 46.25 110 C 43.749 109.59 39.724 110.925 38.75 108.5 C 36.547 103.261 38.157 97.018 38.5 91.3 C 38.775 86.721 39.801 82.14 40.85 77.65 C 41.349 75.508 41.335 72.372 43.45 71.65 C 45.915 70.632 48.446 73.641 51.25 73.7 Z "/>
  <path id="ID0.9834481873549521" fill="#FFCC77" stroke="#000000" stroke-width="2" d="M 51.875 21.35 C 58.517 21.35 64.536 24.375 68.894 29.263 C 73.252 34.151 75.95 40.901 75.95 48.35 C 75.95 55.799 73.252 62.549 68.894 67.437 C 64.536 72.325 58.517 75.35 51.875 75.35 C 45.233 75.35 39.214 72.325 34.856 67.437 C 30.498 62.549 27.8 55.799 27.8 48.35 C 27.8 40.901 30.498 34.151 34.856 29.263 C 39.214 24.375 45.233 21.35 51.875 21.35 Z "/>
  <path id="ID0.11013443116098642" fill="none" stroke="#000000" stroke-width="2" stroke-linecap="round" d="M 54.65 57.55 C 54.65 57.55 55.455 59.041 56.15 59.45 C 56.771 59.816 57.602 59.881 58.3 59.7 C 58.98 59.523 59.436 58.87 60 58.45 C 60.219 58.287 60.65 57.95 60.65 57.95 "/>
  <path id="ID0.09000997431576252" fill="#FFBF02" stroke="#000000" stroke-width="2" stroke-linecap="round" d="M 37.8 23.5 C 42.879 23.439 44.438 2.833 48.5 2 C 51.823 1.322 49.535 19.737 52.9 20.1 C 56.285 20.587 58.071 2.636 62 3.7 C 66.745 4.992 65.864 23.4 70.3 24.35 C 74.014 25.3 77.836 6.326 78.3 7.5 C 78.765 8.674 77.421 24.842 73.25 32 C 71.922 34.389 68.545 29.377 65.8 29.2 C 56.159 28.587 44.996 25.108 36.8 30 C 30.111 33.994 29.158 56.043 27.8 51.6 C 25.327 43.503 25.608 11.139 28.65 2.5 C 30.218 -1.952 32.954 23.689 37.8 23.5 Z "/>
  <g id="ID0.7511085895821452">
    <path id="ID0.9202246675267816" fill="#FFCC77" stroke="#000000" stroke-width="2" stroke-linecap="round" d="M 26.5 48.6 C 27.741 48.981 28.654 50.159 29.35 51.267 C 30.029 52.348 30.5 53.497 30.5 54.925 C 30.5 56.353 30.127 57.572 29.35 58.583 C 28.821 59.271 27.819 59.536 27 59.4 C 25.835 59.29 24.681 58.712 23.85 57.9 C 22.911 56.982 22.093 55.722 21.95 54.4 C 21.707 52.63 21.652 50.507 22.75 49.1 C 23.527 48.104 25.302 48.18 26.5 48.6 Z "/>
    <path id="ID0.32951963087543845" fill="#FFCC77" stroke="none" stroke-linecap="round" d="M 27.9 51.9 C 29.009 51.95 30.271 51.501 31.198 52.049 C 32.033 52.541 32.4 53.665 32.4 54.7 C 32.4 55.735 31.941 56.672 31.198 57.351 C 30.456 58.03 29.431 58.45 28.3 58.45 C 27.169 58.45 26.144 58.03 25.402 57.351 C 24.659 56.672 24.2 55.735 24.2 54.7 C 24.2 53.665 24.606 52.6 25.402 52.049 C 26.108 51.562 27.076 51.95 27.9 51.9 Z " stroke-width="1"/>
    <path id="ID0.32951963087543845" fill="#FFCC77" stroke="none" stroke-linecap="round" d="M 31.05 49.1 C 32.383 48.937 33.706 49.949 34.648 50.799 C 35.369 51.449 35.85 52.415 35.85 53.45 C 35.85 54.485 35.391 55.422 34.648 56.101 C 33.906 56.78 32.881 57.2 31.75 57.2 C 30.619 57.2 29.594 56.78 28.852 56.101 C 28.109 55.422 27.891 54.388 27.65 53.45 C 27.525 52.968 27.349 52.223 27.7 51.8 C 28.624 50.698 29.662 49.329 31.05 49.1 Z " stroke-width="1"/>
    <path id="ID0.08531287917867303" fill="none" stroke="#000000" stroke-width="1" stroke-linecap="round" d="M 23.95 51.35 C 23.95 51.35 25.257 50.517 25.95 50.65 C 26.658 50.786 27.113 51.519 27.6 52.05 C 28.053 52.543 28.75 53.7 28.75 53.7 "/>
    <path id="ID0.08531287917867303" fill="none" stroke="#000000" stroke-width="1.0000000242889973" stroke-linecap="round" d="M 24.4722 55.671 C 24.4722 55.671 24.8754 54.0286 25.5058 53.6501 C 26.3442 53.1747 28.3391 53.4217 28.3391 53.4217 "/>
  </g>
  <path id="ID0.32517488626763225" fill="#FFFFFF" stroke="#000000" stroke-width="2" d="M 66.625 34.95 C 68.922 34.95 71.003 36.065 72.51 37.866 C 74.017 39.667 74.95 42.155 74.95 44.9 C 74.95 47.645 74.017 50.133 72.51 51.934 C 71.003 53.735 68.922 54.85 66.625 54.85 C 64.328 54.85 62.247 53.735 60.74 51.934 C 59.233 50.133 58.3 47.645 58.3 44.9 C 58.3 42.155 59.233 39.667 60.74 37.866 C 62.247 36.065 64.328 34.95 66.625 34.95 Z "/>
  <path id="ID0.32517488626763225" fill="#FFFFFF" stroke="#000000" stroke-width="2" d="M 49.825 34.45 C 52.122 34.45 54.203 35.565 55.71 37.366 C 57.217 39.167 58.15 41.655 58.15 44.4 C 58.15 47.145 57.217 49.633 55.71 51.434 C 54.203 53.235 52.122 54.35 49.825 54.35 C 47.528 54.35 45.447 53.235 43.94 51.434 C 42.433 49.633 41.5 47.145 41.5 44.4 C 41.5 41.655 42.433 39.167 43.94 37.366 C 45.447 35.565 47.528 34.45 49.825 34.45 Z "/>
  <g id="ID0.9259606110863388">
    <path id="ID0.18902716599404812" fill="#3D0101" stroke="none" stroke-linecap="round" d="M 38.3 65.4 L 42.8 62.25 L 51.2 63.85 L 48.7 70.6 L 47.2 70.6 L 38.3 65.4 Z " stroke-width="1"/>
    <path id="ID0.8991414033807814" fill="#FF9999" stroke="none" stroke-linecap="round" d="M 39.9 64.2 C 40.549 64.135 41.095 64.27 41.6 64.55 C 42.172 64.868 42.692 65.427 43.05 66.05 C 43.362 66.544 43.934 67.455 43.55 67.8 C 43.108 68.193 42.046 67.669 41.35 67.4 C 40.64 67.118 39.93 66.694 39.3 66.2 C 39.133 66.035 39.003 65.748 39.05 65.5 C 39.107 65.208 39.476 65.063 39.665 64.828 C 39.827 64.637 39.679 64.223 39.9 64.2 Z " stroke-width="1"/>
    <path id="ID0.7795739038847387" fill="none" stroke="#000000" stroke-width="1.9999999994638564" stroke-linecap="round" d="M 50.9038 64.1737 C 50.9038 64.1737 48.5969 63.0096 47.6106 62.6704 C 46.8491 62.4066 46.0036 62.2768 45.2282 62.2502 C 44.2781 62.216 43.3099 62.2834 42.3853 62.5011 C 41.4774 62.7155 40.3717 62.8952 39.6616 63.5937 C 38.9258 64.3321 37.5179 65.7948 38.3568 66.5053 L 48.0673 70.5341 "/>
  </g>
  <g id="ID0.5538363005034626">
    <path id="ID0.3123384383507073" fill="#009999" stroke="none" d="M 68.0332 42.682 C 68.8483 42.682 69.5879 43.1844 70.1225 43.9951 C 70.6578 44.8059 70.989 45.9258 70.989 47.1617 C 70.989 48.3977 70.6578 49.5176 70.1225 50.3284 C 69.5879 51.1391 68.8483 51.6414 68.0332 51.6414 C 67.218 51.6414 66.4785 51.1391 65.9439 50.3284 C 65.4085 49.5176 65.0773 48.3977 65.0773 47.1617 C 65.0773 45.9258 65.4085 44.8059 65.9439 43.9951 C 66.4785 43.1844 67.218 42.682 68.0332 42.682 Z " stroke-width="0.7343750596046448"/>
    <path id="ID0.9945462001487613" fill="#000000" stroke="none" d="M 68.4922 44.2651 C 68.9783 44.2651 69.419 44.6453 69.7384 45.2605 C 70.0571 45.8758 70.2547 46.7242 70.2547 47.6616 C 70.2547 48.5989 70.0571 49.4474 69.7384 50.0626 C 69.419 50.6778 68.9783 51.0581 68.4922 51.0581 C 68.006 51.0581 67.5654 50.6778 67.2459 50.0626 C 66.9272 49.4474 66.7297 48.5989 66.7297 47.6616 C 66.7297 46.7242 66.9272 45.8758 67.2459 45.2605 C 67.5654 44.6453 68.006 44.2651 68.4922 44.2651 Z " stroke-width="0.7966841452673136"/>
    <path id="ID0.7593508111312985" fill="#FFFFFF" stroke="none" d="M 69.2082 43.7836 C 69.5879 43.7836 69.9323 44.0017 70.1812 44.3542 C 70.4309 44.706 70.5851 45.1929 70.5851 45.7297 C 70.5851 46.2665 70.4309 46.7534 70.1812 47.1052 C 69.9323 47.4577 69.5879 47.6758 69.2082 47.6758 C 68.8285 47.6758 68.4841 47.4577 68.2351 47.1052 C 67.9855 46.7534 67.8312 46.2665 67.8312 45.7297 C 67.8312 45.1929 67.9855 44.706 68.2351 44.3542 C 68.4841 44.0017 68.8285 43.7836 69.2082 43.7836 Z " stroke-width="0.7343750596046448"/>
    <path id="ID0.8557649310678244" fill="#FFFFFF" stroke="none" d="M 66.4359 47.9695 C 66.6386 47.9695 66.8222 48.0768 66.9551 48.2493 C 67.088 48.4219 67.1703 48.6606 67.1703 48.9242 C 67.1703 49.1879 67.088 49.4265 66.9551 49.5991 C 66.8222 49.7717 66.6386 49.8789 66.4359 49.8789 C 66.2332 49.8789 66.0496 49.7717 65.9167 49.5991 C 65.7838 49.4265 65.7015 49.1879 65.7015 48.9242 C 65.7015 48.6606 65.7838 48.4219 65.9167 48.2493 C 66.0496 48.0768 66.2332 47.9695 66.4359 47.9695 Z " stroke-width="0.7343750596046448"/>
  </g>
  <g id="ID0.4285051980987191">
    <path id="ID0.3123384383507073" fill="#009999" stroke="none" d="M 53.2832 42.0414 C 54.0984 42.0414 54.8379 42.5437 55.3725 43.3545 C 55.9079 44.1652 56.2391 45.2851 56.2391 46.5211 C 56.2391 47.757 55.9079 48.877 55.3725 49.6877 C 54.8379 50.4985 54.0984 51.0008 53.2832 51.0008 C 52.468 51.0008 51.7285 50.4985 51.1939 49.6877 C 50.6585 48.877 50.3273 47.757 50.3273 46.5211 C 50.3273 45.2851 50.6585 44.1652 51.1939 43.3545 C 51.7285 42.5437 52.468 42.0414 53.2832 42.0414 Z " stroke-width="0.734375"/>
    <path id="ID0.9945462001487613" fill="#000000" stroke="none" d="M 53.7055 43.551 C 54.1916 43.551 54.6323 43.9313 54.9517 44.5465 C 55.2704 45.1617 55.468 46.0102 55.468 46.9475 C 55.468 47.8849 55.2704 48.7333 54.9517 49.3486 C 54.6323 49.9638 54.1916 50.344 53.7055 50.344 C 53.2193 50.344 52.7787 49.9638 52.4592 49.3486 C 52.1405 48.7333 51.943 47.8849 51.943 46.9475 C 51.943 46.0102 52.1405 45.1617 52.4592 44.5465 C 52.7787 43.9313 53.2193 43.551 53.7055 43.551 Z " stroke-width="0.7966840806054288"/>
    <path id="ID0.7593508111312985" fill="#FFFFFF" stroke="none" d="M 54.4949 43.2164 C 54.8746 43.2164 55.219 43.4345 55.468 43.787 C 55.7177 44.1388 55.8719 44.6257 55.8719 45.1625 C 55.8719 45.6993 55.7177 46.1862 55.468 46.538 C 55.219 46.8905 54.8746 47.1086 54.4949 47.1086 C 54.1152 47.1086 53.7708 46.8905 53.5219 46.538 C 53.2722 46.1862 53.118 45.6993 53.118 45.1625 C 53.118 44.6257 53.2722 44.1388 53.5219 43.787 C 53.7708 43.4345 54.1152 43.2164 54.4949 43.2164 Z " stroke-width="0.734375"/>
    <path id="ID0.8557649310678244" fill="#FFFFFF" stroke="none" d="M 51.7227 47.4023 C 51.9253 47.4023 52.1089 47.5096 52.2419 47.6821 C 52.3748 47.8547 52.457 48.0934 52.457 48.357 C 52.457 48.6207 52.3748 48.8593 52.2419 49.0319 C 52.1089 49.2045 51.9253 49.3117 51.7227 49.3117 C 51.52 49.3117 51.3364 49.2045 51.2035 49.0319 C 51.0705 48.8593 50.9883 48.6207 50.9883 48.357 C 50.9883 48.0934 51.0705 47.8547 51.2035 47.6821 C 51.3364 47.5096 51.52 47.4023 51.7227 47.4023 Z " stroke-width="0.734375"/>
  </g>
</svg>