<svg xmlns="http://www.w3.org/2000/svg" xmlns:xlink="http://www.w3.org/1999/xlink" version="1.1" width="67.19213104248047" height="152.99920654296875" viewBox="2.453932762145996 0.9806721210479736 67.19213104248047 152.99920654296875">
  <!-- Exported by Scratch - http://scratch.mit.edu/ -->
  <g id="ID0.23922329768538475">
    <path id="ID0.19963421486318111" fill="#294765" stroke="#000000" stroke-width="2" stroke-linecap="round" d="M 41.5 107.65 C 39.636 107.893 36.385 105.94 35.85 107.65 C 33.829 114.925 34.84 122.773 35.1 130.15 C 35.272 135.028 35.421 140.1 37.25 144.65 C 37.816 146.083 40.032 146.484 41.6 146.4 C 43.517 146.302 46.128 145.844 46.75 144.05 C 48.477 139.645 47.838 134.626 47.85 129.9 C 47.87 122.005 49.039 113.637 46.85 105.9 C 46.303 104.048 43.334 107.409 41.5 107.65 Z "/>
    <path id="ID0.7019679127261043" fill="#FFFF00" stroke="#000000" stroke-width="2" stroke-linecap="round" d="M 42.45 142.5 C 40.381 142.5 38.506 143.223 37.148 144.39 C 35.79 145.558 35.227 147.288 34.95 148.95 C 34.771 150.032 35.02 151.551 36.1 152 C 37.918 152.902 40.253 152.511 42.35 152.4 C 44.567 152.282 46.818 152.205 48.75 151.3 C 49.597 150.943 50.098 149.823 49.95 148.95 C 49.669 147.289 49.11 145.558 47.752 144.39 C 46.394 143.223 44.519 142.5 42.45 142.5 Z "/>
  </g>
  <g id="ID0.23922329768538475">
    <path id="ID0.19963421486318111" fill="#294765" stroke="#000000" stroke-width="2" stroke-linecap="round" d="M 30.05 108.05 C 31.914 108.293 35.165 106.34 35.7 108.05 C 37.721 115.325 36.71 123.173 36.45 130.55 C 36.278 135.428 36.129 140.5 34.3 145.05 C 33.734 146.483 31.518 146.884 29.95 146.8 C 28.033 146.702 25.422 146.244 24.8 144.45 C 23.073 140.045 23.712 135.026 23.7 130.3 C 23.68 122.405 22.511 114.037 24.7 106.3 C 25.247 104.448 28.216 107.809 30.05 108.05 Z "/>
    <path id="ID0.7019679127261043" fill="#FFFF00" stroke="#000000" stroke-width="2" stroke-linecap="round" d="M 29.1 142.9 C 31.169 142.9 33.044 143.623 34.402 144.79 C 35.76 145.958 36.323 147.688 36.6 149.35 C 36.779 150.432 36.53 151.951 35.45 152.4 C 33.632 153.302 31.297 152.911 29.2 152.8 C 26.983 152.682 24.732 152.605 22.8 151.7 C 21.953 151.343 21.452 150.223 21.6 149.35 C 21.881 147.689 22.44 145.958 23.798 144.79 C 25.156 143.623 27.031 142.9 29.1 142.9 Z "/>
  </g>
  <g id="ID0.4572075121104717">
    <path id="ID0.7623941171914339" fill="#7F00FF" stroke="#000000" stroke-width="1.9999999898339107" stroke-linecap="round" d="M 44.0941 70.6468 C 42.5594 71.0738 42.2483 73.4272 42.3157 74.9887 C 42.4676 78.4637 43.5834 81.9677 45.0506 85.1497 C 46.7019 88.7314 48.7479 92.1482 51.5035 94.8931 C 52.2389 95.6281 53.696 94.982 54.7583 94.6309 C 55.6763 94.2308 57.045 93.7476 57.226 92.7223 C 57.6224 90.4556 56.8878 88.2623 56.4816 86.172 C 56.0782 84.3692 55.4905 82.6019 54.8069 81.087 C 53.481 78.1389 52.6561 74.7664 50.2526 72.5133 C 48.6897 71.0459 46.1199 69.9626 44.0941 70.6468 Z "/>
    <path id="ID0.01313785370439291" fill="#FFCC77" stroke="#000000" stroke-width="1.526548617043654" stroke-linecap="round" d="M 61.7196 106.6488 C 61.6523 104.5338 59.2661 101.1259 60.1195 100.6202 C 60.974 100.1142 63.2358 103.5172 65.1286 104.403 C 65.6033 104.6248 66.5793 104.0206 66.4084 103.4794 C 65.6071 101.3904 62.4077 98.3814 62.707 97.8515 C 63.0058 97.3226 66.1103 100.4692 68.1412 100.7277 C 68.8601 100.8188 68.7191 99.1522 68.2897 98.5883 C 67.2498 97.127 65.6249 96.2278 64.1359 95.2057 C 62.517 94.0944 61.0046 92.5298 59.0719 92.1845 C 57.6511 91.932 56.5181 93.1382 55.2118 93.5128 C 53.9346 93.8809 52.0663 93.4492 51.0933 94.5063 C 50.2607 95.5212 50.811 97.1643 50.8144 98.5585 C 50.8234 100.9236 50.6066 103.3934 51.3648 105.6423 C 51.5364 106.3442 52.7025 106.9406 53.3209 106.5108 C 54.4184 105.7466 53.9187 102.6451 55.1593 102.9383 C 57.4588 103.4839 58.277 107.1688 60.5218 108.3447 C 61.2119 108.7017 61.797 107.3077 61.7196 106.6488 Z "/>
  </g>
  <g id="ID0.4572075121104717">
    <path id="ID0.7623941171914339" fill="#7F00FF" stroke="#000000" stroke-width="1.9999999898339107" stroke-linecap="round" d="M 28.0059 72.3968 C 29.5406 72.8238 29.8517 75.1772 29.7843 76.7387 C 29.6324 80.2137 28.5166 83.7177 27.0494 86.8997 C 25.3981 90.4814 23.3521 93.8982 20.5965 96.6431 C 19.8611 97.3781 18.404 96.732 17.3417 96.3809 C 16.4237 95.9808 15.055 95.4976 14.874 94.4723 C 14.4776 92.2056 15.2122 90.0123 15.6184 87.922 C 16.0218 86.1192 16.6095 84.3519 17.2931 82.837 C 18.619 79.8889 19.4439 76.5164 21.8474 74.2633 C 23.4103 72.7959 25.9801 71.7126 28.0059 72.3968 Z "/>
    <path id="ID0.01313785370439291" fill="#FFCC77" stroke="#000000" stroke-width="1.526548617043654" stroke-linecap="round" d="M 10.3804 108.3988 C 10.4477 106.2838 12.8339 102.8759 11.9805 102.3702 C 11.126 101.8642 8.8642 105.2672 6.9714 106.153 C 6.4967 106.3748 5.5207 105.7706 5.6916 105.2294 C 6.4929 103.1404 9.6923 100.1314 9.393 99.6015 C 9.0942 99.0726 5.9897 102.2192 3.9588 102.4777 C 3.2399 102.5688 3.3809 100.9022 3.8103 100.3383 C 4.8502 98.877 6.4751 97.9778 7.9641 96.9557 C 9.583 95.8444 11.0954 94.2798 13.0281 93.9345 C 14.4489 93.682 15.5819 94.8882 16.8882 95.2628 C 18.1654 95.6309 20.0337 95.1992 21.0067 96.2563 C 21.8393 97.2712 21.289 98.9143 21.2856 100.3085 C 21.2766 102.6736 21.4934 105.1434 20.7352 107.3923 C 20.5636 108.0942 19.3975 108.6906 18.7791 108.2608 C 17.6816 107.4966 18.1813 104.3951 16.9407 104.6883 C 14.6412 105.2339 13.823 108.9188 11.5782 110.0947 C 10.8881 110.4517 10.303 109.0577 10.3804 108.3988 Z "/>
  </g>
  <path id="ID0.10097399353981018" fill="#7F00FF" stroke="#000000" stroke-width="2" stroke-linecap="round" d="M 36.25 73.7 C 38.89 73.754 41.558 70.613 43.95 71.8 C 46.315 72.754 46.702 76.127 47.25 78.65 C 48.166 82.867 48.395 87.085 48.5 91.55 C 48.63 97.377 50.863 104.148 47.75 109 C 45.694 112.337 40.145 110.615 36.35 110.8 C 34.633 110.884 32.946 110.278 31.25 110 C 28.749 109.59 24.724 110.925 23.75 108.5 C 21.547 103.261 23.157 97.018 23.5 91.3 C 23.775 86.721 24.801 82.14 25.85 77.65 C 26.349 75.508 26.335 72.372 28.45 71.65 C 30.915 70.632 33.446 73.641 36.25 73.7 Z "/>
  <path id="ID0.9834481873549521" fill="#FFCC77" stroke="#000000" stroke-width="2" d="M 36.875 21.35 C 43.517 21.35 49.536 24.375 53.894 29.263 C 58.252 34.151 60.95 40.901 60.95 48.35 C 60.95 55.799 58.252 62.549 53.894 67.437 C 49.536 72.325 43.517 75.35 36.875 75.35 C 30.233 75.35 24.214 72.325 19.856 67.437 C 15.498 62.549 12.8 55.799 12.8 48.35 C 12.8 40.901 15.498 34.151 19.856 29.263 C 24.214 24.375 30.233 21.35 36.875 21.35 Z "/>
  <path id="ID0.32517488626763225" fill="#FFFFFF" stroke="#000000" stroke-width="2" d="M 28.825 31.4 C 31.122 31.4 33.203 32.515 34.71 34.316 C 36.217 36.117 37.15 38.605 37.15 41.35 C 37.15 44.095 36.217 46.583 34.71 48.384 C 33.203 50.185 31.122 51.3 28.825 51.3 C 26.528 51.3 24.447 50.185 22.94 48.384 C 21.433 46.583 20.5 44.095 20.5 41.35 C 20.5 38.605 21.433 36.117 22.94 34.316 C 24.447 32.515 26.528 31.4 28.825 31.4 Z "/>
  <path id="ID0.32517488626763225" fill="#FFFFFF" stroke="#000000" stroke-width="2" d="M 45.625 31.9 C 47.922 31.9 50.003 33.015 51.51 34.816 C 53.017 36.617 53.95 39.105 53.95 41.85 C 53.95 44.595 53.017 47.083 51.51 48.884 C 50.003 50.685 47.922 51.8 45.625 51.8 C 43.328 51.8 41.247 50.685 39.74 48.884 C 38.233 47.083 37.3 44.595 37.3 41.85 C 37.3 39.105 38.233 36.617 39.74 34.816 C 41.247 33.015 43.328 31.9 45.625 31.9 Z "/>
  <path id="ID0.3123384383507073" fill="#4C0099" stroke="none" d="M 30.675 35.5 C 31.785 35.5 32.792 36.184 33.52 37.288 C 34.249 38.392 34.7 39.917 34.7 41.6 C 34.7 43.283 34.249 44.808 33.52 45.912 C 32.792 47.016 31.785 47.7 30.675 47.7 C 29.565 47.7 28.558 47.016 27.83 45.912 C 27.101 44.808 26.65 43.283 26.65 41.6 C 26.65 39.917 27.101 38.392 27.83 37.288 C 28.558 36.184 29.565 35.5 30.675 35.5 Z " stroke-width="1"/>
  <path id="ID0.9945462001487613" fill="#000000" stroke="none" d="M 31.3 37.6557 C 31.962 37.6557 32.562 38.1734 32.997 39.0112 C 33.431 39.8489 33.7 41.0043 33.7 42.2807 C 33.7 43.557 33.431 44.7124 32.997 45.5502 C 32.562 46.3879 31.962 46.9057 31.3 46.9057 C 30.638 46.9057 30.038 46.3879 29.603 45.5502 C 29.169 44.7124 28.9 43.557 28.9 42.2807 C 28.9 41.0043 29.169 39.8489 29.603 39.0112 C 30.038 38.1734 30.638 37.6557 31.3 37.6557 Z " stroke-width="1.0848464076329243"/>
  <path id="ID0.7593508111312985" fill="#FFFFFF" stroke="none" d="M 32.325 37.1 C 32.842 37.1 33.311 37.397 33.65 37.877 C 33.99 38.356 34.2 39.019 34.2 39.75 C 34.2 40.481 33.99 41.144 33.65 41.623 C 33.311 42.103 32.842 42.4 32.325 42.4 C 31.808 42.4 31.339 42.103 31 41.623 C 30.66 41.144 30.45 40.481 30.45 39.75 C 30.45 39.019 30.66 38.356 31 37.877 C 31.339 37.397 31.808 37.1 32.325 37.1 Z " stroke-width="1"/>
  <path id="ID0.8557649310678244" fill="#FFFFFF" stroke="none" d="M 28.55 42.8 C 28.826 42.8 29.076 42.946 29.257 43.181 C 29.438 43.416 29.55 43.741 29.55 44.1 C 29.55 44.459 29.438 44.784 29.257 45.019 C 29.076 45.254 28.826 45.4 28.55 45.4 C 28.274 45.4 28.024 45.254 27.843 45.019 C 27.662 44.784 27.55 44.459 27.55 44.1 C 27.55 43.741 27.662 43.416 27.843 43.181 C 28.024 42.946 28.274 42.8 28.55 42.8 Z " stroke-width="1"/>
  <path id="ID0.3123384383507073" fill="#4C0099" stroke="none" d="M 43.725 36.1 C 42.615 36.1 41.608 36.784 40.88 37.888 C 40.151 38.992 39.7 40.517 39.7 42.2 C 39.7 43.883 40.151 45.408 40.88 46.512 C 41.608 47.616 42.615 48.3 43.725 48.3 C 44.835 48.3 45.842 47.616 46.57 46.512 C 47.299 45.408 47.75 43.883 47.75 42.2 C 47.75 40.517 47.299 38.992 46.57 37.888 C 45.842 36.784 44.835 36.1 43.725 36.1 Z " stroke-width="1"/>
  <path id="ID0.9945462001487613" fill="#000000" stroke="none" d="M 43.1 38.3557 C 42.438 38.3557 41.838 38.8734 41.403 39.7112 C 40.969 40.5489 40.7 41.7043 40.7 42.9807 C 40.7 44.257 40.969 45.4124 41.403 46.2502 C 41.838 47.0879 42.438 47.6057 43.1 47.6057 C 43.762 47.6057 44.362 47.0879 44.797 46.2502 C 45.231 45.4124 45.5 44.257 45.5 42.9807 C 45.5 41.7043 45.231 40.5489 44.797 39.7112 C 44.362 38.8734 43.762 38.3557 43.1 38.3557 Z " stroke-width="1.0848464076329243"/>
  <path id="ID0.7593508111312985" fill="#FFFFFF" stroke="none" d="M 42.125 37.6 C 41.608 37.6 41.139 37.897 40.8 38.377 C 40.46 38.856 40.25 39.519 40.25 40.25 C 40.25 40.981 40.46 41.644 40.8 42.123 C 41.139 42.603 41.608 42.9 42.125 42.9 C 42.642 42.9 43.111 42.603 43.45 42.123 C 43.79 41.644 44 40.981 44 40.25 C 44 39.519 43.79 38.856 43.45 38.377 C 43.111 37.897 42.642 37.6 42.125 37.6 Z " stroke-width="1"/>
  <path id="ID0.8557649310678244" fill="#FFFFFF" stroke="none" d="M 45.9 43.3 C 45.624 43.3 45.374 43.446 45.193 43.681 C 45.012 43.916 44.9 44.241 44.9 44.6 C 44.9 44.959 45.012 45.284 45.193 45.519 C 45.374 45.754 45.624 45.9 45.9 45.9 C 46.176 45.9 46.426 45.754 46.607 45.519 C 46.788 45.284 46.9 44.959 46.9 44.6 C 46.9 44.241 46.788 43.916 46.607 43.681 C 46.426 43.446 46.176 43.3 45.9 43.3 Z " stroke-width="1"/>
  <path id="ID0.21714129857718945" fill="none" stroke="#000000" stroke-width="2" stroke-linecap="round" d="M 23.3 61.1 C 23.3 61.1 23.98 62.859 24.4 63.7 C 24.714 64.328 25.084 64.934 25.5 65.5 C 25.919 66.07 26.33 66.681 26.9 67.1 C 27.488 67.533 28.178 67.892 28.9 68 C 30.217 68.198 31.583 68.201 32.9 68 C 33.592 67.894 34.8 67.1 34.8 67.1 "/>
  <path id="ID0.11013443116098642" fill="none" stroke="#000000" stroke-width="2" stroke-linecap="round" d="M 33.65 57 C 33.65 57 34.455 58.491 35.15 58.9 C 35.771 59.266 36.602 59.331 37.3 59.15 C 37.98 58.973 38.436 58.32 39 57.9 C 39.219 57.737 39.65 57.4 39.65 57.4 "/>
  <path id="ID0.09000997431576252" fill="#8D3B3B" stroke="#000000" stroke-width="2" stroke-linecap="round" d="M 22.8 23.5 C 27.879 23.439 29.438 2.833 33.5 2 C 36.823 1.322 34.535 19.737 37.9 20.1 C 41.285 20.587 43.071 2.636 47 3.7 C 51.745 4.992 50.864 23.4 55.3 24.35 C 59.014 25.3 62.426 3.262 63.3 7.5 C 65.425 17.812 64.44 48.567 61.15 54.1 C 58.786 58.079 58.389 33.874 50.8 29.2 C 42.501 24.143 29.996 25.108 21.8 30 C 15.111 33.994 14.158 56.043 12.8 51.6 C 10.327 43.503 10.608 11.139 13.65 2.5 C 15.218 -1.952 17.954 23.689 22.8 23.5 Z "/>
  <g id="ID0.7511085895821452">
    <path id="ID0.9202246675267816" fill="#FFCC77" stroke="#000000" stroke-width="2" stroke-linecap="round" d="M 11.5 48.6 C 12.741 48.981 13.654 50.159 14.35 51.267 C 15.029 52.348 15.5 53.497 15.5 54.925 C 15.5 56.353 15.127 57.572 14.35 58.583 C 13.821 59.271 12.819 59.536 12 59.4 C 10.835 59.29 9.681 58.712 8.85 57.9 C 7.911 56.982 7.093 55.722 6.95 54.4 C 6.707 52.63 6.652 50.507 7.75 49.1 C 8.527 48.104 10.302 48.18 11.5 48.6 Z "/>
    <path id="ID0.32951963087543845" fill="#FFCC77" stroke="none" stroke-linecap="round" d="M 12.9 51.9 C 14.009 51.95 15.271 51.501 16.198 52.049 C 17.033 52.541 17.4 53.665 17.4 54.7 C 17.4 55.735 16.941 56.672 16.198 57.351 C 15.456 58.03 14.431 58.45 13.3 58.45 C 12.169 58.45 11.144 58.03 10.402 57.351 C 9.659 56.672 9.2 55.735 9.2 54.7 C 9.2 53.665 9.606 52.6 10.402 52.049 C 11.108 51.562 12.076 51.95 12.9 51.9 Z " stroke-width="1"/>
    <path id="ID0.32951963087543845" fill="#FFCC77" stroke="none" stroke-linecap="round" d="M 16.05 49.1 C 17.383 48.937 18.706 49.949 19.648 50.799 C 20.369 51.449 20.85 52.415 20.85 53.45 C 20.85 54.485 20.391 55.422 19.648 56.101 C 18.906 56.78 17.881 57.2 16.75 57.2 C 15.619 57.2 14.594 56.78 13.852 56.101 C 13.109 55.422 12.891 54.388 12.65 53.45 C 12.525 52.968 12.349 52.223 12.7 51.8 C 13.624 50.698 14.662 49.329 16.05 49.1 Z " stroke-width="1"/>
    <path id="ID0.08531287917867303" fill="none" stroke="#000000" stroke-width="1" stroke-linecap="round" d="M 8.95 51.35 C 8.95 51.35 10.257 50.517 10.95 50.65 C 11.658 50.786 12.113 51.519 12.6 52.05 C 13.053 52.543 13.75 53.7 13.75 53.7 "/>
    <path id="ID0.08531287917867303" fill="none" stroke="#000000" stroke-width="1.0000000242889973" stroke-linecap="round" d="M 9.4722 55.671 C 9.4722 55.671 9.8754 54.0286 10.5058 53.6501 C 11.3442 53.1747 13.3391 53.4217 13.3391 53.4217 "/>
  </g>
  <g id="ID0.7511085895821452">
    <path id="ID0.9202246675267816" fill="#FFCC77" stroke="#000000" stroke-width="2" stroke-linecap="round" d="M 61.15 49.2 C 59.909 49.581 58.996 50.759 58.3 51.867 C 57.621 52.948 57.15 54.097 57.15 55.525 C 57.15 56.953 57.523 58.172 58.3 59.183 C 58.829 59.871 59.831 60.136 60.65 60 C 61.815 59.89 62.969 59.312 63.8 58.5 C 64.739 57.582 65.557 56.322 65.7 55 C 65.943 53.23 65.998 51.107 64.9 49.7 C 64.123 48.704 62.348 48.78 61.15 49.2 Z "/>
    <path id="ID0.32951963087543845" fill="#FFCC77" stroke="none" stroke-linecap="round" d="M 59.75 52.5 C 58.641 52.55 57.379 52.101 56.452 52.649 C 55.617 53.141 55.25 54.265 55.25 55.3 C 55.25 56.335 55.709 57.272 56.452 57.951 C 57.194 58.63 58.219 59.05 59.35 59.05 C 60.481 59.05 61.506 58.63 62.248 57.951 C 62.991 57.272 63.45 56.335 63.45 55.3 C 63.45 54.265 63.044 53.2 62.248 52.649 C 61.542 52.162 60.574 52.55 59.75 52.5 Z " stroke-width="1"/>
    <path id="ID0.32951963087543845" fill="#FFCC77" stroke="none" stroke-linecap="round" d="M 56.6 49.7 C 55.267 49.537 53.944 50.549 53.002 51.399 C 52.281 52.049 51.8 53.015 51.8 54.05 C 51.8 55.085 52.259 56.022 53.002 56.701 C 53.744 57.38 54.769 57.8 55.9 57.8 C 57.031 57.8 58.056 57.38 58.798 56.701 C 59.541 56.022 59.759 54.988 60 54.05 C 60.125 53.568 60.301 52.823 59.95 52.4 C 59.026 51.298 57.988 49.929 56.6 49.7 Z " stroke-width="1"/>
    <path id="ID0.08531287917867303" fill="none" stroke="#000000" stroke-width="1" stroke-linecap="round" d="M 63.7 51.95 C 63.7 51.95 62.393 51.117 61.7 51.25 C 60.992 51.386 60.537 52.119 60.05 52.65 C 59.597 53.143 58.9 54.3 58.9 54.3 "/>
    <path id="ID0.08531287917867303" fill="none" stroke="#000000" stroke-width="1.0000000242889973" stroke-linecap="round" d="M 63.1778 56.271 C 63.1778 56.271 62.7746 54.6286 62.1442 54.2501 C 61.3058 53.7747 59.3109 54.0217 59.3109 54.0217 "/>
  </g>
</svg>