<svg version="1.1" xmlns="http://www.w3.org/2000/svg" xmlns:xlink="http://www.w3.org/1999/xlink" width="54.25" height="57.5" viewBox="0,0,54.25,57.5"><g transform="translate(-212.875,-157.75)"><g stroke="#000000" stroke-miterlimit="10"><path d="M224.94703,213.5c-5.7007,0 -10.32203,-4.02944 -10.32203,-9v-36c0,-4.97056 4.62133,-9 10.32203,-9h30.10593c5.7007,0 10.32203,4.02944 10.32203,9v36c0,4.97056 -4.62133,9 -10.32203,9z" fill="#e3e2ff" stroke-width="3.5"/><path d="M233.31325,174.91847l19.18675,-5.12301v24.11349c0,2.60204 -2.31135,4.71141 -5.16254,4.71141c-2.85119,0 -5.16254,-2.10937 -5.16254,-4.71141c0.0542,-2.70872 1.4092,-4.41639 4.06499,-5.12301c2.05959,-0.47108 3.55009,-0.11777 4.47149,1.05993v-12.7192l-15.52826,4.15141v17.57723c-0.11225,2.49764 -2.5328,4.44329 -5.40644,4.34573c-2.87364,-0.09756 -5.11219,-2.2014 -4.99994,-4.69904c0.0542,-2.70872 1.5176,-4.41639 4.39019,-5.12301c1.6802,-0.47108 3.06229,-0.08833 4.14629,1.14826z" fill="#000000" stroke-width="0"/></g></g></svg>