<svg xmlns="http://www.w3.org/2000/svg" xmlns:xlink="http://www.w3.org/1999/xlink" version="1.1" width="91.58180240959939" height="157.78208927483377" viewBox="4.649232843662215 0.9806721003303063 91.58180240959939 157.78208927483377">
  <!-- Exported by Scratch - http://scratch.mit.edu/ -->
  <g id="ID0.23922329768538475">
    <path id="ID0.19963421486318111" fill="#294765" stroke="#000000" stroke-width="2" stroke-linecap="round" d="M 50.5 107.65 C 48.636 107.893 45.385 105.94 44.85 107.65 C 42.829 114.925 43.84 122.773 44.1 130.15 C 44.272 135.028 44.421 140.1 46.25 144.65 C 46.816 146.083 49.032 146.484 50.6 146.4 C 52.517 146.302 55.128 145.844 55.75 144.05 C 57.477 139.645 56.838 134.626 56.85 129.9 C 56.87 122.005 58.039 113.637 55.85 105.9 C 55.303 104.048 52.334 107.409 50.5 107.65 Z "/>
    <path id="ID0.7019679127261043" fill="#FFFF00" stroke="#000000" stroke-width="2" stroke-linecap="round" d="M 51.45 142.5 C 49.381 142.5 47.506 143.223 46.148 144.39 C 44.79 145.558 43.878 147.267 43.95 148.95 C 44.034 151.049 45.47 152.643 46.75 154 C 47.956 155.64 49.309 157.587 51.25 157.75 C 53.148 157.909 55.111 156.553 56.5 155.25 C 57.844 153.429 58.818 151.118 58.95 148.95 C 59.054 147.269 58.11 145.558 56.752 144.39 C 55.394 143.223 53.519 142.5 51.45 142.5 Z "/>
  </g>
  <path id="ID0.19963421486318111" fill="#294765" stroke="#000000" stroke-width="2" stroke-linecap="round" d="M 39.1 108.1 C 40.964 108.343 44.215 106.39 44.75 108.1 C 46.771 115.375 45.802 123.11 45.5 130.6 C 45.382 133.536 45.262 136.42 43.5 138.25 C 42.6 139.481 40.9 137.978 39.5 137.5 C 37.877 136.983 35.68 137.635 34.5 136.25 C 33.163 134.702 32.807 132.618 32.75 130.35 C 32.548 122.354 31.561 114.087 33.75 106.35 C 34.297 104.498 37.266 107.859 39.1 108.1 Z "/>
  <g id="ID0.4572075121104717">
    <path id="ID0.7623941171914339" fill="#7F00FF" stroke="#000000" stroke-width="2.0000000372195674" stroke-linecap="round" d="M 65.7828 52.837 C 66.7899 54.0714 69.0702 53.4118 70.4734 52.7235 C 73.5953 51.1898 76.3571 48.7616 78.6828 46.1407 C 81.3008 43.1909 83.6093 39.9457 85.0176 36.3202 C 85.3957 35.3516 84.2192 34.2763 83.4713 33.4442 C 82.7364 32.7639 81.7445 31.7041 80.7328 31.9499 C 78.4976 32.4964 76.7834 34.0494 75.0318 35.2603 C 73.5424 36.3533 72.1595 37.6009 71.0463 38.835 C 68.8782 41.2325 66.1202 43.3415 65.021 46.4472 C 64.3041 48.4675 64.3432 51.2561 65.7828 52.837 Z "/>
    <path id="ID0.01313785370439291" fill="#FFCC77" stroke="#000000" stroke-width="1.5265486685101657" stroke-linecap="round" d="M 91.5356 22.2666 C 89.6255 23.177 87.4617 26.7303 86.6559 26.1516 C 85.8495 25.5719 88.0589 22.1346 88.1106 20.0454 C 88.1233 19.5216 87.1782 18.8701 86.7511 19.2438 C 85.1592 20.8161 83.6871 24.9541 83.0816 24.8927 C 82.4772 24.8312 84.1135 20.7249 83.5353 18.761 C 83.3302 18.0659 81.8602 18.8639 81.5161 19.4836 C 80.595 21.0225 80.4234 22.8716 80.0848 24.6456 C 79.7166 26.5745 78.8905 28.5876 79.3498 30.4964 C 79.6886 31.8991 81.2481 32.4528 82.1155 33.499 C 82.9652 34.5211 83.3196 36.4056 84.6782 36.8726 C 85.942 37.2279 87.2261 36.0645 88.5018 35.5019 C 90.6644 34.5445 93.0137 33.7519 94.7692 32.1549 C 95.3433 31.7161 95.4215 30.4087 94.7798 30.0147 C 93.6394 29.3162 90.9991 31.0186 90.7698 29.7645 C 90.3467 27.4394 93.3935 25.2112 93.5698 22.6831 C 93.6197 21.9078 92.1082 21.9313 91.5356 22.2666 Z "/>
  </g>
  <g id="ID0.4572075121104717">
    <path id="ID0.7623941171914339" fill="#7F00FF" stroke="#000000" stroke-width="2.0000000414353347" stroke-linecap="round" d="M 37.1923 81.5626 C 36.3117 82.8901 33.9775 82.4583 32.5133 81.9115 C 29.2555 80.6927 26.2681 78.5483 23.6956 76.1691 C 20.7999 73.4915 18.183 70.4894 16.4245 67.0202 C 15.9529 66.0935 17.0178 64.9076 17.6802 64.0059 C 18.3445 63.2565 19.2272 62.1042 20.2582 62.2491 C 22.5363 62.5729 24.3951 63.9496 26.2574 64.9821 C 27.8472 65.9231 29.3462 67.0285 30.5756 68.1469 C 32.9693 70.3193 35.9215 72.1464 37.3212 75.1288 C 38.2335 77.0687 38.4692 79.8476 37.1923 81.5626 Z "/>
    <path id="ID0.01313785370439291" fill="#FFCC77" stroke="#000000" stroke-width="1.5265486665421282" stroke-linecap="round" d="M 8.4732 53.6242 C 10.4638 54.3421 12.967 57.6651 13.7118 57.0098 C 14.4572 56.3536 11.9201 53.1505 11.6629 51.0766 C 11.5987 50.5566 12.4751 49.8152 12.9369 50.145 C 14.6758 51.5529 16.5483 55.5258 17.1448 55.405 C 17.7402 55.2844 15.7075 51.3592 16.0895 49.3478 C 16.2252 48.636 17.7665 49.2853 18.17 49.8681 C 19.2382 51.3088 19.591 53.1321 20.1027 54.8641 C 20.6591 56.7473 21.6794 58.6693 21.4103 60.6141 C 21.2112 62.0433 19.7138 62.7479 18.9537 63.8744 C 18.2088 64.9752 18.0417 66.8854 16.7356 67.484 C 15.513 67.962 14.1205 66.9307 12.7956 66.4964 C 10.5493 65.7567 8.1334 65.1992 6.2291 63.7829 C 5.6146 63.4027 5.408 62.1094 6.0079 61.6542 C 7.0739 60.8467 9.869 62.2808 9.9737 61.0103 C 10.1658 58.6548 6.9144 56.7374 6.49 54.2391 C 6.3639 53.4724 7.8705 53.347 8.4732 53.6242 Z "/>
  </g>
  <path id="ID0.10097399353981018" fill="#7F00FF" stroke="#000000" stroke-width="2" stroke-linecap="round" d="M 45.25 73.7 C 47.89 73.754 50.558 70.613 52.95 71.8 C 55.315 72.754 55.702 76.127 56.25 78.65 C 57.166 82.867 57.395 87.085 57.5 91.55 C 57.63 97.377 59.863 104.148 56.75 109 C 54.694 112.337 49.145 110.615 45.35 110.8 C 43.633 110.884 41.946 110.278 40.25 110 C 37.749 109.59 33.724 110.925 32.75 108.5 C 30.547 103.261 32.157 97.018 32.5 91.3 C 32.775 86.721 33.801 82.14 34.85 77.65 C 35.349 75.508 35.335 72.372 37.45 71.65 C 39.915 70.632 42.446 73.641 45.25 73.7 Z "/>
  <path id="ID0.9834481873549521" fill="#FFCC77" stroke="#000000" stroke-width="2" d="M 45.875 21.35 C 52.517 21.35 58.536 24.375 62.894 29.263 C 67.252 34.151 69.95 40.901 69.95 48.35 C 69.95 55.799 67.252 62.549 62.894 67.437 C 58.536 72.325 52.517 75.35 45.875 75.35 C 39.233 75.35 33.214 72.325 28.856 67.437 C 24.498 62.549 21.8 55.799 21.8 48.35 C 21.8 40.901 24.498 34.151 28.856 29.263 C 33.214 24.375 39.233 21.35 45.875 21.35 Z "/>
  <path id="ID0.32517488626763225" fill="#FFFFFF" stroke="#000000" stroke-width="2" d="M 37.825 31.4 C 40.122 31.4 42.203 32.515 43.71 34.316 C 45.217 36.117 46.15 38.605 46.15 41.35 C 46.15 44.095 45.217 46.583 43.71 48.384 C 42.203 50.185 40.122 51.3 37.825 51.3 C 35.528 51.3 33.447 50.185 31.94 48.384 C 30.433 46.583 29.5 44.095 29.5 41.35 C 29.5 38.605 30.433 36.117 31.94 34.316 C 33.447 32.515 35.528 31.4 37.825 31.4 Z "/>
  <path id="ID0.32517488626763225" fill="#FFFFFF" stroke="#000000" stroke-width="2" d="M 54.625 31.9 C 56.922 31.9 59.003 33.015 60.51 34.816 C 62.017 36.617 62.95 39.105 62.95 41.85 C 62.95 44.595 62.017 47.083 60.51 48.884 C 59.003 50.685 56.922 51.8 54.625 51.8 C 52.328 51.8 50.247 50.685 48.74 48.884 C 47.233 47.083 46.3 44.595 46.3 41.85 C 46.3 39.105 47.233 36.617 48.74 34.816 C 50.247 33.015 52.328 31.9 54.625 31.9 Z "/>
  <path id="ID0.3123384383507073" fill="#4C0099" stroke="none" d="M 39.675 35.5 C 40.785 35.5 41.792 36.184 42.52 37.288 C 43.249 38.392 43.7 39.917 43.7 41.6 C 43.7 43.283 43.249 44.808 42.52 45.912 C 41.792 47.016 40.785 47.7 39.675 47.7 C 38.565 47.7 37.558 47.016 36.83 45.912 C 36.101 44.808 35.65 43.283 35.65 41.6 C 35.65 39.917 36.101 38.392 36.83 37.288 C 37.558 36.184 38.565 35.5 39.675 35.5 Z " stroke-width="1"/>
  <path id="ID0.9945462001487613" fill="#000000" stroke="none" d="M 40.3 37.6557 C 40.962 37.6557 41.562 38.1734 41.997 39.0112 C 42.431 39.8489 42.7 41.0043 42.7 42.2807 C 42.7 43.557 42.431 44.7124 41.997 45.5502 C 41.562 46.3879 40.962 46.9057 40.3 46.9057 C 39.638 46.9057 39.038 46.3879 38.603 45.5502 C 38.169 44.7124 37.9 43.557 37.9 42.2807 C 37.9 41.0043 38.169 39.8489 38.603 39.0112 C 39.038 38.1734 39.638 37.6557 40.3 37.6557 Z " stroke-width="1.0848464076329243"/>
  <path id="ID0.7593508111312985" fill="#FFFFFF" stroke="none" d="M 41.325 37.1 C 41.842 37.1 42.311 37.397 42.65 37.877 C 42.99 38.356 43.2 39.019 43.2 39.75 C 43.2 40.481 42.99 41.144 42.65 41.623 C 42.311 42.103 41.842 42.4 41.325 42.4 C 40.808 42.4 40.339 42.103 40 41.623 C 39.66 41.144 39.45 40.481 39.45 39.75 C 39.45 39.019 39.66 38.356 40 37.877 C 40.339 37.397 40.808 37.1 41.325 37.1 Z " stroke-width="1"/>
  <path id="ID0.8557649310678244" fill="#FFFFFF" stroke="none" d="M 37.55 42.8 C 37.826 42.8 38.076 42.946 38.257 43.181 C 38.438 43.416 38.55 43.741 38.55 44.1 C 38.55 44.459 38.438 44.784 38.257 45.019 C 38.076 45.254 37.826 45.4 37.55 45.4 C 37.274 45.4 37.024 45.254 36.843 45.019 C 36.662 44.784 36.55 44.459 36.55 44.1 C 36.55 43.741 36.662 43.416 36.843 43.181 C 37.024 42.946 37.274 42.8 37.55 42.8 Z " stroke-width="1"/>
  <path id="ID0.3123384383507073" fill="#4C0099" stroke="none" d="M 52.725 36.1 C 51.615 36.1 50.608 36.784 49.88 37.888 C 49.151 38.992 48.7 40.517 48.7 42.2 C 48.7 43.883 49.151 45.408 49.88 46.512 C 50.608 47.616 51.615 48.3 52.725 48.3 C 53.835 48.3 54.842 47.616 55.57 46.512 C 56.299 45.408 56.75 43.883 56.75 42.2 C 56.75 40.517 56.299 38.992 55.57 37.888 C 54.842 36.784 53.835 36.1 52.725 36.1 Z " stroke-width="1"/>
  <path id="ID0.9945462001487613" fill="#000000" stroke="none" d="M 52.1 38.3557 C 51.438 38.3557 50.838 38.8734 50.403 39.7112 C 49.969 40.5489 49.7 41.7043 49.7 42.9807 C 49.7 44.257 49.969 45.4124 50.403 46.2502 C 50.838 47.0879 51.438 47.6057 52.1 47.6057 C 52.762 47.6057 53.362 47.0879 53.797 46.2502 C 54.231 45.4124 54.5 44.257 54.5 42.9807 C 54.5 41.7043 54.231 40.5489 53.797 39.7112 C 53.362 38.8734 52.762 38.3557 52.1 38.3557 Z " stroke-width="1.0848464076329243"/>
  <path id="ID0.7593508111312985" fill="#FFFFFF" stroke="none" d="M 51.125 37.6 C 50.608 37.6 50.139 37.897 49.8 38.377 C 49.46 38.856 49.25 39.519 49.25 40.25 C 49.25 40.981 49.46 41.644 49.8 42.123 C 50.139 42.603 50.608 42.9 51.125 42.9 C 51.642 42.9 52.111 42.603 52.45 42.123 C 52.79 41.644 53 40.981 53 40.25 C 53 39.519 52.79 38.856 52.45 38.377 C 52.111 37.897 51.642 37.6 51.125 37.6 Z " stroke-width="1"/>
  <path id="ID0.8557649310678244" fill="#FFFFFF" stroke="none" d="M 54.9 43.3 C 54.624 43.3 54.374 43.446 54.193 43.681 C 54.012 43.916 53.9 44.241 53.9 44.6 C 53.9 44.959 54.012 45.284 54.193 45.519 C 54.374 45.754 54.624 45.9 54.9 45.9 C 55.176 45.9 55.426 45.754 55.607 45.519 C 55.788 45.284 55.9 44.959 55.9 44.6 C 55.9 44.241 55.788 43.916 55.607 43.681 C 55.426 43.446 55.176 43.3 54.9 43.3 Z " stroke-width="1"/>
  <path id="ID0.21714129857718945" fill="none" stroke="#000000" stroke-width="2" stroke-linecap="round" d="M 32.3 61.1 C 32.3 61.1 32.98 62.859 33.4 63.7 C 33.714 64.328 34.084 64.934 34.5 65.5 C 34.919 66.07 35.33 66.681 35.9 67.1 C 36.488 67.533 37.178 67.892 37.9 68 C 39.217 68.198 40.583 68.201 41.9 68 C 42.592 67.894 43.8 67.1 43.8 67.1 "/>
  <path id="ID0.11013443116098642" fill="none" stroke="#000000" stroke-width="2" stroke-linecap="round" d="M 42.65 57 C 42.65 57 43.455 58.491 44.15 58.9 C 44.771 59.266 45.602 59.331 46.3 59.15 C 46.98 58.973 47.436 58.32 48 57.9 C 48.219 57.737 48.65 57.4 48.65 57.4 "/>
  <path id="ID0.09000997431576252" fill="#8D3B3B" stroke="#000000" stroke-width="2" stroke-linecap="round" d="M 31.8 23.5 C 36.879 23.439 38.438 2.833 42.5 2 C 45.823 1.322 43.535 19.737 46.9 20.1 C 50.285 20.587 52.071 2.636 56 3.7 C 60.745 4.992 59.864 23.4 64.3 24.35 C 68.014 25.3 71.426 3.262 72.3 7.5 C 74.425 17.812 73.44 48.567 70.15 54.1 C 67.786 58.079 67.389 33.874 59.8 29.2 C 51.501 24.143 38.996 25.108 30.8 30 C 24.111 33.994 23.158 56.043 21.8 51.6 C 19.327 43.503 19.608 11.139 22.65 2.5 C 24.218 -1.952 26.954 23.689 31.8 23.5 Z "/>
  <g id="ID0.7511085895821452">
    <path id="ID0.9202246675267816" fill="#FFCC77" stroke="#000000" stroke-width="2" stroke-linecap="round" d="M 20.5 48.6 C 21.741 48.981 22.654 50.159 23.35 51.267 C 24.029 52.348 24.5 53.497 24.5 54.925 C 24.5 56.353 24.127 57.572 23.35 58.583 C 22.821 59.271 21.819 59.536 21 59.4 C 19.835 59.29 18.681 58.712 17.85 57.9 C 16.911 56.982 16.093 55.722 15.95 54.4 C 15.707 52.63 15.652 50.507 16.75 49.1 C 17.527 48.104 19.302 48.18 20.5 48.6 Z "/>
    <path id="ID0.32951963087543845" fill="#FFCC77" stroke="none" stroke-linecap="round" d="M 21.9 51.9 C 23.009 51.95 24.271 51.501 25.198 52.049 C 26.033 52.541 26.4 53.665 26.4 54.7 C 26.4 55.735 25.941 56.672 25.198 57.351 C 24.456 58.03 23.431 58.45 22.3 58.45 C 21.169 58.45 20.144 58.03 19.402 57.351 C 18.659 56.672 18.2 55.735 18.2 54.7 C 18.2 53.665 18.606 52.6 19.402 52.049 C 20.108 51.562 21.076 51.95 21.9 51.9 Z " stroke-width="1"/>
    <path id="ID0.32951963087543845" fill="#FFCC77" stroke="none" stroke-linecap="round" d="M 25.05 49.1 C 26.383 48.937 27.706 49.949 28.648 50.799 C 29.369 51.449 29.85 52.415 29.85 53.45 C 29.85 54.485 29.391 55.422 28.648 56.101 C 27.906 56.78 26.881 57.2 25.75 57.2 C 24.619 57.2 23.594 56.78 22.852 56.101 C 22.109 55.422 21.891 54.388 21.65 53.45 C 21.525 52.968 21.349 52.223 21.7 51.8 C 22.624 50.698 23.662 49.329 25.05 49.1 Z " stroke-width="1"/>
    <path id="ID0.08531287917867303" fill="none" stroke="#000000" stroke-width="1" stroke-linecap="round" d="M 17.95 51.35 C 17.95 51.35 19.257 50.517 19.95 50.65 C 20.658 50.786 21.113 51.519 21.6 52.05 C 22.053 52.543 22.75 53.7 22.75 53.7 "/>
    <path id="ID0.08531287917867303" fill="none" stroke="#000000" stroke-width="1.0000000242889973" stroke-linecap="round" d="M 18.4722 55.671 C 18.4722 55.671 18.8754 54.0286 19.5058 53.6501 C 20.3442 53.1747 22.3391 53.4217 22.3391 53.4217 "/>
  </g>
  <g id="ID0.7511085895821452">
    <path id="ID0.9202246675267816" fill="#FFCC77" stroke="#000000" stroke-width="2" stroke-linecap="round" d="M 70.15 49.2 C 68.909 49.581 67.996 50.759 67.3 51.867 C 66.621 52.948 66.15 54.097 66.15 55.525 C 66.15 56.953 66.523 58.172 67.3 59.183 C 67.829 59.871 68.831 60.136 69.65 60 C 70.815 59.89 71.969 59.312 72.8 58.5 C 73.739 57.582 74.557 56.322 74.7 55 C 74.943 53.23 74.998 51.107 73.9 49.7 C 73.123 48.704 71.348 48.78 70.15 49.2 Z "/>
    <path id="ID0.32951963087543845" fill="#FFCC77" stroke="none" stroke-linecap="round" d="M 68.75 52.5 C 67.641 52.55 66.379 52.101 65.452 52.649 C 64.617 53.141 64.25 54.265 64.25 55.3 C 64.25 56.335 64.709 57.272 65.452 57.951 C 66.194 58.63 67.219 59.05 68.35 59.05 C 69.481 59.05 70.506 58.63 71.248 57.951 C 71.991 57.272 72.45 56.335 72.45 55.3 C 72.45 54.265 72.044 53.2 71.248 52.649 C 70.542 52.162 69.574 52.55 68.75 52.5 Z " stroke-width="1"/>
    <path id="ID0.32951963087543845" fill="#FFCC77" stroke="none" stroke-linecap="round" d="M 65.6 49.7 C 64.267 49.537 62.944 50.549 62.002 51.399 C 61.281 52.049 60.8 53.015 60.8 54.05 C 60.8 55.085 61.259 56.022 62.002 56.701 C 62.744 57.38 63.769 57.8 64.9 57.8 C 66.031 57.8 67.056 57.38 67.798 56.701 C 68.541 56.022 68.759 54.988 69 54.05 C 69.125 53.568 69.301 52.823 68.95 52.4 C 68.026 51.298 66.988 49.929 65.6 49.7 Z " stroke-width="1"/>
    <path id="ID0.08531287917867303" fill="none" stroke="#000000" stroke-width="1" stroke-linecap="round" d="M 72.7 51.95 C 72.7 51.95 71.393 51.117 70.7 51.25 C 69.992 51.386 69.537 52.119 69.05 52.65 C 68.597 53.143 67.9 54.3 67.9 54.3 "/>
    <path id="ID0.08531287917867303" fill="none" stroke="#000000" stroke-width="1.0000000242889973" stroke-linecap="round" d="M 72.1778 56.271 C 72.1778 56.271 71.7746 54.6286 71.1442 54.2501 C 70.3058 53.7747 68.3109 54.0217 68.3109 54.0217 "/>
  </g>
  <path id="ID0.5731781884096563" fill="#FFFF00" stroke="#000000" stroke-width="2" d="M 38.625 122.25 C 41.005 122.25 43.161 123.497 44.722 125.511 C 46.284 127.524 47.25 130.306 47.25 133.375 C 47.25 136.444 46.406 139.147 44.722 141.239 C 43.343 142.96 41.032 143.438 39 143.25 C 36.7 143.438 34.06 143.04 32.528 141.239 C 30.782 139.199 30 136.444 30 133.375 C 30 130.306 30.966 127.524 32.528 125.511 C 34.089 123.497 36.245 122.25 38.625 122.25 Z "/>
  <path id="ID0.4496621289290488" fill="none" stroke="#000000" stroke-width="2" stroke-linecap="round" d="M 34.25 129.5 L 43 128.5 "/>
  <path id="ID0.02340142009779811" fill="none" stroke="#000000" stroke-width="2" stroke-linecap="round" d="M 34.25 133.25 L 43 132.25 "/>
  <path id="ID0.445681672077626" fill="none" stroke="#000000" stroke-width="2" stroke-linecap="round" d="M 34 137.75 L 43.25 137 "/>
</svg>