<svg version="1.1" xmlns="http://www.w3.org/2000/svg" xmlns:xlink="http://www.w3.org/1999/xlink" width="80.15322" height="146.17748" viewBox="0,0,80.15322,146.17748"><g transform="translate(-195.25444,-107.62098)"><g stroke-miterlimit="10"><g stroke-linecap="round"><path d="M268.85,148.06279c1.098,1.407 1.043,3.53 0.8,5.3c-0.143,1.322 -0.961,2.582 -1.9,3.5c-0.831,0.812 -1.985,1.39 -3.15,1.5c-0.819,0.136 -1.821,-0.129 -2.35,-0.817c-0.777,-1.011 -1.15,-2.23 -1.15,-3.658c0,-1.428 0.471,-2.577 1.15,-3.658c0.696,-1.108 1.609,-2.286 2.85,-2.667c1.198,-0.42 2.973,-0.496 3.75,0.5z" fill="#ffcc77" stroke="#000000" stroke-width="2"/><path d="M266.198,151.01179c0.796,0.551 1.202,1.616 1.202,2.651c0,1.035 -0.459,1.972 -1.202,2.651c-0.742,0.679 -1.767,1.099 -2.898,1.099c-1.131,0 -2.156,-0.42 -2.898,-1.099c-0.743,-0.679 -1.202,-1.616 -1.202,-2.651c0,-1.035 0.367,-2.159 1.202,-2.651c0.927,-0.548 2.189,-0.099 3.298,-0.149c0.824,0.05 1.792,-0.338 2.498,0.149z" fill="#ffcc77" stroke="none" stroke-width="1"/><path d="M263.9,150.76279c0.351,0.423 0.175,1.168 0.05,1.65c-0.241,0.938 -0.459,1.972 -1.202,2.651c-0.742,0.679 -1.767,1.099 -2.898,1.099c-1.131,0 -2.156,-0.42 -2.898,-1.099c-0.743,-0.679 -1.202,-1.616 -1.202,-2.651c0,-1.035 0.481,-2.001 1.202,-2.651c0.942,-0.85 2.265,-1.862 3.598,-1.699c1.388,0.229 2.426,1.598 3.35,2.7z" fill="#ffcc77" stroke="none" stroke-width="1"/><path d="M262.85,152.66279c0,0 0.697,-1.157 1.15,-1.65c0.487,-0.531 0.942,-1.264 1.65,-1.4c0.693,-0.133 2,0.7 2,0.7" fill="none" stroke="#000000" stroke-width="1"/><path d="M263.2609,152.38449c0,0 1.9949,-0.247 2.8333,0.2284c0.6304,0.3785 1.0336,2.0209 1.0336,2.0209" fill="none" stroke="#000000" stroke-width="1"/></g><path d="M240.375,124.71279c6.601,0 12.582,3.566 16.913,9.327c4.331,5.761 7.012,13.718 7.012,22.498c0,8.78 -2.681,16.737 -7.012,22.498c-4.331,5.761 -10.312,9.327 -16.913,9.327c-6.601,0 -12.582,-3.566 -16.913,-9.327c-4.331,-5.761 -7.012,-13.718 -7.012,-22.498c0,-8.78 2.681,-16.737 7.012,-22.498c4.331,-5.761 10.312,-9.327 16.913,-9.327z" fill="#ffd005" stroke="#000000" stroke-width="2" stroke-linecap="butt"/><g stroke="#000000" stroke-width="2" stroke-linecap="round"><path d="M245.62762,205.39113c1.27126,7.93957 -0.86617,16.11401 -1.80725,23.95274c-0.56337,4.69232 -0.51437,9.75159 -2.74357,13.92499c-0.82708,1.70917 -3.47369,1.85938 -5.38903,1.73302c-1.56709,-0.09953 -3.72116,-0.75637 -4.11609,-2.24562c-1.28559,-4.73233 -0.84175,-9.78707 -0.44339,-14.65182c0.60256,-7.35695 0.5142,-15.2693 3.37027,-22.25879c0.73088,-1.63589 3.73178,0.68311 5.61141,0.65927c1.84959,-0.02535 5.19049,-3.01696 5.51765,-1.11379z" fill="#99b2ff"/><path d="M242.03229,243.72346c1.21244,1.31848 1.56564,3.10288 1.65091,4.78532c0.04512,0.88431 -0.58314,1.9382 -1.46601,2.19393c-2.0244,0.67338 -4.26901,2.2282 -6.48463,2.08671c-2.09563,-0.13445 -4.4603,-1.75957 -6.16063,-2.86754c-1.02023,-0.57195 -1.09029,-2.10963 -0.78626,-3.16335c0.46904,-1.61833 1.23005,-3.27081 2.71507,-4.27238c1.48489,-1.00057 3.43145,-1.49985 5.48632,-1.25843c2.05487,0.24142 3.8327,1.17826 5.04525,2.49575z" fill="#cc99ff"/></g><g stroke="#000000" stroke-width="2" stroke-linecap="round"><path d="M228.69151,205.56615c1.82291,0.45884 5.27959,-1.10148 5.61141,0.65927c1.15832,7.46112 -0.76151,15.13755 -1.88052,22.43382c-0.74001,4.82461 -1.47982,9.84458 -3.82723,14.15008c-0.72934,1.35717 -2.977,1.49686 -4.52448,1.23047c-1.89247,-0.32101 -4.43219,-1.08055 -4.84061,-2.93487c-1.20121,-4.57642 0.01906,-9.48658 0.5586,-14.18169c0.90136,-7.8434 0.71676,-16.29065 3.79359,-23.71937c0.75936,-1.77552 3.31591,1.90895 5.10926,2.36231z" fill="#99b2ff"/><path d="M223.68156,240.06724c2.05487,0.24142 3.8327,1.17826 5.04525,2.49575c1.21244,1.31848 1.56973,3.10235 1.65091,4.78532c0.05152,1.0955 -0.37302,2.57506 -1.49803,2.89498c-1.91083,0.68371 -4.90968,2.34425 -6.9794,1.98932c-2.18809,-0.37588 -3.68931,-3.03634 -5.50251,-4.16058c-0.79956,-0.45339 -1.16645,-1.6242 -0.91759,-2.47397c0.47289,-1.61687 1.23005,-3.27081 2.71507,-4.27238c1.48489,-1.00057 3.43145,-1.49985 5.48632,-1.25843z" fill="#cc99ff"/></g><g stroke="#000000" stroke-linecap="round"><path d="M242.65896,175.28199c1.4586,-2.95394 4.44656,-4.72209 6.88298,-6.8465c1.25131,-1.09382 2.77199,-2.16913 4.38013,-3.07836c1.88245,-0.99535 3.76816,-2.33486 6.05235,-2.61335c1.0337,-0.12435 1.89332,1.04521 2.54262,1.80759c0.64428,0.91469 1.68545,2.12157 1.19551,3.03862c-1.82705,3.43361 -4.50302,6.38316 -7.45134,9.00285c-2.61925,2.32752 -5.64862,4.41221 -8.92998,5.56606c-1.47474,0.51767 -3.81713,0.90295 -4.67115,-0.44178c-1.24267,-1.74005 -0.95179,-4.51364 -0.00112,-6.43513z" fill="#ff99e5" stroke-width="2"/><path d="M273.96796,155.05597c-0.47382,2.48945 -3.76267,4.34185 -3.61744,6.70072c0.07946,1.2723 2.90246,-0.106 3.95228,0.72249c0.59077,0.46705 0.35846,1.75605 -0.26343,2.12396c-1.93207,1.37823 -4.35849,1.88753 -6.61919,2.58253c-1.33321,0.40787 -2.74589,1.41134 -3.95874,0.90911c-1.29398,-0.62434 -1.42307,-2.53752 -2.14599,-3.65292c-0.73758,-1.14136 -2.22069,-1.87555 -2.39139,-3.30848c-0.23046,-1.94973 0.82788,-3.85111 1.42153,-5.72285c0.54598,-1.72154 0.93491,-3.53747 2.03153,-4.95671c0.41501,-0.57457 1.96896,-1.19317 2.09042,-0.47878c0.34202,2.01851 -1.76818,5.90259 -1.17533,6.03504c0.59396,0.13263 2.54494,-3.80232 4.31148,-5.1754c0.46831,-0.32061 1.32976,0.43804 1.25527,0.95668c-0.29836,2.06841 -2.89849,5.22046 -2.16628,5.89134c0.7316,0.66991 3.30032,-2.60261 5.30477,-3.28082c0.60808,-0.26529 2.11189,-0.10993 1.97053,0.65407z" fill="#ffcc77" stroke-width="1.52655"/></g><g stroke="#000000" stroke-linecap="round"><path d="M230.24544,178.26642c-0.68766,1.43693 -3.05928,1.33357 -4.5852,0.99536c-3.39549,-0.75454 -6.65174,-2.46332 -9.52972,-4.46207c-3.23953,-2.24962 -6.24797,-4.85921 -8.47123,-8.05059c-0.59575,-0.85213 0.29415,-2.1745 0.82482,-3.15945c0.5538,-0.83433 1.2679,-2.09801 2.30906,-2.09775c2.3011,0.00426 4.33302,1.10948 6.32068,1.87337c1.70504,0.71109 3.34304,1.59748 4.7158,2.53437c2.67226,1.81889 5.84965,3.21831 7.64992,5.97735c1.17291,1.79449 1.79229,4.51364 0.76587,6.3894z" fill="#ff99e5" stroke-width="2"/><path d="M197.86163,154.64248c2.07099,0.43447 5.01143,3.37752 5.65798,2.62518c0.64703,-0.75336 -2.31025,-3.57305 -2.853,-5.59116c-0.13577,-0.50606 0.62911,-1.36198 1.1323,-1.09947c1.9176,1.15274 4.32367,4.82712 4.89758,4.62464c0.57284,-0.20216 -1.98525,-3.80705 -1.88624,-5.85194c0.03544,-0.72378 1.65205,-0.2948 2.13258,0.22622c1.25795,1.27842 1.86054,3.03505 2.60781,4.67925c0.8125,1.78765 2.08991,3.54933 2.09347,5.51263c0.0013,1.44306 -1.38373,2.34877 -1.98002,3.56991c-0.58483,1.19361 -0.48497,3.10854 -1.69532,3.88265c-1.14435,0.6432 -2.66656,-0.18474 -4.03888,-0.43081c-2.32742,-0.4206 -4.79725,-0.63708 -6.87981,-1.77521c-0.66131,-0.29117 -1.04559,-1.54329 -0.5147,-2.07743c0.94359,-0.9477 3.91074,0.08431 3.83799,-1.18839c-0.13695,-2.35937 -3.62314,-3.80658 -4.39029,-6.22181c-0.23141,-0.74171 1.24316,-1.0752 1.87853,-0.88427z" fill="#ffcc77" stroke-width="1.52655"/></g><path d="M238.60673,172.18368c2.62075,0.32274 5.54654,-2.39125 7.85353,-1.10547c2.54955,1.42019 3.51119,4.9566 4.27474,7.82634c0.60961,2.29205 0.53403,4.83559 -0.26565,7.00942c-0.54673,1.51004 -1.21894,2.42778 -2.29499,3.61102c-0.43867,0.48238 -1.80019,1.00888 -1.91175,1.63763c-1.00762,5.67587 3.30095,12.42605 0.18715,17.30917c-2.06595,3.24035 -7.72998,0.83164 -11.52408,0.62896c-1.71662,-0.0914 -3.33309,-0.86615 -4.99193,-1.31553c-2.4462,-0.66272 -6.67514,0.20989 -7.30811,-2.25645c-1.40051,-5.4541 2.32777,-11.09556 2.5677,-16.72541c0.07489,-1.76154 3.65365,-19.10313 5.86289,-19.45383c2.6518,-0.42197 4.76711,2.48973 7.5505,2.83416z" fill="#ff99e5" stroke="#000000" stroke-width="2" stroke-linecap="round"/><path d="M240.825,119.71279c6.642,0 12.661,3.025 17.019,7.913c4.358,4.888 7.056,11.638 7.056,19.087c0,7.449 -2.698,14.199 -7.056,19.087c-4.358,4.888 -10.377,7.913 -17.019,7.913c-6.642,0 -12.661,-3.025 -17.019,-7.913c-4.358,-4.888 -7.056,-11.638 -7.056,-19.087c0,-7.449 2.698,-14.199 7.056,-19.087c4.358,-4.888 10.377,-7.913 17.019,-7.913z" fill="#ffcc77" stroke="#000000" stroke-width="2" stroke-linecap="butt"/><path d="M252.22971,158.42514c0,0 -0.431,0.337 -0.65,0.5c-0.564,0.42 -1.02,1.073 -1.7,1.25c-0.698,0.181 -1.529,0.116 -2.15,-0.25c-0.695,-0.409 -1.5,-1.9 -1.5,-1.9" fill="none" stroke="#000000" stroke-width="2" stroke-linecap="round"/><path d="M224.26782,113.77098c4.848,-3.311 10.914,-4.818 16.7,-5.15c4.968,-0.301 10.29,0.613 14.65,3c3.753,2.054 7.71,5.332 8.65,9.5c2.309,10.149 2.327,30.264 0.85,31.25c-1.477,0.986 -2.761,-20.226 -10.35,-24.9c-8.299,-5.057 -20.804,-4.092 -29,0.8c-6.689,3.994 -8.024,22.273 -9,21.6c-0.976,-0.673 -0.068,-17.683 1.7,-26.25c0.784,-3.828 2.627,-7.811 5.8,-9.85z" fill="#ffd005" stroke="#000000" stroke-width="2" stroke-linecap="round"/><g stroke-linecap="round"><path d="M215.45,146.96279c1.241,0.381 2.154,1.559 2.85,2.667c0.679,1.081 1.15,2.23 1.15,3.658c0,1.428 -0.373,2.647 -1.15,3.658c-0.529,0.688 -1.531,0.953 -2.35,0.817c-1.165,-0.11 -2.319,-0.688 -3.15,-1.5c-0.939,-0.918 -1.757,-2.178 -1.9,-3.5c-0.243,-1.77 -0.298,-3.893 0.8,-5.3c0.777,-0.996 2.552,-0.92 3.75,-0.5z" fill="#ffcc77" stroke="#000000" stroke-width="2"/><path d="M216.85,150.26279c1.109,0.05 2.371,-0.399 3.298,0.149c0.835,0.492 1.202,1.616 1.202,2.651c0,1.035 -0.459,1.972 -1.202,2.651c-0.742,0.679 -1.767,1.099 -2.898,1.099c-1.131,0 -2.156,-0.42 -2.898,-1.099c-0.743,-0.679 -1.202,-1.616 -1.202,-2.651c0,-1.035 0.406,-2.1 1.202,-2.651c0.706,-0.487 1.674,-0.099 2.498,-0.149z" fill="#ffcc77" stroke="none" stroke-width="1"/><path d="M220,147.46279c1.333,-0.163 2.656,0.849 3.598,1.699c0.721,0.65 1.202,1.616 1.202,2.651c0,1.035 -0.459,1.972 -1.202,2.651c-0.742,0.679 -1.767,1.099 -2.898,1.099c-1.131,0 -2.156,-0.42 -2.898,-1.099c-0.743,-0.679 -0.961,-1.713 -1.202,-2.651c-0.125,-0.482 -0.301,-1.227 0.05,-1.65c0.924,-1.102 1.962,-2.471 3.35,-2.7z" fill="#ffcc77" stroke="none" stroke-width="1"/><path d="M212.9,149.71279c0,0 1.307,-0.833 2,-0.7c0.708,0.136 1.163,0.869 1.65,1.4c0.453,0.493 1.15,1.65 1.15,1.65" fill="none" stroke="#000000" stroke-width="1"/><path d="M213.4222,154.03379c0,0 0.4032,-1.6424 1.0336,-2.0209c0.8384,-0.4754 2.8333,-0.2284 2.8333,-0.2284" fill="none" stroke="#000000" stroke-width="1"/></g><path d="M237.62654,189.28516c0,0 -0.842,-0.054 -1.25,-0.15c-0.661,-0.155 -1.383,-0.225 -1.95,-0.6c-0.61,-0.404 -1.45,-1.65 -1.45,-1.65" fill="none" stroke="#000000" stroke-width="2" stroke-linecap="round"/><g><path d="M240.39485,133.32824c2.297,0 4.378,1.115 5.885,2.916c1.507,1.801 2.44,4.289 2.44,7.034c0,2.745 -0.933,5.233 -2.44,7.034c-1.507,1.801 -3.588,2.916 -5.885,2.916c-2.297,0 -4.378,-1.115 -5.885,-2.916c-1.507,-1.801 -2.44,-4.289 -2.44,-7.034c0,-2.745 0.933,-5.233 2.44,-7.034c1.507,-1.801 3.588,-2.916 5.885,-2.916z" fill="#ffffff" stroke="#000000" stroke-width="2" stroke-linecap="butt"/><path d="M231.64085,142.68074l-1.8043,-1.654l-1.1428,-1.5336" fill="none" stroke="#000000" stroke-width="1.2029" stroke-linecap="round"/><path d="M231.79085,139.98074l-1.8043,-1.654l-1.1428,-1.5336" fill="none" stroke="#000000" stroke-width="1.2029" stroke-linecap="round"/><path d="M243.83677,142.16483c0.73884,0 1.40914,0.44664 1.89371,1.16753c0.48524,0.7209 0.78544,1.7167 0.78544,2.81567c0,1.09897 -0.3002,2.09478 -0.78544,2.81567c-0.48458,0.7209 -1.15487,1.16754 -1.89371,1.16754c-0.73884,0 -1.40913,-0.44664 -1.89371,-1.16754c-0.48524,-0.7209 -0.78544,-1.7167 -0.78544,-2.81567c0,-1.09897 0.3002,-2.09478 0.78544,-2.81567c0.48458,-0.7209 1.15487,-1.16753 1.89371,-1.16753z" fill="#990072" stroke="none" stroke-width="1" stroke-linecap="butt"/><path d="M244.25279,143.57247c0.44064,0 0.84002,0.33805 1.12957,0.88512c0.28888,0.54701 0.46793,1.30147 0.46793,2.13494c0,0.8334 -0.17905,1.58787 -0.46793,2.13494c-0.28955,0.54701 -0.68893,0.88512 -1.12957,0.88512c-0.44064,0 -0.84002,-0.33811 -1.12957,-0.88512c-0.28888,-0.54707 -0.46794,-1.30154 -0.46794,-2.13494c0,-0.83347 0.17906,-1.58793 0.46794,-2.13494c0.28955,-0.54707 0.68893,-0.88512 1.12957,-0.88512z" fill="#000000" stroke="none" stroke-width="1.08485" stroke-linecap="butt"/><path d="M244.93506,143.2096c0.34413,0 0.65631,0.19394 0.88196,0.50737c0.22631,0.31278 0.3661,0.74571 0.3661,1.22304c0,0.47733 -0.13978,0.91027 -0.3661,1.22305c-0.22565,0.31343 -0.53783,0.50737 -0.88196,0.50737c-0.34413,0 -0.65631,-0.19393 -0.88196,-0.50737c-0.22631,-0.31278 -0.3661,-0.74572 -0.3661,-1.22305c0,-0.47733 0.13978,-0.91026 0.3661,-1.22304c0.22565,-0.31343 0.53782,-0.50737 0.88196,-0.50737z" fill="#ffffff" stroke="none" stroke-width="1" stroke-linecap="butt"/><path d="M242.42231,146.93162c0.18372,0 0.35012,0.09534 0.4706,0.24878c0.12048,0.15345 0.19503,0.36567 0.19503,0.60009c0,0.23442 -0.07455,0.44664 -0.19503,0.60009c-0.12048,0.15345 -0.28688,0.24879 -0.4706,0.24879c-0.18372,0 -0.35012,-0.09534 -0.4706,-0.24879c-0.12048,-0.15345 -0.19502,-0.36567 -0.19502,-0.60009c0,-0.23442 0.07455,-0.44664 0.19502,-0.60009c0.12048,-0.15345 0.28689,-0.24878 0.4706,-0.24878z" fill="#ffffff" stroke="none" stroke-width="1" stroke-linecap="butt"/></g><g><path d="M255.92158,135.17856c1.77496,0 3.38302,1.01133 4.54752,2.64487c1.16451,1.63354 1.88546,3.8902 1.88546,6.37997c0,2.48977 -0.72096,4.74643 -1.88546,6.37997c-1.16451,1.63354 -2.77256,2.64487 -4.54752,2.64487c-1.77496,0 -3.38302,-1.01133 -4.54752,-2.64487c-1.16451,-1.63354 -1.88546,-3.8902 -1.88546,-6.37997c0,-2.48977 0.72096,-4.74643 1.88546,-6.37997c1.16451,-1.63354 2.77256,-2.64487 4.54752,-2.64487z" fill="#ffffff" stroke="#000000" stroke-width="2" stroke-linecap="butt"/><path d="M264.65428,139.04691l-0.88308,1.391l-1.39424,1.50021" fill="none" stroke="#000000" stroke-width="1.2029" stroke-linecap="round"/><path d="M264.84747,141.49586l-0.88308,1.391l-1.39424,1.50021" fill="none" stroke="#000000" stroke-width="1.2029" stroke-linecap="round"/><g stroke="none" stroke-linecap="butt"><path d="M259.23744,144.31144c0.37496,0.65387 0.60693,1.55708 0.60693,2.55387c0,0.99679 -0.23197,1.9 -0.60693,2.55387c-0.37445,0.65387 -0.8924,1.05898 -1.46333,1.05898c-0.57093,0 -1.08889,-0.40511 -1.46333,-1.05898c-0.37496,-0.65387 -0.60693,-1.55708 -0.60693,-2.55387c0,-0.99679 0.23197,-1.9 0.60693,-2.55387c0.37445,-0.65387 0.8924,-1.05898 1.46333,-1.05898c0.57093,0 1.08888,0.40511 1.46333,1.05898z" fill="#990072" stroke-width="1"/><path d="M258.3255,145.39127c0.22323,0.49614 0.36159,1.18045 0.36159,1.93643c0,0.75591 -0.13836,1.44023 -0.36159,1.93643c-0.22374,0.49614 -0.53236,0.80282 -0.87286,0.80282c-0.3405,0 -0.64911,-0.30668 -0.87285,-0.80282c-0.22323,-0.4962 -0.36159,-1.18052 -0.36159,-1.93643c0,-0.75597 0.13836,-1.44028 0.36159,-1.93643c0.22374,-0.4962 0.53235,-0.80282 0.87285,-0.80282c0.3405,0 0.64911,0.30662 0.87286,0.80282z" fill="#000000" stroke-width="1.08485"/><path d="M257.63266,144.60106c0.17488,0.2837 0.28289,0.67638 0.28289,1.10932c0,0.43295 -0.10801,0.82562 -0.28289,1.10932c-0.17437,0.28429 -0.41559,0.46019 -0.68151,0.46019c-0.26592,0 -0.50715,-0.1759 -0.68152,-0.46019c-0.17488,-0.2837 -0.28289,-0.67637 -0.28289,-1.10932c0,-0.43295 0.10801,-0.82563 0.28289,-1.10932c0.17437,-0.28429 0.4156,-0.46019 0.68152,-0.46019c0.26592,0 0.50715,0.1759 0.68151,0.46019z" fill="#ffffff" stroke-width="1"/><path d="M259.25647,147.74246c0.0931,0.13918 0.15071,0.33167 0.15071,0.5443c0,0.21262 -0.05761,0.40512 -0.15071,0.5443c-0.0931,0.13918 -0.22168,0.22565 -0.36365,0.22565c-0.14196,0 -0.27055,-0.08647 -0.36365,-0.22565c-0.0931,-0.13918 -0.15071,-0.33167 -0.15071,-0.5443c0,-0.21262 0.05761,-0.40512 0.15071,-0.5443c0.0931,-0.13918 0.22168,-0.22565 0.36365,-0.22565c0.14196,0 0.27055,0.08647 0.36365,0.22565z" fill="#ffffff" stroke-width="1"/></g></g><g stroke-linecap="round"><path d="M227.75088,163.52512l4.5,-3.15l8.4,1.6l-2.5,6.75h-1.5z" fill="#3d0101" stroke="none" stroke-width="1"/><path d="M229.35088,162.32512c0.649,-0.065 1.195,0.07 1.7,0.35c0.572,0.318 1.092,0.877 1.45,1.5c0.312,0.494 0.884,1.405 0.5,1.75c-0.442,0.393 -1.504,-0.131 -2.2,-0.4c-0.71,-0.282 -1.42,-0.706 -2.05,-1.2c-0.167,-0.165 -0.297,-0.452 -0.25,-0.7c0.057,-0.292 0.426,-0.437 0.615,-0.672c0.162,-0.191 0.014,-0.605 0.235,-0.628z" fill="#ff9999" stroke="none" stroke-width="1"/><path d="M237.51818,168.65922l-9.7105,-4.0288c-0.8389,-0.7105 0.569,-2.1732 1.3048,-2.9116c0.7101,-0.6985 1.8158,-0.8782 2.7237,-1.0926c0.9246,-0.2177 1.8928,-0.2851 2.8429,-0.2509c0.7754,0.0266 1.6209,0.1564 2.3824,0.4202c0.9863,0.3392 3.2932,1.5033 3.2932,1.5033" fill="none" stroke="#000000" stroke-width="2"/></g></g></g></svg>