<svg version="1.1" xmlns="http://www.w3.org/2000/svg" xmlns:xlink="http://www.w3.org/1999/xlink" width="1515.51351" height="716.71471" viewBox="0,0,1515.51351,716.71471"><g transform="translate(524.51349,178.71931)"><g stroke-miterlimit="10"><path d="M-523.51349,536.9954v-714.71471h1513.51351v714.71471z" fill="#040004" stroke="#660000" stroke-width="2" stroke-linecap="butt"/><path d="M51,-4.99999l56.5,5l15,58l-27,35l-41,333c0,0 -40.23563,-4.21875 -51.73665,-15.27398c-9.68556,-9.31015 -12.76335,-46.72602 -12.76335,-46.72602l50,-278.5l-15.5,-41.5z" fill="#280017" stroke="none" stroke-width="1" stroke-linecap="round"/><path d="M447.50001,51.02311l-7.5,42.6088l44,279.8643c0,0 -12.7491,31.4627 -22.70835,39.67626c-10.80506,8.91112 -39.79165,11.86854 -39.79165,11.86854l-39.5,-326.9132l-13,-9.6048l0.5,-101.873l56.5,-5.109z" fill="#280017" stroke="none" stroke-width="1.01096" stroke-linecap="round"/><path d="M-44.6875,-1.99999c-0.286,-0.322 0,0.166 0,0c0,-0.666 0,-1.334 0,-2c0,-0.666 0,-1.334 0,-2c0,-0.666 0,-1.334 0,-2c0,-0.666 0,-1.334 0,-2c0,-0.666 0,-1.334 0,-2c0,-0.666 0,-1.334 0,-2c0,-0.666 0,-1.334 0,-2c0,-0.666 0,-1.334 0,-2c0,-0.666 0,-1.334 0,-2c0,-0.832 0,-1.668 0,-2.5c0,-0.666 0,-1.334 0,-2c0,-0.666 0,-1.334 0,-2c0,-0.832 0,-1.668 0,-2.5c0,-0.666 0,-1.334 0,-2c0,-0.832 0,-1.668 0,-2.5c0,-0.666 0,-1.334 0,-2c0,-0.832 0,-1.668 0,-2.5c0,-0.666 -0.144,-1.35 0,-2c0.195,-0.875 -0.108,-2.309 1,-2.5c4.43,-0.764 53.6925,42.5 58.1875,42.5c4.995,0 10.005,0 15,0c4.163,0 8.337,0 12.5,0c4.995,0 10.005,0 15,0c5.162,0 10.338,0 15.5,0c5.162,0 10.338,0 15.5,0c4.662,0 9.338,0 14,0c4.162,0 8.338,0 12.5,0c3.996,0 8.004,0 12,0c2.997,0 6.003,0 9,0c2.664,0 5.336,0 8,0c2.165,0 4.335,0 6.5,0c2.498,0 5.002,0 7.5,0c2.331,0 4.669,0 7,0c2.498,0 5.002,0 7.5,0c2.664,0 5.336,0 8,0c2.997,0 6.003,0 9,0c4.162,0 8.338,0 12.5,0c4.495,0 9.005,0 13.5,0c4.162,0 8.338,0 12.5,0c4.828,0 9.672,0 14.5,0c4.662,0 9.338,0 14,0c4.495,0 9.005,0 13.5,0c3.663,0 7.337,0 11,0c3.996,0 8.004,0 12,0c4.163,0 8.337,0 12.5,0c3.663,0 7.337,0 11,0c4.495,0 9.005,0 13.5,0c5.161,0 10.339,0 15.5,0c5.328,0 10.672,0 16,0c5.661,0 11.339,0 17,0c5.994,0 12.006,0 18,0c4.829,0 9.671,0 14.5,0c3.829,0 7.671,0 11.5,0c3.163,0 6.337,0 9.5,0c2.498,0 5.002,0 7.5,0c2.664,0 5.336,0 8,0c2.331,0 4.669,0 7,0c2.498,0 5.002,0 7.5,0c2.164,0 44.47104,-88.52213 46.63504,-88.52213c2.664,0 5.336,0 8,0c1.332,0 2.809,-0.596 4,0c0.596,0.298 0,1.334 0,2c0,0.999 0,2.001 0,3c0,0.666 0,1.334 0,2c0,0.666 0,1.334 0,2c0,0.999 0,2.001 0,3c0,1.165 0,2.335 0,3.5c0,0.666 0,1.334 0,2c0,1.332 0,2.668 0,4c0,0.832 0,1.668 0,2.5c0,0.999 0,2.001 0,3c0,0.832 0.092,1.673 0,2.5c-0.076,0.682 -0.334,1.334 -0.5,2c-0.166,0.666 -0.377,1.325 -0.5,2c-0.211,1.158 -0.306,2.339 -0.5,3.5c-0.14,0.837 -0.316,1.671 -0.5,2.5c-0.149,0.67 -0.303,1.342 -0.5,2c-0.303,1.009 -0.812,1.964 -1,3c-0.149,0.819 0.075,1.671 0,2.5c-0.092,1.009 -0.301,2.007 -0.5,3c-0.135,0.673 -0.259,1.357 -0.5,2c-0.261,0.697 -0.739,1.303 -1,2c-0.241,0.643 -0.415,1.319 -0.5,2c-0.083,0.661 0,1.334 0,2c0,0.666 0,1.334 0,2c0,0.666 0.162,1.354 0,2c-0.181,0.722 -0.838,1.273 -1,2c-0.181,0.813 0,1.668 0,2.5c0,0.666 0.262,1.388 0,2c-0.278,0.649 -0.925,1.089 -1.5,1.5c-0.606,0.433 -1.278,0.819 -2,1c-0.38708,0.09707 -6.94742,34.1117 -18.90207,59.55802c-7.99627,17.02064 -22.96604,28.96412 -23.23297,28.96412c-0.832,0 -1.673,0.092 -2.5,0c-0.682,-0.076 -1.363,-0.245 -2,-0.5c-1.037,-0.415 -1.95,-1.118 -3,-1.5c-0.798,-0.29 -1.695,-0.232 -2.5,-0.5c-0.706,-0.235 -1.32,-0.698 -2,-1c-0.819,-0.364 -1.744,-0.519 -2.5,-1c-1.097,-0.698 -1.918,-1.779 -3,-2.5c-0.929,-0.62 -1.889,-1.389 -3,-1.5c-0.741,-0.074 -1.473,0.473 -2,1c-0.686,0.686 -0.861,1.769 -1.5,2.5c-0.548,0.627 -1.334,1.001 -2,1.5c-0.666,0.499 -1.411,0.911 -2,1.5c-0.589,0.589 -1,1.334 -1.5,2c-0.5,0.666 -0.952,1.373 -1.5,2c-0.62,0.709 -1.201,1.501 -2,2c-0.582,0.364 -1.325,0.377 -2,0.5c-1.158,0.211 -2.328,0.393 -3.5,0.5c-0.663,0.06 -1.338,0.074 -2,0c-0.844,-0.094 -1.671,-0.316 -2.5,-0.5c-0.67,-0.149 -1.33,-0.351 -2,-0.5c-0.829,-0.184 -1.668,-0.334 -2.5,-0.5c-0.832,-0.166 -1.665,-0.348 -2.5,-0.5c-0.996,-0.181 -2.013,-0.272 -3,-0.5c-1.181,-0.273 -2.341,-0.644 -3.5,-1c-1.006,-0.31 -2.058,-0.529 -3,-1c-1.074,-0.537 -2.029,-1.294 -3,-2c-0.862,-0.627 -1.746,-1.246 -2.5,-2c-0.589,-0.589 -0.777,-1.587 -1.5,-2c-0.578,-0.33 -1.446,-0.369 -2,0c-0.62,0.413 -0.739,1.303 -1,2c-0.241,0.643 -0.334,1.334 -0.5,2c-0.166,0.666 -0.216,1.375 -0.5,2c-0.555,1.222 -1.279,2.367 -2,3.5c-0.447,0.702 -1,1.334 -1.5,2c-0.5,0.666 -0.911,1.411 -1.5,2c-0.754,0.754 -1.601,1.428 -2.5,2c-0.942,0.6 -1.969,1.07 -3,1.5c-0.972,0.405 -1.987,0.711 -3,1c-1.32,0.377 -2.657,0.712 -4,1c-0.99,0.212 -1.992,0.399 -3,0.5c-0.663,0.066 -1.334,0 -2,0c-0.832,0 -1.668,0 -2.5,0c-0.832,0 -1.668,0 -2.5,0c-0.832,0 -1.668,0 -2.5,0c-0.832,0 -1.681,0.149 -2.5,0c-1.036,-0.188 -1.97,-0.779 -3,-1c-1.313,-0.281 -2.692,-0.198 -4,-0.5c-0.874,-0.202 -1.681,-0.636 -2.5,-1c-0.68,-0.302 -1.325,-0.685 -2,-1c-1.823,-0.851 -3.725,-1.553 -5.5,-2.5c-0.735,-0.392 -1.343,-0.989 -2,-1.5c-0.842,-0.655 -1.658,-1.345 -2.5,-2c-0.657,-0.511 -1.318,-1.023 -2,-1.5c-0.984,-0.689 -2.001,-1.334 -3,-2c-0.999,-0.666 -2.108,-1.197 -3,-2c-0.792,-0.713 -1.298,-1.698 -2,-2.5c-0.465,-0.532 -1,-1.001 -1.5,-1.5c-0.5,-0.499 -1.04,-0.964 -1.5,-1.5c-0.542,-0.632 -0.952,-1.373 -1.5,-2c-0.62,-0.709 -1.162,-2 -2,-2c-0.662,0 -0.605,1.369 -1,2c-0.441,0.706 -1.059,1.294 -1.5,2c-0.395,0.631 -0.605,1.369 -1,2c-0.441,0.706 -1.038,1.307 -1.5,2c-0.539,0.808 -0.814,1.814 -1.5,2.5c-0.686,0.686 -1.692,0.961 -2.5,1.5c-0.693,0.462 -1.255,1.128 -2,1.5c-0.614,0.307 -1.325,0.377 -2,0.5c-1.158,0.211 -2.343,0.283 -3.5,0.5c-1.509,0.283 -2.977,0.81 -4.5,1c-1.156,0.145 -2.334,0 -3.5,0c-0.832,0 -1.671,0.075 -2.5,0c-1.009,-0.092 -2.001,-0.334 -3,-0.5c-0.999,-0.166 -2.026,-0.222 -3,-0.5c-1.368,-0.391 -2.679,-0.972 -4,-1.5c-1.177,-0.471 -2.366,-0.933 -3.5,-1.5c-1.201,-0.6 -2.33,-1.342 -3.5,-2c-1.494,-0.84 -3.046,-1.591 -4.5,-2.5c-1.215,-0.759 -2.322,-1.685 -3.5,-2.5c-0.987,-0.683 -2.001,-1.334 -3,-2c-0.999,-0.666 -1.97,-1.382 -3,-2c-0.638,-0.383 -1.473,-0.473 -2,-1c-0.849,-0.849 -1.355,-1.987 -2,-3c-0.521,-0.819 -0.612,-2.373 -1.5,-2.5c-0.862,-0.123 -1.177,1.543 -2,2c-0.742,0.412 -1.741,0.12 -2.5,0.5c-0.632,0.316 -1,1.001 -1.5,1.5c-0.666,0.666 -1.435,1.247 -2,2c-0.447,0.596 -0.515,1.435 -1,2c-0.542,0.632 -1.286,1.072 -2,1.5c-0.958,0.575 -2.001,1.001 -3,1.5c-0.666,0.333 -1.394,0.567 -2,1c-0.575,0.411 -0.948,1.059 -1.5,1.5c-1.118,0.895 -2.292,1.731 -3.5,2.5c-0.628,0.4 -1.334,0.667 -2,1c-0.666,0.333 -1.334,0.667 -2,1c-0.666,0.333 -1.369,0.605 -2,1c-0.706,0.441 -1.218,1.215 -2,1.5c-1.106,0.402 -2.326,0.41 -3.5,0.5c-0.996,0.077 -2.001,0 -3,0c-0.833,0 -1.667,0 -2.5,0c-1.332,0 -2.668,0 -4,0c-1.832,0 -3.67,0.083 -5.5,0c-1.837,-0.084 -3.688,-0.185 -5.5,-0.5c-2.029,-0.353 -4.023,-0.923 -6,-1.5c-2.022,-0.59 -4.012,-1.304 -6,-2c-1.343,-0.47 -2.679,-0.972 -4,-1.5c-1.177,-0.471 -2.297,-1.099 -3.5,-1.5c-1.303,-0.434 -2.795,-0.343 -4,-1c-0.731,-0.399 -1.059,-1.294 -1.5,-2c-0.395,-0.631 -0.605,-1.369 -1,-2c-0.441,-0.706 -1.208,-1.221 -1.5,-2c-0.234,-0.624 0.144,-1.35 0,-2c-0.195,-0.875 -0.201,-2.386 -1,-2.5c-0.951,-0.136 -1.627,1.389 -2.5,2c-0.795,0.557 -1.667,1.001 -2.5,1.5c-0.833,0.499 -1.692,0.961 -2.5,1.5c-0.693,0.462 -1.239,1.162 -2,1.5c-0.776,0.345 -1.695,0.232 -2.5,0.5c-0.706,0.235 -1.349,0.638 -2,1c-0.849,0.471 -1.667,1.001 -2.5,1.5c-0.833,0.499 -1.613,1.106 -2.5,1.5c-0.627,0.279 -1.342,0.303 -2,0.5c-1.009,0.303 -1.991,0.697 -3,1c-0.658,0.197 -1.334,0.334 -2,0.5c-1.332,0.333 -2.753,0.425 -4,1c-0.968,0.447 -1.613,1.409 -2.5,2c-1.117,0.745 -2.227,1.576 -3.5,2c-0.79,0.263 -1.667,0 -2.5,0c-0.999,0 -2.001,0 -3,0c-0.833,0 -1.67,0.069 -2.5,0c-1.173,-0.098 -2.341,-0.295 -3.5,-0.5c-1.672,-0.295 -3.338,-0.65 -5,-1c-1.502,-0.316 -3.015,-0.613 -4.5,-1c-2.346,-0.612 -4.676,-1.311 -7,-2c-2.171,-0.643 -4.335,-1.334 -6.5,-2c-2.165,-0.666 -4.303,-1.451 -6.5,-2c-1.806,-0.451 -3.683,-0.596 -5.5,-1c-1.183,-0.263 -2.319,-0.727 -3.5,-1c-0.987,-0.228 -2.032,-0.202 -3,-0.5c-1.212,-0.373 -2.405,-0.861 -3.5,-1.5c-0.921,-0.537 -1.746,-1.246 -2.5,-2c-0.589,-0.589 -1.059,-1.294 -1.5,-2c-0.395,-0.631 -0.543,-1.412 -1,-2c-0.723,-0.929 -1.383,-2.128 -2.5,-2.5c-0.706,-0.235 -1.294,0.765 -2,1c-0.805,0.268 -1.671,0.316 -2.5,0.5c-0.67,0.149 -1.349,0.283 -2,0.5c-1.35,0.45 -2.62,1.155 -4,1.5c-0.646,0.162 -1.35,-0.144 -2,0c-0.875,0.195 -1.625,0.805 -2.5,1c-0.65,0.144 -1.35,-0.144 -2,0c-0.875,0.195 -1.63,0.783 -2.5,1c-1.142,0.286 -2.353,0.235 -3.5,0.5c-1.026,0.237 -1.994,0.69 -3,1c-1.159,0.356 -2.324,0.706 -3.5,1c-0.824,0.206 -1.687,0.256 -2.5,0.5c-0.859,0.258 -1.621,0.824 -2.5,1c-0.816,0.163 -1.667,0 -2.5,0c-0.833,0 -1.667,0 -2.5,0c-0.666,0 -1.337,0.066 -2,0c-1.008,-0.101 -2.001,-0.334 -3,-0.5c-0.999,-0.166 -2.007,-0.301 -3,-0.5c-0.673,-0.135 -1.334,-0.334 -2,-0.5c-0.666,-0.166 -1.349,-0.283 -2,-0.5c-0.851,-0.284 -1.649,-0.716 -2.5,-1c-0.651,-0.217 -1.342,-0.303 -2,-0.5c-1.009,-0.303 -2.022,-0.609 -3,-1c-0.691,-0.277 -1.303,-0.739 -2,-1c-0.643,-0.241 -1.404,-0.159 -2,-0.5c-0.613,-0.35 -1.089,-0.925 -1.5,-1.5c-0.433,-0.606 -0.428,-1.523 -1,-2c-0.527,-0.439 -1.404,-0.159 -2,-0.5c-0.613,-0.35 -1.001,-1.001 -1.5,-1.5c-0.666,-0.666 -1.3,-1.37 -2,-2c-0.967,-0.87 -1.969,-1.707 -3,-2.5c-1.135,-0.873 -2.458,-1.518 -3.5,-2.5c-1.472,-1.388 -47.5425,-45.783 -48.6875,-47.5z" fill="#660000" stroke="#660000" stroke-width="2" stroke-linecap="round"/><path d="M-44.38749,-1.69999l-0.3,-0.3" fill="none" stroke="#660000" stroke-width="2" stroke-linecap="round"/><text transform="translate(52.88991,35.55407) scale(1.29769,1.27175)" font-size="22" xml:space="preserve" fill="#ffffff" stroke="none" stroke-width="1" stroke-linecap="butt" font-family="Handwriting" font-weight="400" text-anchor="start"><tspan x="0" dy="0">Escolha o seu personagem</tspan></text></g></g></svg>