<svg xmlns="http://www.w3.org/2000/svg" xmlns:xlink="http://www.w3.org/1999/xlink" version="1.1" width="75.52383422851562" height="144.68531799316406" viewBox="2.453932762145996 0.29455435276031494 75.52383422851562 144.68531799316406">
  <!-- Exported by Scratch - http://scratch.mit.edu/ -->
  <path id="ID0.9135261522606015" fill="#FFD005" stroke="#000000" stroke-width="2" d="M 36.425 17.35 C 43.026 17.35 49.007 20.916 53.338 26.677 C 57.669 32.438 60.35 40.395 60.35 49.175 C 60.35 57.955 57.669 65.912 53.338 71.673 C 49.007 77.434 43.026 81 36.425 81 C 29.824 81 23.843 77.434 19.512 71.673 C 15.181 65.912 12.5 57.955 12.5 49.175 C 12.5 40.395 15.181 32.438 19.512 26.677 C 23.843 20.916 29.824 17.35 36.425 17.35 Z "/>
  <g id="ID0.23922329768538475">
    <path id="ID0.19963421486318111" fill="#99B2FF" stroke="#000000" stroke-width="2" stroke-linecap="round" d="M 41.5 98.65 C 39.636 98.893 36.385 96.94 35.85 98.65 C 33.829 105.925 34.84 113.773 35.1 121.15 C 35.272 126.028 35.421 131.1 37.25 135.65 C 37.816 137.083 40.032 137.484 41.6 137.4 C 43.517 137.302 46.128 136.844 46.75 135.05 C 48.477 130.645 47.838 125.626 47.85 120.9 C 47.87 113.005 49.039 104.637 46.85 96.9 C 46.303 95.048 43.334 98.409 41.5 98.65 Z "/>
    <path id="ID0.7019679127261043" fill="#CC99FF" stroke="#000000" stroke-width="2" stroke-linecap="round" d="M 42.45 133.5 C 40.381 133.5 38.506 134.223 37.148 135.39 C 35.79 136.558 35.227 138.288 34.95 139.95 C 34.771 141.032 35.02 142.551 36.1 143 C 37.918 143.902 40.253 143.511 42.35 143.4 C 44.567 143.282 46.818 143.205 48.75 142.3 C 49.597 141.943 50.098 140.823 49.95 139.95 C 49.669 138.289 49.11 136.558 47.752 135.39 C 46.394 134.223 44.519 133.5 42.45 133.5 Z "/>
  </g>
  <g id="ID0.23922329768538475">
    <path id="ID0.19963421486318111" fill="#99B2FF" stroke="#000000" stroke-width="2" stroke-linecap="round" d="M 30.05 99.05 C 31.914 99.293 35.165 97.34 35.7 99.05 C 37.721 106.325 36.71 114.173 36.45 121.55 C 36.278 126.428 36.129 131.5 34.3 136.05 C 33.734 137.483 31.518 137.884 29.95 137.8 C 28.033 137.702 25.422 137.244 24.8 135.45 C 23.073 131.045 23.712 126.026 23.7 121.3 C 23.68 113.405 22.511 105.037 24.7 97.3 C 25.247 95.448 28.216 98.809 30.05 99.05 Z "/>
    <path id="ID0.7019679127261043" fill="#CC99FF" stroke="#000000" stroke-width="2" stroke-linecap="round" d="M 29.1 133.9 C 31.169 133.9 33.044 134.623 34.402 135.79 C 35.76 136.958 36.323 138.688 36.6 140.35 C 36.779 141.432 36.53 142.951 35.45 143.4 C 33.632 144.302 31.297 143.911 29.2 143.8 C 26.983 143.682 24.732 143.605 22.8 142.7 C 21.953 142.343 21.452 141.223 21.6 140.35 C 21.881 138.689 22.44 136.958 23.798 135.79 C 25.156 134.623 27.031 133.9 29.1 133.9 Z "/>
  </g>
  <g id="ID0.4572075121104717">
    <path id="ID0.7623941171914339" fill="#FF99E5" stroke="#000000" stroke-width="1.9999999984723658" stroke-linecap="round" d="M 51.9405 52.884 C 53.1601 53.9089 55.2774 52.8356 56.5276 51.8976 C 59.3086 49.8084 61.5689 46.9077 63.3649 43.899 C 65.3867 40.5126 67.0494 36.8937 67.7567 33.0691 C 67.9474 32.047 66.591 31.2101 65.701 30.5321 C 64.852 30.0008 63.6799 29.1447 62.7318 29.5748 C 60.6378 30.5287 59.2434 32.3742 57.7484 33.8906 C 56.489 35.2422 55.3632 36.7259 54.4997 38.146 C 52.8168 40.9058 50.5006 43.4923 50 46.7485 C 49.6727 48.8671 50.2312 51.5994 51.9405 52.884 Z "/>
    <path id="ID0.01313785370439291" fill="#FFCC77" stroke="#000000" stroke-width="1.526548623637165" stroke-linecap="round" d="M 71.6818 17.9974 C 69.9749 19.2481 68.512 23.1427 67.6124 22.7244 C 66.712 22.3053 68.2414 18.5162 67.9025 16.454 C 67.8173 15.9371 66.7672 15.4734 66.4173 15.9201 C 65.1467 17.7617 64.4723 22.1018 63.866 22.1543 C 63.2607 22.2067 64.1023 17.8673 63.1679 16.0456 C 62.8367 15.401 61.5414 16.4592 61.3189 17.1322 C 60.701 18.8159 60.8775 20.6646 60.8757 22.4706 C 60.8737 24.4343 60.4376 26.5662 61.245 28.3558 C 61.8395 29.6707 63.4749 29.9237 64.5222 30.7898 C 65.5477 31.6355 66.2473 33.4208 67.6693 33.6261 C 68.9771 33.7395 70.0217 32.3569 71.1701 31.5662 C 73.1161 30.2223 75.2763 29.0053 76.7031 27.1089 C 77.1853 26.5707 77.0183 25.2716 76.3143 25.0043 C 75.0636 24.5308 72.7872 26.6958 72.328 25.5065 C 71.4786 23.3011 74.0563 20.5437 73.7579 18.0271 C 73.6623 17.2561 72.1817 17.5612 71.6818 17.9974 Z "/>
  </g>
  <g id="ID0.4572075121104717">
    <path id="ID0.7623941171914339" fill="#FF99E5" stroke="#000000" stroke-width="1.9999999898339107" stroke-linecap="round" d="M 28.0059 63.3968 C 29.5406 63.8238 29.8517 66.1772 29.7843 67.7387 C 29.6324 71.2137 28.5166 74.7177 27.0494 77.8997 C 25.3981 81.4814 23.3521 84.8982 20.5965 87.6431 C 19.8611 88.3781 18.404 87.732 17.3417 87.3809 C 16.4237 86.9808 15.055 86.4976 14.874 85.4723 C 14.4776 83.2056 15.2122 81.0123 15.6184 78.922 C 16.0218 77.1192 16.6095 75.3519 17.2931 73.837 C 18.619 70.8889 19.4439 67.5164 21.8474 65.2633 C 23.4103 63.7959 25.9801 62.7126 28.0059 63.3968 Z "/>
    <path id="ID0.01313785370439291" fill="#FFCC77" stroke="#000000" stroke-width="1.526548617043654" stroke-linecap="round" d="M 10.3804 99.3988 C 10.4477 97.2838 12.8339 93.8759 11.9805 93.3702 C 11.126 92.8642 8.8642 96.2672 6.9714 97.153 C 6.4967 97.3748 5.5207 96.7706 5.6916 96.2294 C 6.4929 94.1404 9.6923 91.1314 9.393 90.6015 C 9.0942 90.0726 5.9897 93.2192 3.9588 93.4777 C 3.2399 93.5688 3.3809 91.9022 3.8103 91.3383 C 4.8502 89.877 6.4751 88.9778 7.9641 87.9557 C 9.583 86.8444 11.0954 85.2798 13.0281 84.9345 C 14.4489 84.682 15.5819 85.8882 16.8882 86.2628 C 18.1654 86.6309 20.0337 86.1992 21.0067 87.2563 C 21.8393 88.2712 21.289 89.9143 21.2856 91.3085 C 21.2766 93.6736 21.4934 96.1434 20.7352 98.3923 C 20.5636 99.0942 19.3975 99.6906 18.7791 99.2608 C 17.6816 98.4966 18.1813 95.3951 16.9407 95.6883 C 14.6412 96.2339 13.823 99.9188 11.5782 101.0947 C 10.8881 101.4517 10.303 100.0577 10.3804 99.3988 Z "/>
  </g>
  <path id="ID0.10097399353981018" fill="#FF99E5" stroke="#000000" stroke-width="2" stroke-linecap="round" d="M 36.25 64.7 C 38.89 64.754 41.524 61.756 43.95 62.8 C 46.631 63.953 47.948 67.373 49 70.15 C 49.84 72.368 50.024 74.906 49.45 77.15 C 48.901 79.343 45.962 80.601 45.8 82.8 C 45.376 88.549 50.35 94.825 47.75 100 C 46.025 103.434 40.145 101.615 36.35 101.8 C 34.633 101.884 32.946 101.278 31.25 101 C 28.749 100.59 24.631 101.889 23.75 99.5 C 21.801 94.217 24.935 88.225 24.6 82.6 C 24.495 80.84 23.017 79.412 22.6 77.7 C 22.231 76.186 22.002 74.527 22.25 72.95 C 22.513 71.156 23.155 69.387 24.1 67.8 C 25.249 65.871 26.288 63.224 28.45 62.65 C 31.045 61.96 33.446 64.641 36.25 64.7 Z "/>
  <path id="ID0.9834481873549521" fill="#FFCC77" stroke="#000000" stroke-width="2" d="M 36.875 12.35 C 43.517 12.35 49.536 15.375 53.894 20.263 C 58.252 25.151 60.95 31.901 60.95 39.35 C 60.95 46.799 58.252 53.549 53.894 58.437 C 49.536 63.325 43.517 66.35 36.875 66.35 C 30.233 66.35 24.214 63.325 19.856 58.437 C 15.498 53.549 12.8 46.799 12.8 39.35 C 12.8 31.901 15.498 25.151 19.856 20.263 C 24.214 15.375 30.233 12.35 36.875 12.35 Z "/>
  <path id="ID0.21714129857718945" fill="none" stroke="#000000" stroke-width="2" stroke-linecap="round" d="M 23.3 52.1 C 23.3 52.1 23.98 53.859 24.4 54.7 C 24.714 55.328 25.084 55.934 25.5 56.5 C 25.919 57.07 26.33 57.681 26.9 58.1 C 27.488 58.533 28.178 58.892 28.9 59 C 30.217 59.198 31.583 59.201 32.9 59 C 33.592 58.894 34.8 58.1 34.8 58.1 "/>
  <path id="ID0.11013443116098642" fill="none" stroke="#000000" stroke-width="2" stroke-linecap="round" d="M 33.65 48 C 33.65 48 34.455 49.491 35.15 49.9 C 35.771 50.266 36.602 50.331 37.3 50.15 C 37.98 49.973 38.436 49.32 39 48.9 C 39.219 48.737 39.65 48.4 39.65 48.4 "/>
  <path id="ID0.09000997431576252" fill="#FFD005" stroke="#000000" stroke-width="2" stroke-linecap="round" d="M 20.3 6.5 C 25.148 3.189 31.214 1.682 37 1.35 C 41.968 1.049 47.29 1.963 51.65 4.35 C 55.403 6.404 59.36 9.682 60.3 13.85 C 62.609 23.999 62.627 44.114 61.15 45.1 C 59.673 46.086 58.389 24.874 50.8 20.2 C 42.501 15.143 29.996 16.108 21.8 21 C 15.111 24.994 13.776 43.273 12.8 42.6 C 11.824 41.927 12.732 24.917 14.5 16.35 C 15.284 12.522 17.127 8.539 20.3 6.5 Z "/>
  <g id="ID0.7511085895821452">
    <path id="ID0.9202246675267816" fill="#FFCC77" stroke="#000000" stroke-width="2" stroke-linecap="round" d="M 11.5 39.6 C 12.741 39.981 13.654 41.159 14.35 42.267 C 15.029 43.348 15.5 44.497 15.5 45.925 C 15.5 47.353 15.127 48.572 14.35 49.583 C 13.821 50.271 12.819 50.536 12 50.4 C 10.835 50.29 9.681 49.712 8.85 48.9 C 7.911 47.982 7.093 46.722 6.95 45.4 C 6.707 43.63 6.652 41.507 7.75 40.1 C 8.527 39.104 10.302 39.18 11.5 39.6 Z "/>
    <path id="ID0.32951963087543845" fill="#FFCC77" stroke="none" stroke-linecap="round" d="M 12.9 42.9 C 14.009 42.95 15.271 42.501 16.198 43.049 C 17.033 43.541 17.4 44.665 17.4 45.7 C 17.4 46.735 16.941 47.672 16.198 48.351 C 15.456 49.03 14.431 49.45 13.3 49.45 C 12.169 49.45 11.144 49.03 10.402 48.351 C 9.659 47.672 9.2 46.735 9.2 45.7 C 9.2 44.665 9.606 43.6 10.402 43.049 C 11.108 42.562 12.076 42.95 12.9 42.9 Z " stroke-width="1"/>
    <path id="ID0.32951963087543845" fill="#FFCC77" stroke="none" stroke-linecap="round" d="M 16.05 40.1 C 17.383 39.937 18.706 40.949 19.648 41.799 C 20.369 42.449 20.85 43.415 20.85 44.45 C 20.85 45.485 20.391 46.422 19.648 47.101 C 18.906 47.78 17.881 48.2 16.75 48.2 C 15.619 48.2 14.594 47.78 13.852 47.101 C 13.109 46.422 12.891 45.388 12.65 44.45 C 12.525 43.968 12.349 43.223 12.7 42.8 C 13.624 41.698 14.662 40.329 16.05 40.1 Z " stroke-width="1"/>
    <path id="ID0.08531287917867303" fill="none" stroke="#000000" stroke-width="1" stroke-linecap="round" d="M 8.95 42.35 C 8.95 42.35 10.257 41.517 10.95 41.65 C 11.658 41.786 12.113 42.519 12.6 43.05 C 13.053 43.543 13.75 44.7 13.75 44.7 "/>
    <path id="ID0.08531287917867303" fill="none" stroke="#000000" stroke-width="1.0000000242889973" stroke-linecap="round" d="M 9.4722 46.671 C 9.4722 46.671 9.8754 45.0286 10.5058 44.6501 C 11.3442 44.1747 13.3391 44.4217 13.3391 44.4217 "/>
  </g>
  <g id="ID0.7511085895821452">
    <path id="ID0.9202246675267816" fill="#FFCC77" stroke="#000000" stroke-width="2" stroke-linecap="round" d="M 61.15 40.2 C 59.909 40.581 58.996 41.759 58.3 42.867 C 57.621 43.948 57.15 45.097 57.15 46.525 C 57.15 47.953 57.523 49.172 58.3 50.183 C 58.829 50.871 59.831 51.136 60.65 51 C 61.815 50.89 62.969 50.312 63.8 49.5 C 64.739 48.582 65.557 47.322 65.7 46 C 65.943 44.23 65.998 42.107 64.9 40.7 C 64.123 39.704 62.348 39.78 61.15 40.2 Z "/>
    <path id="ID0.32951963087543845" fill="#FFCC77" stroke="none" stroke-linecap="round" d="M 59.75 43.5 C 58.641 43.55 57.379 43.101 56.452 43.649 C 55.617 44.141 55.25 45.265 55.25 46.3 C 55.25 47.335 55.709 48.272 56.452 48.951 C 57.194 49.63 58.219 50.05 59.35 50.05 C 60.481 50.05 61.506 49.63 62.248 48.951 C 62.991 48.272 63.45 47.335 63.45 46.3 C 63.45 45.265 63.044 44.2 62.248 43.649 C 61.542 43.162 60.574 43.55 59.75 43.5 Z " stroke-width="1"/>
    <path id="ID0.32951963087543845" fill="#FFCC77" stroke="none" stroke-linecap="round" d="M 56.6 40.7 C 55.267 40.537 53.944 41.549 53.002 42.399 C 52.281 43.049 51.8 44.015 51.8 45.05 C 51.8 46.085 52.259 47.022 53.002 47.701 C 53.744 48.38 54.769 48.8 55.9 48.8 C 57.031 48.8 58.056 48.38 58.798 47.701 C 59.541 47.022 59.759 45.988 60 45.05 C 60.125 44.568 60.301 43.823 59.95 43.4 C 59.026 42.298 57.988 40.929 56.6 40.7 Z " stroke-width="1"/>
    <path id="ID0.08531287917867303" fill="none" stroke="#000000" stroke-width="1" stroke-linecap="round" d="M 63.7 42.95 C 63.7 42.95 62.393 42.117 61.7 42.25 C 60.992 42.386 60.537 43.119 60.05 43.65 C 59.597 44.143 58.9 45.3 58.9 45.3 "/>
    <path id="ID0.08531287917867303" fill="none" stroke="#000000" stroke-width="1.0000000242889973" stroke-linecap="round" d="M 63.1778 47.271 C 63.1778 47.271 62.7746 45.6286 62.1442 45.2501 C 61.3058 44.7747 59.3109 45.0217 59.3109 45.0217 "/>
  </g>
  <path id="ID0.2650244985707104" fill="none" stroke="#000000" stroke-width="2" stroke-linecap="round" d="M 28.1 81.9 C 28.1 81.9 29.563 81.585 30.25 81.3 C 30.939 81.014 32.2 80.2 32.2 80.2 "/>
  <path id="ID0.19685576995834708" fill="none" stroke="#000000" stroke-width="2" stroke-linecap="round" d="M 37.75 79.95 C 37.75 79.95 38.59 81.196 39.2 81.6 C 39.767 81.975 40.489 82.045 41.15 82.2 C 41.558 82.296 42.4 82.35 42.4 82.35 "/>
  <g id="ID0.04599782079458237">
    <path id="ID0.14617311488837004" fill="none" stroke="#000000" stroke-width="1.2028985023498535" stroke-linecap="round" d="M 19.8239 30.6649 L 20.9667 32.1985 L 22.771 33.8525 "/>
    <path id="ID0.14617311488837004" fill="none" stroke="#000000" stroke-width="1.2028985023498535" stroke-linecap="round" d="M 21.4739 29.0649 L 22.6167 30.5985 L 24.421 32.2525 "/>
    <path id="ID0.008277697954326868" fill="none" stroke="#000000" stroke-width="2" stroke-linecap="round" d="M 21.45 35.05 C 21.45 35.05 24.188 33.191 25.7 32.55 C 26.315 32.289 27.061 32.207 27.7 32.4 C 28.36 32.599 28.845 33.181 29.35 33.65 C 30.032 34.284 31.25 35.7 31.25 35.7 "/>
  </g>
  <g id="ID0.04599782079458237">
    <path id="ID0.14617311488837004" fill="none" stroke="#000000" stroke-width="1.2028985023498535" stroke-linecap="round" d="M 53.3761 30.8649 L 52.2333 32.3985 L 50.429 34.0525 "/>
    <path id="ID0.14617311488837004" fill="none" stroke="#000000" stroke-width="1.2028985023498535" stroke-linecap="round" d="M 51.7261 29.2649 L 50.5833 30.7985 L 48.779 32.4525 "/>
    <path id="ID0.008277697954326868" fill="none" stroke="#000000" stroke-width="2" stroke-linecap="round" d="M 51.75 35.25 C 51.75 35.25 49.012 33.391 47.5 32.75 C 46.885 32.489 46.139 32.407 45.5 32.6 C 44.84 32.799 44.355 33.381 43.85 33.85 C 43.168 34.484 41.95 35.9 41.95 35.9 "/>
  </g>
</svg>