<svg version="1.1" xmlns="http://www.w3.org/2000/svg" xmlns:xlink="http://www.w3.org/1999/xlink" width="54.24999" height="57.5" viewBox="0,0,54.24999,57.5"><g transform="translate(-212.875,-157.75)"><g stroke-miterlimit="10"><path d="M224.94703,213.5c-5.7007,0 -10.32203,-4.02944 -10.32203,-9v-36c0,-4.97056 4.62133,-9 10.32203,-9h30.10593c5.7007,0 10.32203,4.02944 10.32203,9v36c0,4.97056 -4.62133,9 -10.32203,9z" fill="#e3e2ff" stroke="#000000" stroke-width="3.5" stroke-linecap="butt"/><g><path d="M221.74232,194.8763v-13.40785c0,0 10.12433,0 12.21945,0c0.7254,0 10.23624,-9.09626 10.23624,-9.09626l-0.21658,30.40919c0,0 -9.23227,-7.90508 -9.91137,-7.90508c-2.04718,0 -12.32774,0 -12.32774,0z" fill="#000000" stroke="none" stroke-width="0" stroke-linecap="butt"/><path d="M246.09012,170.50327c0,0 3.00925,8.27829 2.9238,16.13503c-0.07818,7.18807 -2.9238,17.3262 -2.9238,17.3262" fill="none" stroke="#000000" stroke-width="1.5" stroke-linecap="round"/><path d="M249.68236,168.68039c0,0 4.79143,9.16238 4.65536,17.85819c-0.12448,7.95573 -4.65536,19.17657 -4.65536,19.17657" fill="none" stroke="#000000" stroke-width="1.5" stroke-linecap="round"/><path d="M253.59947,167.63362c0,0 4.79143,9.83214 4.65536,19.16361c-0.12448,8.53729 -4.65536,20.57837 -4.65536,20.57837" fill="none" stroke="#000000" stroke-width="1.5" stroke-linecap="round"/></g><path d="M223.71591,205.47727l33.63636,-37.72727" fill="none" stroke="#ff0000" stroke-width="2.5" stroke-linecap="round"/></g></g></svg>