<svg version="1.1" xmlns="http://www.w3.org/2000/svg" xmlns:xlink="http://www.w3.org/1999/xlink" width="80.44389" height="145.45448" viewBox="0,0,80.44389,145.45448"><g transform="translate(-198.92954,-108.17585)"><g stroke-miterlimit="10"><g stroke-linecap="round"><path d="M271.00624,150.43822c0.99901,1.47893 0.79867,3.59317 0.43496,5.34236c-0.23325,1.30909 -1.13566,2.51008 -2.13536,3.36158c-0.88469,0.75315 -2.07558,1.25072 -3.24538,1.28063c-0.82639,0.07956 -1.80788,-0.25347 -2.2885,-0.9761c-0.7059,-1.06186 -0.9945,-2.30356 -0.89665,-3.7282c0.09785,-1.42464 0.64647,-2.53867 1.39795,-3.5706c0.77029,-1.05771 1.76186,-2.17038 3.02605,-2.46545c1.22396,-0.33693 3,-0.29112 3.70693,0.75578z" fill="#ffcc77" stroke="#000000" stroke-width="2"/><path d="M268.15841,153.19857c0.75637,0.60425 1.08845,1.69456 1.01753,2.72713c-0.07092,1.03257 -0.59304,1.93591 -1.38082,2.56241c-0.78678,0.62656 -1.83815,0.97534 -2.96649,0.89784c-1.12834,-0.0775 -2.12215,-0.56674 -2.81588,-1.29499c-0.69473,-0.72831 -1.08845,-1.69456 -1.01753,-2.72713c0.07092,-1.03257 0.51407,-2.12878 1.38082,-2.56241c0.96237,-0.48319 2.19064,0.05122 3.30046,0.07733c0.81864,0.10634 1.81095,-0.21442 2.48192,0.31981z" fill="#ffcc77" stroke="none" stroke-width="1"/><path d="M265.88287,152.79269c0.32119,0.44606 0.09456,1.17725 -0.06318,1.64955c-0.30471,0.91928 -0.59304,1.93591 -1.38082,2.56241c-0.78678,0.62656 -1.83815,0.97534 -2.96649,0.89784c-1.12834,-0.0775 -2.12215,-0.56674 -2.81588,-1.29499c-0.69473,-0.72831 -1.08845,-1.69456 -1.01753,-2.72713c0.07092,-1.03257 0.61698,-1.96334 1.38082,-2.56241c0.99803,-0.78346 2.38726,-1.70242 3.70596,-1.44847c1.36905,0.32357 2.3108,1.76048 3.15712,2.9232z" fill="#ffcc77" stroke="none" stroke-width="1"/><path d="M264.70515,154.61628c0,0 0.77464,-1.10652 1.26036,-1.56732c0.52224,-0.49638 1.0264,-1.19648 1.74205,-1.28365c0.70048,-0.0852 1.94733,0.8354 1.94733,0.8354" fill="none" stroke="#000000" stroke-width="1"/><path d="M265.13416,154.36679c0,0 2.00714,-0.10973 2.81099,0.422c0.60298,0.42081 0.8927,2.08697 0.8927,2.08697" fill="none" stroke="#000000" stroke-width="1"/></g><path d="M244.19813,125.19197c6.58549,0.4523 12.30808,4.41975 16.23416,10.46397c3.92607,6.04422 6.05555,14.16623 5.45394,22.92559c-0.60161,8.75936 -3.82153,16.51396 -8.5371,21.96466c-4.71557,5.4507 -10.92686,8.59849 -17.51234,8.14619c-6.58549,-0.4523 -12.30808,-4.41975 -16.23416,-10.46397c-3.92607,-6.04422 -6.05555,-14.16623 -5.45394,-22.92559c0.60161,-8.75936 3.82153,-16.51396 8.5371,-21.96466c4.71557,-5.4507 10.92686,-8.59849 17.51234,-8.14619z" fill="#ffd005" stroke="#000000" stroke-width="2" stroke-linecap="butt"/><g stroke="#000000" stroke-width="2" stroke-linecap="round"><path d="M243.81588,205.53692c1.02778,7.97474 -1.35873,16.07997 -2.53917,23.88624c-0.70666,4.67289 -0.81245,9.73129 -3.16828,13.83454c-0.87898,1.68307 -3.52895,1.75224 -5.43952,1.56735c-1.56331,-0.14742 -3.69628,-0.86985 -4.04546,-2.37049c-1.14022,-4.76944 -0.54195,-9.80824 0.00505,-14.65853c0.82734,-7.33507 0.98108,-15.24642 4.04964,-22.14527c0.78058,-1.61277 3.70914,0.79695 5.58861,0.83063c1.8495,0.03125 5.28036,-2.85676 5.54914,-0.94447z" fill="#99b2ff"/><path d="M239.04956,243.74132c1.17154,1.35495 1.46998,3.14932 1.50374,4.83359c0.01805,0.88528 -0.64216,1.91945 -1.53244,2.14805c-2.04405,0.61113 -4.33518,2.09656 -6.54543,1.88735c-2.09054,-0.1985 -4.40438,-1.8952 -6.07002,-3.05467c-1.00226,-0.60289 -1.02524,-2.142 -0.68912,-3.18592c0.51833,-1.60322 1.32954,-3.23165 2.8445,-4.18732c1.5148,-0.95468 3.47573,-1.39417 5.52225,-1.09c2.04652,0.30417 3.79486,1.29496 4.96654,2.64893z" fill="#cc99ff"/></g><g stroke="#000000" stroke-width="2" stroke-linecap="round"><path d="M226.35889,205.28577c1.74627,0.69576 5.37886,-0.39397 5.47504,1.39519c0.16196,7.54876 -2.75567,14.90408 -4.82927,21.98842c-1.37122,4.68447 -2.76807,9.56261 -5.66397,13.52005c-0.90233,1.24886 -3.14873,1.09023 -4.64742,0.62164c-1.83344,-0.56834 -4.25048,-1.65691 -4.41021,-3.54894c-0.58577,-4.69504 1.27281,-9.40083 2.4282,-13.98343c1.93017,-7.65544 2.86373,-16.05298 6.89548,-23.00983c0.98738,-1.65957 3.0345,2.33049 4.75219,3.01691z" fill="#99b2ff"/><path d="M216.83263,238.82195c2.00493,0.51091 3.64333,1.67452 4.6711,3.14072c1.02753,1.46717 1.1459,3.28261 1.00391,4.96155c-0.09373,1.0927 -0.71011,2.50316 -1.86754,2.67157c-1.98444,0.42514 -5.17646,1.67473 -7.18111,1.04935c-2.11921,-0.6618 -3.2556,-3.49734 -4.9043,-4.85138c-0.73262,-0.5551 -0.94153,-1.76413 -0.58254,-2.57355c0.68245,-1.54018 1.65159,-3.07953 3.25596,-3.87602c1.60411,-0.79552 3.59959,-1.03313 5.60452,-0.52222z" fill="#cc99ff"/></g><g stroke="#000000" stroke-linecap="round"><path d="M242.79108,174.38531c2.25022,-2.4062 5.62174,-3.23513 8.56824,-4.56456c1.51408,-0.68541 3.28068,-1.27523 5.08299,-1.68078c2.08981,-0.4087 4.28223,-1.14592 6.5494,-0.75224c1.02552,0.17977 1.51035,1.54789 1.91155,2.46541c0.35237,1.06188 1.00022,2.51821 0.2661,3.25448c-2.7416,2.75888 -6.15595,4.80897 -9.73567,6.46455c-3.18024,1.47101 -6.6829,2.59101 -10.15772,2.74706c-1.56142,0.06927 -3.91519,-0.23901 -4.34403,-1.7732c-0.68662,-2.02498 0.3936,-4.59608 1.85912,-6.16073z" fill="#ff99e5" stroke-width="2"/><path d="M278.61016,164.07323c-1.17321,2.2462 -4.85713,3.06882 -5.39997,5.36897c-0.29171,1.24095 2.80919,0.73754 3.5747,1.83413c0.43054,0.61788 -0.16446,1.7847 -0.86615,1.95714c-2.24799,0.76089 -4.71804,0.54705 -7.08313,0.55888c-1.3942,0.00507 -3.03664,0.55734 -4.05253,-0.27405c-1.05826,-0.97174 -0.6288,-2.84055 -0.99843,-4.11731c-0.37616,-1.30584 -1.58372,-2.43741 -1.33292,-3.85851c0.34298,-1.93311 1.90577,-3.44739 3.01514,-5.06761c1.02031,-1.49022 1.91757,-3.1162 3.37763,-4.15785c0.56338,-0.43007 2.22981,-0.57307 2.13958,0.14593c-0.25607,2.0312 -3.39895,5.13947 -2.86969,5.43764c0.53026,0.29866 3.53542,-2.90433 5.62346,-3.70814c0.541,-0.17155 1.14637,0.80373 0.92513,1.2787c-0.88354,1.89386 -4.28382,4.15973 -3.7768,5.01363c0.50672,0.85279 3.91176,-1.53748 6.02668,-1.60731c0.65881,-0.07819 2.05351,0.50524 1.69733,1.19577z" fill="#ffcc77" stroke-width="1.52655"/></g><g stroke="#000000" stroke-linecap="round"><path d="M229.87356,176.35936c-0.94095,1.2854 -3.25279,0.74628 -4.69013,0.13237c-3.198,-1.36801 -6.08311,-3.64819 -8.54295,-6.14358c-2.7689,-2.80866 -5.24426,-5.92847 -6.8406,-9.47523c-0.42832,-0.94741 0.69027,-2.08291 1.39354,-2.95305c0.69822,-0.71784 1.63319,-1.82809 2.65643,-1.63575c2.26082,0.42871 4.05396,1.88982 5.86657,3.00729c1.54459,1.01344 2.99094,2.18681 4.1673,3.36087c2.29083,2.28066 5.15551,4.24225 6.41587,7.28606c0.82172,1.98007 0.92882,4.76682 -0.42603,6.42102z" fill="#ff99e5" stroke-width="2"/><path d="M202.40391,147.16654c1.95529,0.80908 4.3023,4.24409 5.07655,3.62394c0.77491,-0.62106 -1.61142,-3.93793 -1.77253,-6.02153c-0.04008,-0.52242 0.86958,-1.22254 1.3157,-0.8717c1.67202,1.48672 3.35892,5.54192 3.96033,5.4488c0.6003,-0.09301 -1.24882,-4.10795 -0.77426,-6.09948c0.16836,-0.70482 1.67808,0.01504 2.05424,0.61577c1.00051,1.48855 1.26868,3.3262 1.69979,5.08004c0.46876,1.90686 1.39923,3.87397 1.04053,5.80422c-0.26495,1.41853 -1.79329,2.05317 -2.60463,3.14335c-0.795,1.06523 -1.05013,2.96571 -2.38252,3.50324c-1.24337,0.42104 -2.58671,-0.67351 -3.89007,-1.16853c-2.20987,-0.84276 -4.59737,-1.51117 -6.43422,-3.01397c-0.59624,-0.40817 -0.74293,-1.7097 -0.12261,-2.13673c1.10223,-0.75735 3.82806,0.80434 3.99135,-0.45993c0.30067,-2.34414 -2.85869,-4.40966 -3.16709,-6.92496c-0.0906,-0.77167 1.42018,-0.8274 2.00942,-0.52253z" fill="#ffcc77" stroke-width="1.52655"/></g><path d="M239.18128,172.43013c2.59248,0.50156 5.69735,-2.00558 7.91082,-0.56474c2.44625,1.59155 3.16331,5.18554 3.72843,8.10085c0.45112,2.32843 0.20144,4.86082 -0.74532,6.97474c-0.64891,1.46903 -1.38243,2.33855 -2.53703,3.44528c-0.47069,0.45119 -1.86509,0.88316 -2.01947,1.50279c-1.39417,5.59349 2.44175,12.62303 -0.99933,17.28131c-2.28313,3.09117 -7.7688,0.30002 -11.54009,-0.16216c-1.70632,-0.20881 -3.26591,-1.0925 -4.89006,-1.65449c-2.39504,-0.82878 -6.67383,-0.24799 -7.13632,-2.7519c-1.0235,-5.53725 3.08257,-10.90998 3.7077,-16.51016c0.19542,-1.75227 4.95402,-18.80788 7.1821,-19.00638c2.67448,-0.23928 4.58531,2.81052 7.33856,3.34486z" fill="#ff99e5" stroke="#000000" stroke-width="2" stroke-linecap="round"/><path d="M244.98967,120.23456c6.62639,0.45511 12.42397,3.88543 16.4368,9.06055c4.01283,5.17512 6.24197,12.09413 5.73156,19.52562c-0.51041,7.43149 -3.66458,13.98076 -8.34727,18.55866c-4.68269,4.5779 -10.89481,7.18336 -17.5212,6.72825c-6.62639,-0.45511 -12.42397,-3.88543 -16.4368,-9.06055c-4.01283,-5.17512 -6.24197,-12.09413 -5.73156,-19.52562c0.51041,-7.43149 3.66458,-13.98076 8.34727,-18.55866c4.68269,-4.5779 10.89481,-7.18336 17.5212,-6.72825z" fill="#ffcc77" stroke="#000000" stroke-width="2" stroke-linecap="butt"/><path d="M253.71498,159.63738c0,0 -0.45308,0.30668 -0.68273,0.45429c-0.59145,0.38037 -1.09113,1.00059 -1.78166,1.13058c-0.70876,0.13275 -1.53335,0.01096 -2.12782,-0.39673c-0.66534,-0.45566 -1.36629,-1.99832 -1.36629,-1.99832" fill="none" stroke="#000000" stroke-width="2" stroke-linecap="round"/><path d="M228.87854,113.1722c5.06348,-2.97103 11.21848,-4.05884 17.01363,-3.9936c4.97695,0.04012 10.22381,1.31664 14.41001,3.99678c3.60344,2.30633 7.32653,5.84776 7.97872,10.07038c1.60816,10.28336 0.24782,30.35232 -1.29327,31.2348c-1.54109,0.88248 -1.36861,-20.36765 -8.61951,-25.55067c-7.93299,-5.61377 -20.47472,-5.50789 -28.98666,-1.18898c-6.94695,3.52628 -9.5313,21.67084 -10.45889,20.93255c-0.92759,-0.73829 1.14381,-17.6461 3.49467,-26.07182c1.04445,-3.76528 3.15604,-7.61264 6.4613,-9.42943z" fill="#ffd005" stroke="#000000" stroke-width="2" stroke-linecap="round"/><g stroke-linecap="round"><path d="M217.80712,145.6818c1.21198,0.46514 2.04211,1.70293 2.66056,2.85602c0.60333,1.12498 0.9945,2.30356 0.89665,3.7282c-0.09785,1.42464 -0.5535,2.61522 -1.39795,3.5706c-0.5749,0.65014 -1.5927,0.84586 -2.40046,0.65406c-1.15472,-0.18957 -2.26641,-0.84528 -3.03982,-1.71231c-0.87389,-0.98018 -1.60363,-2.29327 -1.65571,-3.62196c-0.12115,-1.78249 -0.03055,-3.90427 1.16128,-5.23273c0.84342,-0.94042 2.60904,-0.74297 3.77545,-0.24187z" fill="#ffcc77" stroke="#000000" stroke-width="2"/><path d="M218.97772,149.06997c1.10297,0.12587 2.39277,-0.2356 3.28004,0.37463c0.79933,0.54806 1.08845,1.69456 1.01753,2.72713c-0.07092,1.03257 -0.59304,1.93591 -1.38082,2.56241c-0.78678,0.62656 -1.83815,0.97534 -2.96649,0.89784c-1.12834,-0.0775 -2.12215,-0.56674 -2.81588,-1.29499c-0.69473,-0.72831 -1.08845,-1.69456 -1.01753,-2.72713c0.07092,-1.03257 0.54894,-2.06724 1.38082,-2.56241c0.73771,-0.43748 1.67685,0.01594 2.50234,0.02251z" fill="#ffcc77" stroke="none" stroke-width="1"/><path d="M222.31217,146.49239c1.34104,-0.07128 2.59158,1.029 3.47313,1.94154c0.67477,0.69788 1.08845,1.69456 1.01753,2.72713c-0.07092,1.03257 -0.59304,1.93591 -1.38082,2.56241c-0.78678,0.62656 -1.83815,0.97534 -2.96649,0.89784c-1.12834,-0.0775 -2.12215,-0.56674 -2.81588,-1.29499c-0.69473,-0.72831 -0.84137,-1.77482 -1.01753,-2.72713c-0.09168,-0.48943 -0.21622,-1.24474 0.16294,-1.6427c0.99734,-1.0361 2.1267,-2.33075 3.52713,-2.46411z" fill="#ffcc77" stroke="none" stroke-width="1"/><path d="M215.07469,148.25061c0,0 1.36101,-0.74149 2.04326,-0.56131c0.69702,0.18419 1.10072,0.94665 1.55019,1.50977c0.41815,0.52288 1.03424,1.72492 1.03424,1.72492" fill="none" stroke="#000000" stroke-width="1"/><path d="M215.29958,152.59724c0,0 0.51479,-1.61091 1.16964,-1.94533c0.869,-0.41683 2.84229,-0.03372 2.84229,-0.03372" fill="none" stroke="#000000" stroke-width="1"/></g><path d="M237.03159,189.42425c0,0 -0.83632,-0.11157 -1.23678,-0.2353c-0.64883,-0.19993 -1.36433,-0.31924 -1.9043,-0.73221c-0.58088,-0.44485 -1.33353,-1.74548 -1.33353,-1.74548" fill="none" stroke="#000000" stroke-width="2" stroke-linecap="round"/><g><path d="M243.62759,133.78853c2.2916,0.15739 4.29131,1.41236 5.67136,3.31239c1.38005,1.90003 2.14038,4.44611 1.95229,7.18466c-0.18809,2.73855 -1.28938,5.15677 -2.91624,6.85028c-1.62686,1.69351 -3.77937,2.66329 -6.07097,2.5059c-2.2916,-0.15739 -4.29131,-1.41236 -5.67136,-3.31239c-1.38005,-1.90003 -2.14038,-4.44611 -1.95229,-7.18466c0.18809,-2.73855 1.28938,-5.15677 2.91624,-6.85028c1.62686,-1.69351 3.77937,-2.66329 6.07097,-2.5059z" fill="#ffffff" stroke="#000000" stroke-width="2" stroke-linecap="butt"/><path d="M234.25333,142.51922l-1.68673,-1.77374l-1.03503,-1.6083" fill="none" stroke="#000000" stroke-width="1.2029" stroke-linecap="round"/><path d="M234.58798,139.83585l-1.68673,-1.77374l-1.03503,-1.6083" fill="none" stroke="#000000" stroke-width="1.2029" stroke-linecap="round"/><path d="M246.45594,142.8402c0.7371,0.05063 1.37522,0.54215 1.80926,1.29454c0.4347,0.75245 0.66596,1.76648 0.59066,2.86287c-0.0753,1.09639 -0.44303,2.06929 -0.97653,2.75523c-0.53284,0.686 -1.23216,1.08566 -1.96926,1.03504c-0.7371,-0.05063 -1.37521,-0.54214 -1.80926,-1.29455c-0.4347,-0.75245 -0.66596,-1.76648 -0.59066,-2.86287c0.0753,-1.09639 0.44303,-2.06929 0.97653,-2.75523c0.53284,-0.686 1.23216,-1.08565 1.96926,-1.03503z" fill="#990072" stroke="none" stroke-width="1" stroke-linecap="butt"/><path d="M246.77453,144.27303c0.4396,0.03019 0.81488,0.39481 1.06627,0.96044c0.25072,0.56552 0.37765,1.33047 0.32054,2.16199c-0.05711,0.83144 -0.28743,1.57187 -0.61312,2.09786c-0.32635,0.52588 -0.74796,0.83583 -1.18756,0.80564c-0.4396,-0.03019 -0.81488,-0.39487 -1.06627,-0.96044c-0.25072,-0.56558 -0.37766,-1.33054 -0.32055,-2.16199c0.05711,-0.83151 0.28745,-1.57193 0.61313,-2.09786c0.32636,-0.52594 0.74796,-0.83583 1.18756,-0.80564z" fill="#000000" stroke="none" stroke-width="1.08485" stroke-linecap="butt"/><path d="M247.48006,143.95777c0.34332,0.02358 0.64148,0.23845 0.84512,0.56661c0.20435,0.32755 0.31414,0.76904 0.28144,1.24525c-0.03271,0.47621 -0.20182,0.89855 -0.44904,1.19509c-0.2466,0.29723 -0.57133,0.46933 -0.91465,0.44575c-0.34332,-0.02358 -0.64148,-0.23844 -0.84512,-0.56661c-0.20435,-0.32755 -0.31414,-0.76905 -0.28144,-1.24526c0.03271,-0.47621 0.20182,-0.89854 0.44904,-1.19508c0.2466,-0.29723 0.57132,-0.46933 0.91465,-0.44575z" fill="#ffffff" stroke="none" stroke-width="1" stroke-linecap="butt"/><path d="M244.71818,147.49886c0.18329,0.01259 0.34276,0.11911 0.45245,0.28044c0.10968,0.16134 0.16952,0.37817 0.15345,0.61204c-0.01606,0.23387 -0.10498,0.44048 -0.23569,0.58532c-0.13071,0.14483 -0.30325,0.22855 -0.48654,0.21596c-0.18329,-0.01259 -0.34276,-0.11911 -0.45245,-0.28045c-0.10968,-0.16134 -0.16951,-0.37817 -0.15344,-0.61204c0.01606,-0.23387 0.10498,-0.44048 0.23568,-0.58532c0.13071,-0.14483 0.30326,-0.22854 0.48654,-0.21595z" fill="#ffffff" stroke="none" stroke-width="1" stroke-linecap="butt"/></g><g><path d="M258.99105,136.69841c1.77079,0.12162 3.30577,1.24076 4.3556,2.95025c1.04984,1.70949 1.61447,4.01025 1.44387,6.49417c-0.1706,2.48392 -1.04449,4.68587 -2.31819,6.23578c-1.2737,1.54991 -2.94727,2.44868 -4.71806,2.32705c-1.77079,-0.12162 -3.30577,-1.24076 -4.3556,-2.95025c-1.04984,-1.70949 -1.61447,-4.01025 -1.44387,-6.49417c0.1706,-2.48392 1.04449,-4.68587 2.31819,-6.23578c1.2737,-1.54991 2.94727,-2.44868 4.71806,-2.32705z" fill="#ffffff" stroke="#000000" stroke-width="2" stroke-linecap="butt"/><path d="M267.43816,141.15603l-0.97632,1.32722l-1.49376,1.40115" fill="none" stroke="#000000" stroke-width="1.2029" stroke-linecap="round"/><path d="M267.46309,143.61247l-0.97632,1.32722l-1.49376,1.40115" fill="none" stroke="#000000" stroke-width="1.2029" stroke-linecap="round"/><g stroke="none" stroke-linecap="butt"><path d="M261.67332,146.03703c0.32928,0.67803 0.49881,1.59501 0.43051,2.58945c-0.0683,0.99445 -0.36161,1.87964 -0.7805,2.50628c-0.41837,0.62668 -0.96286,0.99534 -1.53245,0.95622c-0.56959,-0.03912 -1.05857,-0.47877 -1.38733,-1.15676c-0.32928,-0.67803 -0.49881,-1.59501 -0.43051,-2.58945c0.0683,-0.99445 0.36161,-1.87964 0.7805,-2.50628c0.41837,-0.62668 0.96286,-0.99534 1.53245,-0.95622c0.56959,0.03912 1.05856,0.47877 1.38733,1.15676z" fill="#990072" stroke-width="1"/><path d="M260.68953,147.05183c0.18871,0.51027 0.27985,1.20245 0.22805,1.95666c-0.0518,0.75413 -0.23672,1.42736 -0.49343,1.9071c-0.25721,0.47964 -0.58612,0.76446 -0.92582,0.74112c-0.3397,-0.02333 -0.62657,-0.35044 -0.81579,-0.86074c-0.18871,-0.51033 -0.27985,-1.20252 -0.22805,-1.95666c0.0518,-0.75419 0.23672,-1.42741 0.49343,-1.9071c0.25721,-0.4797 0.58611,-0.76446 0.92581,-0.74112c0.3397,0.02333 0.62657,0.35038 0.8158,0.86074z" fill="#000000" stroke-width="1.08485"/><path d="M260.05247,146.216c0.15503,0.29502 0.23588,0.69417 0.20621,1.1261c-0.02967,0.43193 -0.16433,0.81628 -0.35824,1.08733c-0.19344,0.27167 -0.44615,0.43063 -0.71144,0.41241c-0.2653,-0.01822 -0.49391,-0.21024 -0.64839,-0.50581c-0.15503,-0.29502 -0.23588,-0.69416 -0.20621,-1.1261c0.02967,-0.43193 0.16433,-0.81629 0.35824,-1.08733c0.19344,-0.27167 0.44616,-0.43063 0.71145,-0.41241c0.2653,0.01822 0.49391,0.21024 0.64838,0.50581z" fill="#ffffff" stroke-width="1"/><path d="M261.45721,149.46129c0.08334,0.14523 0.12763,0.34122 0.11306,0.55335c-0.01457,0.21212 -0.08523,0.40022 -0.18765,0.53269c-0.10242,0.13247 -0.23662,0.20993 -0.37826,0.2002c-0.14163,-0.00973 -0.26399,-0.10481 -0.34733,-0.25004c-0.08334,-0.14523 -0.12763,-0.34122 -0.11306,-0.55335c0.01457,-0.21212 0.08523,-0.40022 0.18765,-0.53269c0.10242,-0.13247 0.23662,-0.20993 0.37826,-0.2002c0.14163,0.00973 0.26399,0.10481 0.34733,0.25004z" fill="#ffffff" stroke-width="1"/></g></g><g stroke-linecap="round"><path d="M228.94423,163.04807l4.70526,-2.83425l8.27062,2.17181l-2.95664,6.56283l-1.49647,-0.10278z" fill="#3d0101" stroke="none" stroke-width="1"/><path d="M230.6227,161.96052c0.65193,-0.02038 1.18739,0.15172 1.67202,0.46566c0.54887,0.35645 1.02934,0.94976 1.34381,1.59583c0.27742,0.51422 0.78565,1.46227 0.37891,1.78015c-0.46789,0.36179 -1.49149,-0.23375 -2.16742,-0.54981c-0.68901,-0.32999 -1.36829,-0.80164 -1.96296,-1.33765c-0.1553,-0.17606 -0.26533,-0.47129 -0.20145,-0.71548c0.07687,-0.28741 0.45494,-0.40678 0.6596,-0.62828c0.17471,-0.17945 0.05542,-0.60262 0.27748,-0.61042z" fill="#ff9999" stroke="none" stroke-width="1"/><path d="M238.33678,168.83936l-9.41162,-4.6847c-0.78824,-0.76631 0.71657,-2.1291 1.50124,-2.81535c0.75629,-0.6482 1.87171,-0.75172 2.79216,-0.9034c0.93734,-0.15383 1.90789,-0.15473 2.85341,-0.05551c0.77175,0.07967 1.60637,0.2671 2.34801,0.58246c0.96074,0.40598 3.18245,1.72542 3.18245,1.72542" fill="none" stroke="#000000" stroke-width="2"/></g></g></g></svg>