<svg xmlns="http://www.w3.org/2000/svg" xmlns:xlink="http://www.w3.org/1999/xlink" version="1.1" width="121.38601684570312" height="41.57600021362305" viewBox="0.706586480140686 0.4453333616256714 121.38601684570312 41.57600021362305">
  <!-- Exported by Scratch - http://scratch.mit.edu/ -->
  <path id="ID0.4081284096464515" fill="#FFFFFF" stroke="#000000" stroke-width="2" stroke-linecap="round" d="M 11.25 37.5 C 10.495 37.133 9.357 36.182 8.25 35.5 C 7.616 35.109 6.828 34.97 6.25 34.5 C 5.472 33.868 4.845 33.057 4.25 32.25 C 3.674 31.468 3.166 30.627 2.75 29.75 C 2.412 29.036 2.171 28.271 2 27.5 C 1.836 26.764 1.611 25.991 1.75 25.25 C 1.874 24.59 2.275 23.975 2.75 23.5 C 3.305 22.945 4.03 22.565 4.75 22.25 C 5.379 21.975 6.082 21.907 6.75 21.75 C 7.497 21.574 8.238 21.34 9 21.25 C 9.661 21.172 10.334 21.25 11 21.25 C 11.833 21.25 12.669 21.208 13.5 21.25 C 14.336 21.292 15.173 21.376 16 21.5 C 16.84 21.626 17.687 21.756 18.5 22 C 19.359 22.258 20.208 22.58 21 23 C 21.633 23.335 22.614 24.386 22.75 24.25 C 22.886 24.114 22.048 22.932 21.75 22.25 C 21.465 21.598 21.318 20.886 21 20.25 C 20.649 19.548 20.049 18.976 19.75 18.25 C 19.458 17.54 19.33 16.763 19.25 16 C 19.163 15.172 19.038 14.305 19.25 13.5 C 19.468 12.671 20.006 11.95 20.5 11.25 C 21.01 10.527 21.602 9.852 22.25 9.25 C 22.775 8.763 23.404 8.397 24 8 C 24.653 7.564 25.327 7.154 26 6.75 C 26.576 6.405 27.143 6.036 27.75 5.75 C 28.561 5.368 29.399 5.034 30.25 4.75 C 30.901 4.533 31.575 4.377 32.25 4.25 C 32.91 4.126 33.58 4.039 34.25 4 C 34.998 3.956 35.751 4 36.5 4 C 37.333 4 38.169 3.954 39 4 C 39.67 4.037 40.359 4.05 41 4.25 C 41.711 4.472 42.343 4.9 43 5.25 C 43.592 5.566 44.218 5.841 44.75 6.25 C 45.31 6.681 45.794 7.211 46.25 7.75 C 46.713 8.297 47.132 8.886 47.5 9.5 C 47.883 10.138 48.167 10.834 48.5 11.5 C 48.916 12.333 49.298 13.186 49.75 14 C 50.131 14.687 50.766 15.25 51 16 C 51.199 16.636 51.193 17.952 51 18 C 50.807 18.048 50.269 16.865 50 16.25 C 49.683 15.526 49.431 14.769 49.25 14 C 49.096 13.347 48.958 12.67 49 12 C 49.043 11.315 49.081 10.544 49.5 10 C 49.979 9.377 50.882 9.235 51.5 8.75 C 52.055 8.314 52.521 7.769 53 7.25 C 53.521 6.686 53.914 5.996 54.5 5.5 C 55.012 5.066 55.685 4.863 56.25 4.5 C 56.852 4.113 57.398 3.637 58 3.25 C 58.565 2.887 59.135 2.519 59.75 2.25 C 60.474 1.933 61.221 1.63 62 1.5 C 62.739 1.377 63.501 1.5 64.25 1.5 C 64.916 1.5 65.584 1.5 66.25 1.5 C 66.916 1.5 67.594 1.384 68.25 1.5 C 69.028 1.637 69.739 2.039 70.5 2.25 C 71.24 2.455 72.049 2.438 72.75 2.75 C 73.573 3.116 74.236 3.773 75 4.25 C 75.569 4.606 76.275 4.775 76.75 5.25 C 77.225 5.725 77.577 6.351 77.75 7 C 77.922 7.644 77.833 8.339 77.75 9 C 77.665 9.681 77.444 10.341 77.25 11 C 77.027 11.758 76.763 12.505 76.5 13.25 C 76.263 13.921 75.41 15.08 75.75 15.25 C 76.151 15.45 77.331 14.535 78 14 C 78.599 13.521 78.92 12.753 79.5 12.25 C 80.18 11.66 81.008 11.26 81.75 10.75 C 82.34 10.344 82.851 9.803 83.5 9.5 C 84.122 9.21 84.839 9.184 85.5 9 C 86.337 8.767 87.141 8.386 88 8.25 C 88.74 8.133 89.501 8.25 90.25 8.25 C 90.999 8.25 91.751 8.25 92.5 8.25 C 93.249 8.25 94.035 8.027 94.75 8.25 C 95.434 8.464 95.904 9.103 96.5 9.5 C 97.153 9.936 97.945 10.195 98.5 10.75 C 98.975 11.225 99.327 11.851 99.5 12.5 C 99.672 13.144 99.5 13.834 99.5 14.5 C 99.5 15.166 99.542 15.835 99.5 16.5 C 99.458 17.17 98.9 18.383 99.25 18.5 C 99.65 18.633 100.361 17.426 101 17 C 101.62 16.587 102.334 16.333 103 16 C 103.666 15.667 104.318 15.298 105 15 C 105.652 14.715 106.306 14.404 107 14.25 C 107.817 14.069 108.664 13.964 109.5 14 C 110.594 14.048 111.711 14.154 112.75 14.5 C 113.495 14.748 114.077 15.346 114.75 15.75 C 115.326 16.095 115.917 16.417 116.5 16.75 C 117.083 17.083 117.685 17.387 118.25 17.75 C 118.852 18.137 119.537 18.453 120 19 C 120.481 19.568 120.819 20.278 121 21 C 121.162 21.646 121.078 22.339 121 23 C 120.91 23.762 120.59 24.488 120.5 25.25 C 120.422 25.911 120.539 26.585 120.5 27.25 C 120.456 28.003 120.463 28.777 120.25 29.5 C 120.04 30.214 119.755 30.953 119.25 31.5 C 118.717 32.077 117.923 32.346 117.25 32.75 C 116.674 33.095 116.058 33.378 115.5 33.75 C 114.807 34.212 114.218 34.828 113.5 35.25 C 112.793 35.666 111.965 35.848 111.25 36.25 C 110.626 36.601 110.16 37.222 109.5 37.5 C 108.551 37.9 107.486 37.954 106.5 38.25 C 105.819 38.454 105.185 38.81 104.5 39 C 103.682 39.227 102.837 39.36 102 39.5 C 101.338 39.61 100.666 39.667 100 39.75 C 99.334 39.833 98.66 39.876 98 40 C 97.325 40.127 96.682 40.424 96 40.5 C 95.173 40.592 94.332 40.5 93.5 40.5 C 92.834 40.5 92.166 40.5 91.5 40.5 C 90.668 40.5 89.832 40.5 89 40.5 C 88.084 40.5 87.166 40.5 86.25 40.5 C 85.501 40.5 84.748 40.463 84 40.5 C 83.082 40.546 82.166 40.667 81.25 40.75 C 80.334 40.833 79.418 40.954 78.5 41 C 77.752 41.037 76.999 41 76.25 41 C 75.501 41 74.749 41 74 41 C 73.334 41 72.666 41 72 41 C 71.334 41 70.666 41 70 41 C 69.251 41 68.499 41 67.75 41 C 66.834 41 65.916 41 65 41 C 64.167 41 63.333 41 62.5 41 C 61.584 41 60.666 41 59.75 41 C 58.917 41 58.083 41 57.25 41 C 56.584 41 55.916 41 55.25 41 C 54.584 41 53.916 41 53.25 41 C 52.084 41 50.916 41 49.75 41 C 48.751 41 47.749 41 46.75 41 C 45.501 41 44.249 41 43 41 C 41.918 41 40.832 41 39.75 41 C 38.668 41 37.582 41 36.5 41 C 35.501 41 34.499 41 33.5 41 C 32.584 41 31.664 41.048 30.75 41 C 30.08 40.965 29.412 40.86 28.75 40.75 C 27.913 40.61 27.087 40.39 26.25 40.25 C 25.588 40.14 24.92 40.042 24.25 40 C 23.585 39.958 22.911 40.083 22.25 40 C 21.569 39.915 20.925 39.627 20.25 39.5 C 19.59 39.376 18.92 39.292 18.25 39.25 C 17.585 39.208 16.906 39.366 16.25 39.25 C 15.472 39.113 14.745 38.763 14 38.5 C 13.329 38.263 12.681 37.954 12 37.75 C 11.83 37.699 11.742 37.895 11.5 37.75 Z "/>
</svg>