<svg xmlns="http://www.w3.org/2000/svg" xmlns:xlink="http://www.w3.org/1999/xlink" version="1.1" width="75.78137969970703" height="149.05653381347656" viewBox="3.4637269973754883 0.29455435276031494 75.78137969970703 149.05653381347656">
  <!-- Exported by Scratch - http://scratch.mit.edu/ -->
  <path id="ID0.9135261522606015" fill="#FFD005" stroke="#000000" stroke-width="2" d="M 40.425 17.35 C 47.026 17.35 53.007 20.916 57.338 26.677 C 61.669 32.438 64.35 40.395 64.35 49.175 C 64.35 57.955 61.669 65.912 57.338 71.673 C 53.007 77.434 47.026 81 40.425 81 C 33.824 81 27.843 77.434 23.512 71.673 C 19.181 65.912 16.5 57.955 16.5 49.175 C 16.5 40.395 19.181 32.438 23.512 26.677 C 27.843 20.916 33.824 17.35 40.425 17.35 Z "/>
  <g id="ID0.23922329768538475">
    <path id="ID0.19963421486318111" fill="#99B2FF" stroke="#000000" stroke-width="2" stroke-linecap="round" d="M 45.5 98.65 C 43.636 98.893 40.385 96.94 39.85 98.65 C 37.829 105.925 38.84 113.773 39.1 121.15 C 39.272 126.028 39.421 131.1 41.25 135.65 C 41.816 137.083 44.032 137.484 45.6 137.4 C 47.517 137.302 50.128 136.844 50.75 135.05 C 52.477 130.645 51.838 125.626 51.85 120.9 C 51.87 113.005 53.039 104.637 50.85 96.9 C 50.303 95.048 47.334 98.409 45.5 98.65 Z "/>
    <path id="ID0.7019679127261043" fill="#CC99FF" stroke="#000000" stroke-width="2" stroke-linecap="round" d="M 46.45 133.5 C 44.381 133.5 42.506 134.223 41.148 135.39 C 39.79 136.558 39.176 138.28 38.95 139.95 C 38.775 141.246 39.151 142.84 40 143.95 C 41.53 145.778 43.34 148.292 45.75 148.35 C 48.23 148.408 50.21 146.138 51.9 144.45 C 53.051 143.228 53.986 141.523 53.95 139.95 C 53.91 138.265 53.11 136.558 51.752 135.39 C 50.394 134.223 48.519 133.5 46.45 133.5 Z "/>
  </g>
  <path id="ID0.19963421486318111" fill="#99B2FF" stroke="#000000" stroke-width="2" stroke-linecap="round" d="M 34.1 99.1 C 35.964 99.343 39.215 97.39 39.75 99.1 C 41.771 106.375 40.821 114.11 40.5 121.6 C 40.393 124.102 40.225 126.987 38.45 128.65 C 37.384 129.717 35.598 127.637 34.1 127.75 C 33.373 127.807 33.224 129.338 32.55 129.3 C 28.474 126.612 27.946 124.127 27.75 121.35 C 27.235 113.379 26.559 105.076 28.75 97.35 C 29.297 95.48 32.266 98.859 34.1 99.1 Z "/>
  <g id="ID0.4572075121104717">
    <path id="ID0.7623941171914339" fill="#FF99E5" stroke="#000000" stroke-width="1.9999999895126779" stroke-linecap="round" d="M 53.5851 45.6258 C 54.8191 46.6334 56.921 45.5304 58.1579 44.5749 C 60.9092 42.4468 63.1285 39.5145 64.8819 36.4808 C 66.8558 33.0663 68.4674 29.4244 69.1207 25.5902 C 69.297 24.5655 67.929 23.7477 67.0295 23.0824 C 66.1732 22.5631 64.9891 21.7235 64.0471 22.167 C 61.9668 23.1503 60.5985 25.0152 59.125 26.5525 C 57.8848 27.9217 56.7799 29.4211 55.9365 30.8532 C 54.2927 33.6365 52.0132 36.2553 51.5585 39.5182 C 51.261 41.6412 51.858 44.3654 53.5851 45.6258 Z "/>
    <path id="ID0.01313785370439291" fill="#FFCC77" stroke="#000000" stroke-width="1.5265486167984654" stroke-linecap="round" d="M 72.8332 10.4646 C 71.1442 11.7393 69.7362 15.6541 68.8308 15.2485 C 67.9246 14.8422 69.4005 11.0319 69.0326 8.9747 C 68.9401 8.459 67.8836 8.0101 67.54 8.4617 C 66.2955 10.3211 65.6823 14.6702 65.0767 14.7312 C 64.4723 14.7921 65.2527 10.4413 64.2927 8.633 C 63.9525 7.9931 62.6723 9.0694 62.4592 9.7455 C 61.8651 11.4378 62.0675 13.2838 62.0912 15.0896 C 62.1169 17.0532 61.7109 19.191 62.5433 20.969 C 63.1563 22.2754 64.7951 22.5054 65.8545 23.3566 C 66.8918 24.1878 67.6165 25.963 69.0412 26.1484 C 70.3505 26.2433 71.3755 24.8462 72.5126 24.0394 C 74.4396 22.6682 76.5824 21.4209 77.9824 19.5046 C 78.4569 18.9596 78.2716 17.6631 77.5639 17.4057 C 76.3067 16.9498 74.061 19.1467 73.5851 17.964 C 72.7048 15.7707 75.2433 12.9773 74.9096 10.4652 C 74.8032 9.6955 73.327 10.0215 72.8332 10.4646 Z "/>
  </g>
  <g id="ID0.4572075121104717">
    <path id="ID0.7623941171914339" fill="#FF99E5" stroke="#000000" stroke-width="1.999999933619851" stroke-linecap="round" d="M 30.7057 72.8371 C 29.5347 73.9172 27.3701 72.9427 26.078 72.0634 C 23.2035 70.1049 20.8116 67.3117 18.8786 64.3891 C 16.7027 61.0997 14.8747 57.5614 13.9916 53.7735 C 13.7539 52.7613 15.0702 51.8626 15.928 51.1443 C 16.7514 50.5744 17.8828 49.665 18.8498 50.0509 C 20.9856 50.9071 22.4637 52.6863 24.0271 54.1321 C 25.3475 55.4241 26.5407 56.8542 27.4688 58.2329 C 29.2773 60.9121 31.7104 63.3889 32.3608 66.6185 C 32.7857 68.7198 32.3539 71.4749 30.7057 72.8371 Z "/>
    <path id="ID0.01313785370439291" fill="#FFCC77" stroke="#000000" stroke-width="1.5265485741369065" stroke-linecap="round" d="M 9.3748 38.8991 C 11.1376 40.0697 12.7788 43.8925 13.6581 43.4332 C 14.5382 42.973 12.8354 39.2585 13.0788 37.1829 C 13.1401 36.6626 14.1676 36.1508 14.5378 36.581 C 15.8921 38.362 16.7661 42.6662 17.3742 42.6907 C 17.9812 42.7151 16.9402 38.4192 17.7895 36.5563 C 18.0905 35.8971 19.4333 36.8944 19.6867 37.5564 C 20.3816 39.2098 20.2907 41.0646 20.3759 42.8686 C 20.4685 44.8302 21.0026 46.9396 20.2787 48.7646 C 19.7455 50.1055 18.1235 50.4338 17.1174 51.3473 C 16.132 52.2394 15.5155 54.0551 14.1046 54.3259 C 12.8034 54.4995 11.6961 53.1667 10.5124 52.4298 C 8.5064 51.1772 6.2924 50.0612 4.7795 48.2327 C 4.273 47.7173 4.3799 46.4119 5.0708 46.1124 C 6.2983 45.5816 8.6722 47.6392 9.076 46.43 C 9.8226 44.1878 7.1204 41.5523 7.3023 39.0247 C 7.3621 38.25 8.8553 38.4864 9.3748 38.8991 Z "/>
  </g>
  <path id="ID0.10097399353981018" fill="#FF99E5" stroke="#000000" stroke-width="2" stroke-linecap="round" d="M 40.25 64.7 C 42.89 64.754 45.524 61.756 47.95 62.8 C 50.631 63.953 51.948 67.373 53 70.15 C 53.84 72.368 54.024 74.906 53.45 77.15 C 52.901 79.343 49.962 80.601 49.8 82.8 C 49.376 88.549 54.35 94.825 51.75 100 C 50.025 103.434 44.145 101.615 40.35 101.8 C 38.633 101.884 36.946 101.278 35.25 101 C 32.749 100.59 28.631 101.889 27.75 99.5 C 25.801 94.217 28.935 88.225 28.6 82.6 C 28.495 80.84 27.017 79.412 26.6 77.7 C 26.231 76.186 26.002 74.527 26.25 72.95 C 26.513 71.156 27.155 69.387 28.1 67.8 C 29.249 65.871 30.288 63.224 32.45 62.65 C 35.045 61.96 37.446 64.641 40.25 64.7 Z "/>
  <path id="ID0.9834481873549521" fill="#FFCC77" stroke="#000000" stroke-width="2" d="M 40.875 12.35 C 47.517 12.35 53.536 15.375 57.894 20.263 C 62.252 25.151 64.95 31.901 64.95 39.35 C 64.95 46.799 62.252 53.549 57.894 58.437 C 53.536 63.325 47.517 66.35 40.875 66.35 C 34.233 66.35 28.214 63.325 23.856 58.437 C 19.498 53.549 16.8 46.799 16.8 39.35 C 16.8 31.901 19.498 25.151 23.856 20.263 C 28.214 15.375 34.233 12.35 40.875 12.35 Z "/>
  <path id="ID0.32517488626763225" fill="#FFFFFF" stroke="#000000" stroke-width="2" d="M 32.825 22.4 C 35.122 22.4 37.203 23.515 38.71 25.316 C 40.217 27.117 41.15 29.605 41.15 32.35 C 41.15 35.095 40.217 37.583 38.71 39.384 C 37.203 41.185 35.122 42.3 32.825 42.3 C 30.528 42.3 28.447 41.185 26.94 39.384 C 25.433 37.583 24.5 35.095 24.5 32.35 C 24.5 29.605 25.433 27.117 26.94 25.316 C 28.447 23.515 30.528 22.4 32.825 22.4 Z "/>
  <path id="ID0.32517488626763225" fill="#FFFFFF" stroke="#000000" stroke-width="2" d="M 49.625 22.9 C 51.922 22.9 54.003 24.015 55.51 25.816 C 57.017 27.617 57.95 30.105 57.95 32.85 C 57.95 35.595 57.017 38.083 55.51 39.884 C 54.003 41.685 51.922 42.8 49.625 42.8 C 47.328 42.8 45.247 41.685 43.74 39.884 C 42.233 38.083 41.3 35.595 41.3 32.85 C 41.3 30.105 42.233 27.617 43.74 25.816 C 45.247 24.015 47.328 22.9 49.625 22.9 Z "/>
  <path id="ID0.3123384383507073" fill="#990072" stroke="none" d="M 34.675 26.5 C 35.785 26.5 36.792 27.184 37.52 28.288 C 38.249 29.392 38.7 30.917 38.7 32.6 C 38.7 34.283 38.249 35.808 37.52 36.912 C 36.792 38.016 35.785 38.7 34.675 38.7 C 33.565 38.7 32.558 38.016 31.83 36.912 C 31.101 35.808 30.65 34.283 30.65 32.6 C 30.65 30.917 31.101 29.392 31.83 28.288 C 32.558 27.184 33.565 26.5 34.675 26.5 Z " stroke-width="1"/>
  <path id="ID0.9945462001487613" fill="#000000" stroke="none" d="M 35.3 28.6557 C 35.962 28.6557 36.562 29.1734 36.997 30.0112 C 37.431 30.8489 37.7 32.0043 37.7 33.2807 C 37.7 34.557 37.431 35.7124 36.997 36.5502 C 36.562 37.3879 35.962 37.9057 35.3 37.9057 C 34.638 37.9057 34.038 37.3879 33.603 36.5502 C 33.169 35.7124 32.9 34.557 32.9 33.2807 C 32.9 32.0043 33.169 30.8489 33.603 30.0112 C 34.038 29.1734 34.638 28.6557 35.3 28.6557 Z " stroke-width="1.0848464076329243"/>
  <path id="ID0.7593508111312985" fill="#FFFFFF" stroke="none" d="M 36.325 28.1 C 36.842 28.1 37.311 28.397 37.65 28.877 C 37.99 29.356 38.2 30.019 38.2 30.75 C 38.2 31.481 37.99 32.144 37.65 32.623 C 37.311 33.103 36.842 33.4 36.325 33.4 C 35.808 33.4 35.339 33.103 35 32.623 C 34.66 32.144 34.45 31.481 34.45 30.75 C 34.45 30.019 34.66 29.356 35 28.877 C 35.339 28.397 35.808 28.1 36.325 28.1 Z " stroke-width="1"/>
  <path id="ID0.8557649310678244" fill="#FFFFFF" stroke="none" d="M 32.55 33.8 C 32.826 33.8 33.076 33.946 33.257 34.181 C 33.438 34.416 33.55 34.741 33.55 35.1 C 33.55 35.459 33.438 35.784 33.257 36.019 C 33.076 36.254 32.826 36.4 32.55 36.4 C 32.274 36.4 32.024 36.254 31.843 36.019 C 31.662 35.784 31.55 35.459 31.55 35.1 C 31.55 34.741 31.662 34.416 31.843 34.181 C 32.024 33.946 32.274 33.8 32.55 33.8 Z " stroke-width="1"/>
  <path id="ID0.3123384383507073" fill="#990072" stroke="none" d="M 47.725 27.1 C 46.615 27.1 45.608 27.784 44.88 28.888 C 44.151 29.992 43.7 31.517 43.7 33.2 C 43.7 34.883 44.151 36.408 44.88 37.512 C 45.608 38.616 46.615 39.3 47.725 39.3 C 48.835 39.3 49.842 38.616 50.57 37.512 C 51.299 36.408 51.75 34.883 51.75 33.2 C 51.75 31.517 51.299 29.992 50.57 28.888 C 49.842 27.784 48.835 27.1 47.725 27.1 Z " stroke-width="1"/>
  <path id="ID0.9945462001487613" fill="#000000" stroke="none" d="M 47.1 29.3557 C 46.438 29.3557 45.838 29.8734 45.403 30.7112 C 44.969 31.5489 44.7 32.7043 44.7 33.9807 C 44.7 35.257 44.969 36.4124 45.403 37.2502 C 45.838 38.0879 46.438 38.6057 47.1 38.6057 C 47.762 38.6057 48.362 38.0879 48.797 37.2502 C 49.231 36.4124 49.5 35.257 49.5 33.9807 C 49.5 32.7043 49.231 31.5489 48.797 30.7112 C 48.362 29.8734 47.762 29.3557 47.1 29.3557 Z " stroke-width="1.0848464076329243"/>
  <path id="ID0.7593508111312985" fill="#FFFFFF" stroke="none" d="M 46.125 28.6 C 45.608 28.6 45.139 28.897 44.8 29.377 C 44.46 29.856 44.25 30.519 44.25 31.25 C 44.25 31.981 44.46 32.644 44.8 33.123 C 45.139 33.603 45.608 33.9 46.125 33.9 C 46.642 33.9 47.111 33.603 47.45 33.123 C 47.79 32.644 48 31.981 48 31.25 C 48 30.519 47.79 29.856 47.45 29.377 C 47.111 28.897 46.642 28.6 46.125 28.6 Z " stroke-width="1"/>
  <path id="ID0.8557649310678244" fill="#FFFFFF" stroke="none" d="M 49.9 34.3 C 49.624 34.3 49.374 34.446 49.193 34.681 C 49.012 34.916 48.9 35.241 48.9 35.6 C 48.9 35.959 49.012 36.284 49.193 36.519 C 49.374 36.754 49.624 36.9 49.9 36.9 C 50.176 36.9 50.426 36.754 50.607 36.519 C 50.788 36.284 50.9 35.959 50.9 35.6 C 50.9 35.241 50.788 34.916 50.607 34.681 C 50.426 34.446 50.176 34.3 49.9 34.3 Z " stroke-width="1"/>
  <path id="ID0.21714129857718945" fill="none" stroke="#000000" stroke-width="2" stroke-linecap="round" d="M 27.3 52.1 C 27.3 52.1 27.98 53.859 28.4 54.7 C 28.714 55.328 29.084 55.934 29.5 56.5 C 29.919 57.07 30.33 57.681 30.9 58.1 C 31.488 58.533 32.178 58.892 32.9 59 C 34.217 59.198 35.583 59.201 36.9 59 C 37.592 58.894 38.8 58.1 38.8 58.1 "/>
  <path id="ID0.11013443116098642" fill="none" stroke="#000000" stroke-width="2" stroke-linecap="round" d="M 37.65 48 C 37.65 48 38.455 49.491 39.15 49.9 C 39.771 50.266 40.602 50.331 41.3 50.15 C 41.98 49.973 42.436 49.32 43 48.9 C 43.219 48.737 43.65 48.4 43.65 48.4 "/>
  <path id="ID0.09000997431576252" fill="#FFD005" stroke="#000000" stroke-width="2" stroke-linecap="round" d="M 24.3 6.5 C 29.148 3.189 35.214 1.682 41 1.35 C 45.968 1.049 51.29 1.963 55.65 4.35 C 59.403 6.404 63.36 9.682 64.3 13.85 C 66.609 23.999 66.627 44.114 65.15 45.1 C 63.673 46.086 62.389 24.874 54.8 20.2 C 46.501 15.143 33.996 16.108 25.8 21 C 19.111 24.994 17.776 43.273 16.8 42.6 C 15.824 41.927 16.732 24.917 18.5 16.35 C 19.284 12.522 21.127 8.539 24.3 6.5 Z "/>
  <g id="ID0.7511085895821452">
    <path id="ID0.9202246675267816" fill="#FFCC77" stroke="#000000" stroke-width="2" stroke-linecap="round" d="M 15.5 39.6 C 16.741 39.981 17.654 41.159 18.35 42.267 C 19.029 43.348 19.5 44.497 19.5 45.925 C 19.5 47.353 19.127 48.572 18.35 49.583 C 17.821 50.271 16.819 50.536 16 50.4 C 14.835 50.29 13.681 49.712 12.85 48.9 C 11.911 47.982 11.093 46.722 10.95 45.4 C 10.707 43.63 10.652 41.507 11.75 40.1 C 12.527 39.104 14.302 39.18 15.5 39.6 Z "/>
    <path id="ID0.32951963087543845" fill="#FFCC77" stroke="none" stroke-linecap="round" d="M 16.9 42.9 C 18.009 42.95 19.271 42.501 20.198 43.049 C 21.033 43.541 21.4 44.665 21.4 45.7 C 21.4 46.735 20.941 47.672 20.198 48.351 C 19.456 49.03 18.431 49.45 17.3 49.45 C 16.169 49.45 15.144 49.03 14.402 48.351 C 13.659 47.672 13.2 46.735 13.2 45.7 C 13.2 44.665 13.606 43.6 14.402 43.049 C 15.108 42.562 16.076 42.95 16.9 42.9 Z " stroke-width="1"/>
    <path id="ID0.32951963087543845" fill="#FFCC77" stroke="none" stroke-linecap="round" d="M 20.05 40.1 C 21.383 39.937 22.706 40.949 23.648 41.799 C 24.369 42.449 24.85 43.415 24.85 44.45 C 24.85 45.485 24.391 46.422 23.648 47.101 C 22.906 47.78 21.881 48.2 20.75 48.2 C 19.619 48.2 18.594 47.78 17.852 47.101 C 17.109 46.422 16.891 45.388 16.65 44.45 C 16.525 43.968 16.349 43.223 16.7 42.8 C 17.624 41.698 18.662 40.329 20.05 40.1 Z " stroke-width="1"/>
    <path id="ID0.08531287917867303" fill="none" stroke="#000000" stroke-width="1" stroke-linecap="round" d="M 12.95 42.35 C 12.95 42.35 14.257 41.517 14.95 41.65 C 15.658 41.786 16.113 42.519 16.6 43.05 C 17.053 43.543 17.75 44.7 17.75 44.7 "/>
    <path id="ID0.08531287917867303" fill="none" stroke="#000000" stroke-width="1.0000000242889973" stroke-linecap="round" d="M 13.4722 46.671 C 13.4722 46.671 13.8754 45.0286 14.5058 44.6501 C 15.3442 44.1747 17.3391 44.4217 17.3391 44.4217 "/>
  </g>
  <g id="ID0.7511085895821452">
    <path id="ID0.9202246675267816" fill="#FFCC77" stroke="#000000" stroke-width="2" stroke-linecap="round" d="M 65.15 40.2 C 63.909 40.581 62.996 41.759 62.3 42.867 C 61.621 43.948 61.15 45.097 61.15 46.525 C 61.15 47.953 61.523 49.172 62.3 50.183 C 62.829 50.871 63.831 51.136 64.65 51 C 65.815 50.89 66.969 50.312 67.8 49.5 C 68.739 48.582 69.557 47.322 69.7 46 C 69.943 44.23 69.998 42.107 68.9 40.7 C 68.123 39.704 66.348 39.78 65.15 40.2 Z "/>
    <path id="ID0.32951963087543845" fill="#FFCC77" stroke="none" stroke-linecap="round" d="M 63.75 43.5 C 62.641 43.55 61.379 43.101 60.452 43.649 C 59.617 44.141 59.25 45.265 59.25 46.3 C 59.25 47.335 59.709 48.272 60.452 48.951 C 61.194 49.63 62.219 50.05 63.35 50.05 C 64.481 50.05 65.506 49.63 66.248 48.951 C 66.991 48.272 67.45 47.335 67.45 46.3 C 67.45 45.265 67.044 44.2 66.248 43.649 C 65.542 43.162 64.574 43.55 63.75 43.5 Z " stroke-width="1"/>
    <path id="ID0.32951963087543845" fill="#FFCC77" stroke="none" stroke-linecap="round" d="M 60.6 40.7 C 59.267 40.537 57.944 41.549 57.002 42.399 C 56.281 43.049 55.8 44.015 55.8 45.05 C 55.8 46.085 56.259 47.022 57.002 47.701 C 57.744 48.38 58.769 48.8 59.9 48.8 C 61.031 48.8 62.056 48.38 62.798 47.701 C 63.541 47.022 63.759 45.988 64 45.05 C 64.125 44.568 64.301 43.823 63.95 43.4 C 63.026 42.298 61.988 40.929 60.6 40.7 Z " stroke-width="1"/>
    <path id="ID0.08531287917867303" fill="none" stroke="#000000" stroke-width="1" stroke-linecap="round" d="M 67.7 42.95 C 67.7 42.95 66.393 42.117 65.7 42.25 C 64.992 42.386 64.537 43.119 64.05 43.65 C 63.597 44.143 62.9 45.3 62.9 45.3 "/>
    <path id="ID0.08531287917867303" fill="none" stroke="#000000" stroke-width="1.0000000242889973" stroke-linecap="round" d="M 67.1778 47.271 C 67.1778 47.271 66.7746 45.6286 66.1442 45.2501 C 65.3058 44.7747 63.3109 45.0217 63.3109 45.0217 "/>
  </g>
  <path id="ID0.14617311488837004" fill="none" stroke="#000000" stroke-width="1.2028985023498535" stroke-linecap="round" d="M 21.1239 28.5649 L 22.2667 30.0985 L 24.071 31.7525 "/>
  <path id="ID0.14617311488837004" fill="none" stroke="#000000" stroke-width="1.2028985023498535" stroke-linecap="round" d="M 21.2739 25.8649 L 22.4167 27.3985 L 24.221 29.0525 "/>
  <path id="ID0.14617311488837004" fill="none" stroke="#000000" stroke-width="1.2028985023498535" stroke-linecap="round" d="M 60.9261 27.1649 L 59.7833 28.6985 L 57.979 30.3525 "/>
  <path id="ID0.14617311488837004" fill="none" stroke="#000000" stroke-width="1.2028985023498535" stroke-linecap="round" d="M 61.1761 29.8649 L 60.0333 31.3985 L 58.229 33.0525 "/>
  <path id="ID0.2650244985707104" fill="none" stroke="#000000" stroke-width="2" stroke-linecap="round" d="M 32.1 81.9 C 32.1 81.9 33.563 81.585 34.25 81.3 C 34.939 81.014 36.2 80.2 36.2 80.2 "/>
  <path id="ID0.19685576995834708" fill="none" stroke="#000000" stroke-width="2" stroke-linecap="round" d="M 41.75 79.95 C 41.75 79.95 42.59 81.196 43.2 81.6 C 43.767 81.975 44.489 82.045 45.15 82.2 C 45.558 82.296 46.4 82.35 46.4 82.35 "/>
  <path id="ID0.2428300273604691" fill="#CC99FF" stroke="#000000" stroke-width="2" stroke-linecap="round" d="M 33.45 110.8 C 35.492 110.8 37.342 112.016 38.681 113.98 C 40.021 115.944 40.85 118.657 40.85 121.65 C 40.85 124.643 40.385 127.286 38.681 129.32 C 37.514 130.715 35.17 130.394 33.35 130.35 C 31.612 130.394 29.343 130.69 28.219 129.32 C 26.534 127.27 26.05 124.643 26.05 121.65 C 26.05 118.657 26.879 115.944 28.219 113.98 C 29.558 112.016 31.408 110.8 33.45 110.8 Z "/>
  <path id="ID0.14829418063163757" fill="none" stroke="#000000" stroke-width="2" stroke-linecap="round" d="M 30.2 116.9 L 36.7 116.85 "/>
  <path id="ID0.9607163220643997" fill="none" stroke="#000000" stroke-width="2" stroke-linecap="round" d="M 29.95 119.9 L 37.05 119.7 "/>
  <path id="ID0.8774734698235989" fill="none" stroke="#000000" stroke-width="2" stroke-linecap="round" d="M 29.6 123.25 L 37.6 122.95 "/>
  <path id="ID0.36911141220480204" fill="none" stroke="#000000" stroke-width="2" stroke-linecap="round" d="M 29.9 126.25 L 37.25 126.1 "/>
</svg>