<svg version="1.1" xmlns="http://www.w3.org/2000/svg" xmlns:xlink="http://www.w3.org/1999/xlink" width="38.1507" height="67.66962" viewBox="0,0,38.1507,67.66962"><g transform="translate(-225.41365,-146.16519)"><g stroke="#000000" stroke-width="4" stroke-miterlimit="10"><path d="M229.91365,211.83481c-1.38071,0 -2.5,-1.11929 -2.5,-2.5v-58.66962c0,-1.38071 1.11929,-2.5 2.5,-2.5h8.52979c1.38071,0 2.5,1.11929 2.5,2.5v58.66962c0,1.38071 -1.11929,2.5 -2.5,2.5z" fill="#ffd600"/><path d="M250.53456,211.83481c-1.38071,0 -2.5,-1.11929 -2.5,-2.5v-58.66962c0,-1.38071 1.11929,-2.5 2.5,-2.5h8.52979c1.38071,0 2.5,1.11929 2.5,2.5v58.66962c0,1.38071 -1.11929,2.5 -2.5,2.5z" fill="#ffd600"/></g></g></svg>