<svg version="1.1" xmlns="http://www.w3.org/2000/svg" xmlns:xlink="http://www.w3.org/1999/xlink" width="86.53871" height="158.73005" viewBox="0,0,86.53871,158.73005"><g transform="translate(-203.08406,-92.96243)"><g stroke-miterlimit="10"><g stroke-linecap="round"><path d="M276.1711,147.1506c0.9281,1.5244 0.6281,3.6269 0.1822,5.3569c-0.2948,1.2966 -1.253,2.4537 -2.2918,3.257c-0.9192,0.7105 -2.1323,1.1513 -3.3022,1.1259c-0.8292,0.0405 -1.7939,-0.3386 -2.2398,-1.0831c-0.655,-1.094 -0.8846,-2.3479 -0.7196,-3.7664c0.165,-1.4184 0.7657,-2.5053 1.565,-3.5006c0.8194,-1.0201 1.8624,-2.0847 3.1391,-2.3197c1.2386,-0.2788 3.0104,-0.1491 3.6671,0.93z" fill="#ffcc77" stroke="#000000" stroke-width="2"/><path d="M273.1961,149.7733c0.727,0.6393 1.0072,1.7441 0.8876,2.7722c-0.1196,1.0281 -0.6838,1.9057 -1.5003,2.4943c-0.8155,0.5887 -1.8822,0.8875 -3.0056,0.7567c-1.1234,-0.1307 -2.093,-0.6663 -2.7516,-1.4265c-0.6595,-0.7603 -1.0072,-1.7441 -0.8876,-2.7721c0.1196,-1.0281 0.6141,-2.1022 1.5003,-2.4944c0.9842,-0.4372 2.1858,0.1547 3.2932,0.2332c0.8127,0.1448 1.819,-0.1287 2.464,0.4366z" fill="#ffcc77" stroke="none" stroke-width="1"/><path d="M270.9423,149.2604c0.2997,0.4608 0.0388,1.1804 -0.141,1.6448c-0.3478,0.9038 -0.6838,1.9057 -1.5003,2.4943c-0.8155,0.5887 -1.8822,0.8874 -3.0056,0.7567c-1.1234,-0.1307 -2.093,-0.6663 -2.7516,-1.4265c-0.6596,-0.7603 -1.0072,-1.7441 -0.8876,-2.7722c0.1196,-1.028 0.709,-1.932 1.5003,-2.4943c1.0339,-0.7354 2.465,-1.5878 3.7703,-1.2718c1.3522,0.3879 2.225,1.8676 3.0155,3.069z" fill="#ffcc77" stroke="none" stroke-width="1"/><path d="M269.6797,151.0264c0,0 0.8261,-1.0687 1.333,-1.5061c0.5451,-0.4711 1.0818,-1.1466 1.8008,-1.1999c0.7037,-0.052 1.9057,0.9264 1.9057,0.9264" fill="none" stroke="#000000" stroke-width="1"/><path d="M270.12,150.7974c0,0 2.0101,-0.0148 2.788,0.5543c0.5824,0.4488 0.7931,2.1268 0.7931,2.1268" fill="none" stroke="#000000" stroke-width="1"/></g><g stroke="#000000" stroke-width="2" stroke-linecap="round"><path d="M249.4196,201.0046c1.4175,7.9148 -0.5688,16.1272 -1.3652,23.982c-0.4767,4.7019 -0.3344,9.7594 -2.4863,13.9732c-0.7954,1.7241 -3.4388,1.9231 -5.3561,1.8321c-1.5687,-0.0706 -3.7345,-0.6876 -4.1568,-2.1693c-1.3727,-4.7078 -1.0221,-9.7699 -0.7136,-14.6412c0.4668,-7.3668 0.2325,-15.2761 2.9592,-22.3171c0.7006,-1.6491 3.7438,0.6141 5.6226,0.5556c1.8488,-0.0594 5.134,-3.1121 5.4962,-1.2153z" fill="#294765"/><path d="M246.5075,239.3626c1.2183,1.2771 1.6226,3.0735 1.7389,4.7541c0.0614,0.8833 -0.7907,1.6151 -1.4253,2.2206c-1.7685,1.6973 -3.3543,4.5451 -5.8557,4.3452c-2.7516,-0.0278 -4.8286,-2.7844 -6.8018,-4.8927c-0.7439,-0.79 -1.129,-2.0891 -0.8445,-3.1483c0.4391,-1.6267 1.1911,-3.3079 2.6358,-4.3217c1.4835,-1.0402 3.4998,-1.5534 5.4622,-1.3594c1.9624,0.1939 3.8392,1.0918 5.0904,2.4022z" fill="#ffff00"/></g><g stroke="#000000" stroke-width="2" stroke-linecap="round"><path d="M233.9294,201.7355c1.6623,0.8777 5.3903,0.1809 5.2954,1.9701c-0.6425,7.5231 -4.3266,14.5261 -7.1426,21.3494c-1.8621,4.5119 -3.7703,9.2136 -7.071,12.8403c-1.0302,1.1457 -3.2469,0.7488 -4.6872,0.1234c-1.7625,-0.7603 -4.05,-2.1 -4.0074,-3.9983c-0.0826,-4.7307 2.2664,-9.2119 3.903,-13.6455c2.7342,-7.4065 4.5564,-15.6569 9.3058,-22.145c1.1584,-1.545 2.7692,2.6403 4.404,3.5056z" fill="#294765"/><path d="M220.9264,234.0972c1.9392,0.7214 3.4444,2.0528 4.3102,3.6201c0.8655,1.5682 0.79,3.386 0.4701,5.0402c-0.2095,1.0765 -1.0687,2.3104 -2.1414,2.4576c-2.7851,0.368 -5.8758,0.6083 -8.4982,-0.3875c-1.658,-0.8719 -2.2511,-3.1208 -3.1137,-4.6795c-0.4247,-0.7629 -0.7425,-1.8531 -0.3053,-2.6209c0.8339,-1.4641 1.97,-2.8862 3.6501,-3.5074c1.6797,-0.6202 3.6891,-0.6441 5.6282,0.0774z" fill="#ffff00"/></g><g stroke="#000000" stroke-linecap="round"><path d="M254.1046,165.7549c2.0352,-2.5907 5.323,-3.7063 8.1443,-5.284c1.4496,-0.8129 3.159,-1.5525 4.9198,-2.1114c2.047,-0.5867 4.168,-1.5096 6.4605,-1.3122c1.0372,0.0909 1.6378,1.4123 2.1163,2.2921c0.4424,1.0276 1.2129,2.4228 0.5449,3.2195c-2.4944,2.9843 -5.72,5.3202 -9.1442,7.2772c-3.0421,1.7389 -6.4356,3.1557 -9.8841,3.6098c-1.5497,0.2031 -3.9212,0.0983 -4.4803,-1.3934c-0.8581,-1.9584 -0.0028,-4.6129 1.3228,-6.2976z" fill="#7f00ff" stroke-width="2"/><path d="M288.8595,152.381c-0.9759,2.3387 -4.5755,3.4749 -4.9187,5.8131c-0.184,1.2615 2.8622,0.4935 3.7191,1.5202c0.482,0.5786 -0.0105,1.7922 -0.6948,2.0243c-2.1743,0.9513 -4.6536,0.9505 -7.0089,1.1655c-1.3886,0.1249 -2.9776,0.8162 -4.0611,0.0752c-1.1378,-0.8772 -0.8706,-2.776 -1.3486,-4.0163c-0.4869,-1.2687 -1.7873,-2.2923 -1.6595,-3.7297c0.1756,-1.9554 1.6025,-3.5983 2.5686,-5.3079c0.8884,-1.5724 1.6426,-3.2694 3.0078,-4.4327c0.5243,-0.477 2.1723,-0.7626 2.1442,-0.0385c-0.0806,2.0457 -2.9448,5.4125 -2.3919,5.6641c0.554,0.252 3.2729,-3.1974 5.2841,-4.1776c0.5242,-0.2174 1.2112,0.7023 1.0316,1.1944c-0.7175,1.9629 -3.9106,4.5125 -3.3321,5.3197c0.5782,0.8061 3.7652,-1.868 5.8663,-2.1193c0.6497,-0.1344 2.0893,0.3269 1.7939,1.0455z" fill="#ffcc77" stroke-width="1.52655"/></g><g stroke="#000000" stroke-linecap="round"><path d="M236.2696,169.9348c-0.7895,1.3837 -3.1474,1.1096 -4.645,0.6623c-3.3323,-0.9974 -6.4569,-2.9363 -9.1834,-5.1374c-3.0689,-2.4772 -5.8815,-5.2969 -7.8689,-8.6402c-0.5327,-0.8929 0.4501,-2.1476 1.0505,-3.0917c0.6125,-0.7924 1.4158,-2.0013 2.4542,-1.9259c2.2947,0.1701 4.2418,1.4189 6.1692,2.324c1.6494,0.8322 3.2192,1.8344 4.5209,2.8678c2.5341,2.0067 5.6024,3.6315 7.1992,6.5132c1.0405,1.8743 1.4622,4.6311 0.3033,6.4279z" fill="#7f00ff" stroke-width="2"/><path d="M205.7647,144.0186c2.0342,0.5826 4.7548,3.73 5.454,3.0262c0.6997,-0.7048 -2.0468,-3.7303 -2.4426,-5.7823c-0.099,-0.5145 0.7256,-1.313 1.2085,-1.015c1.8296,1.2879 3.9645,5.1262 4.5516,4.9657c0.586,-0.1604 -1.7057,-3.9403 -1.4596,-5.9727c0.0876,-0.7194 1.6691,-0.175 2.1108,0.3794c1.1625,1.3657 1.6369,3.1612 2.2637,4.8549c0.6816,1.8417 1.8287,3.6908 1.6907,5.6492c-0.1027,1.4394 -1.5494,2.2429 -2.2321,3.418c-0.6694,1.1483 -0.7078,3.0654 -1.9708,3.7503c-1.1877,0.5591 -2.6463,-0.3765 -3.9974,-0.7208c-2.291,-0.5872 -4.7388,-0.9812 -6.7339,-2.2665c-0.6386,-0.3381 -0.9316,-1.6146 -0.3636,-2.1091c1.0094,-0.8772 3.8945,0.366 3.9137,-0.9087c0.0334,-2.363 -3.3394,-4.0578 -3.9305,-6.522c-0.1773,-0.7565 1.3174,-0.9828 1.9375,-0.7466z" fill="#ffcc77" stroke-width="1.52655"/></g><path d="M244.8745,167.7589c2.6161,0.3587 5.6292,-2.4529 7.868,-0.9974c2.2389,1.2209 2.2335,4.616 2.4863,7.1855c0.4225,4.2946 0.1625,8.5108 -0.2492,12.958c-0.5443,5.803 0.8913,12.7867 -2.7616,17.2464c-2.4278,3.077 -7.7406,0.7253 -11.5316,0.4705c-1.7152,-0.115 -3.3209,-0.9119 -4.9734,-1.384c-2.4368,-0.6963 -6.5892,0.1646 -7.2764,-2.3567c-1.5828,-5.4585 0.7379,-11.4736 1.7394,-17.1136c0.8023,-4.5166 2.3508,-8.9483 3.9117,-13.287c0.7432,-2.07 1.0917,-5.1866 3.276,-5.6593c2.5661,-0.7264 4.7324,2.555 7.5108,2.9376z" fill="#7f00ff" stroke="#000000" stroke-width="2" stroke-linecap="round"/><path d="M251.577,115.8221c6.5975,0.7676 12.2266,4.4679 15.9905,9.8268c3.7639,5.3588 5.6638,12.3754 4.803,19.7745c-0.8609,7.3991 -4.3208,13.7921 -9.2145,18.1437c-4.8937,4.3516 -11.222,6.6608 -17.8195,5.8932c-6.5975,-0.7676 -12.2265,-4.4679 -15.9905,-9.8268c-3.7639,-5.3589 -5.6638,-12.3754 -4.8029,-19.7745c0.8608,-7.3991 4.3208,-13.7921 9.2145,-18.1437c4.8936,-4.3516 11.2219,-6.6608 17.8194,-5.8932z" fill="#ffcc77" stroke="#000000" stroke-width="2" stroke-linecap="butt"/><path d="M256.0377,153.1756c0,0 -0.4671,0.2849 -0.7035,0.4215c-0.6087,0.3521 -1.1371,0.948 -1.833,1.0452c-0.7143,0.0991 -1.5322,-0.0615 -2.1067,-0.4968c-0.6431,-0.4865 -1.2704,-2.0606 -1.2704,-2.0606" fill="none" stroke="#000000" stroke-width="2" stroke-linecap="round"/><path d="M237.3757,116.3501c5.052,0.5264 8.9819,-19.7614 13.113,-20.1194c3.379,-0.2894 -1.0217,17.7378 2.2788,18.4872c3.306,0.8749 7.1545,-16.7494 10.9343,-15.2385c4.5639,1.8317 1.5615,20.0146 5.8579,21.4709c3.5794,1.3728 9.5685,-17.0324 9.8937,-15.8126c0.3262,1.2198 -2.8772,17.1242 -7.8475,23.7522c-1.5952,2.2196 -4.3703,-3.1491 -7.0765,-3.6422c-9.5056,-1.723 -20.1917,-6.4687 -28.8981,-2.5567c-7.1058,3.1943 -10.6005,24.9854 -11.4359,20.4152c-1.5207,-8.3285 2.4985,-40.4432 6.5185,-48.6728c2.072,-4.2409 1.8264,21.5444 6.6618,21.9167z" fill="#8d3b3b" stroke="#000000" stroke-width="2" stroke-linecap="round"/><g stroke-linecap="round"><path d="M223.256,139.8868c1.1887,0.5219 1.9594,1.7975 2.5227,2.9785c0.5496,1.1522 0.8846,2.348 0.7196,3.7664c-0.165,1.4184 -0.6764,2.5862 -1.565,3.5006c-0.605,0.6223 -1.6309,0.7697 -2.4287,0.5399c-1.1445,-0.2438 -2.224,-0.9513 -2.9555,-1.8539c-0.8267,-1.0204 -1.4936,-2.3665 -1.4828,-3.6961c-0.0369,-1.7863 0.1538,-3.9014 1.4071,-5.1721c0.8869,-0.8995 2.6412,-0.6189 3.7826,-0.0633z" fill="#ffcc77" stroke="#000000" stroke-width="2"/><path d="M224.2653,143.3265c1.0958,0.1778 2.4012,-0.1223 3.2587,0.5291c0.7725,0.5852 1.0072,1.7441 0.8876,2.7722c-0.1196,1.0281 -0.6838,1.9057 -1.5003,2.4943c-0.8155,0.5887 -1.8822,0.8875 -3.0056,0.7567c-1.1234,-0.1307 -2.093,-0.6663 -2.7516,-1.4265c-0.6596,-0.7603 -1.0072,-1.7441 -0.8876,-2.7721c0.1196,-1.0281 0.646,-2.0391 1.5003,-2.4944c0.7576,-0.4021 1.6742,0.0951 2.4985,0.1407z" fill="#ffcc77" stroke="none" stroke-width="1"/><path d="M227.7178,140.9093c1.3429,-0.0079 2.5401,1.1502 3.3775,2.1034c0.6411,0.729 1.0072,1.7441 0.8876,2.7722c-0.1196,1.028 -0.6838,1.9057 -1.5003,2.4943c-0.8155,0.5887 -1.8822,0.8874 -3.0056,0.7567c-1.1234,-0.1307 -2.093,-0.6663 -2.7516,-1.4265c-0.6595,-0.7603 -0.7566,-1.8126 -0.8876,-2.7722c-0.0684,-0.4932 -0.1571,-1.2535 0.2404,-1.6331c1.0452,-0.9879 2.2344,-2.2277 3.6396,-2.2948z" fill="#ffcc77" stroke="none" stroke-width="1"/><path d="M220.4053,142.3237c0,0 1.3945,-0.6764 2.0675,-0.4642c0.6876,0.2169 1.0548,0.9976 1.4772,1.5813c0.393,0.5421 0.9516,1.7719 0.9516,1.7719" fill="none" stroke="#000000" stroke-width="1"/><path d="M220.4247,146.6761c0,0 0.5903,-1.5848 1.2602,-1.8879c0.8878,-0.3753 2.8407,0.1006 2.8407,0.1006" fill="none" stroke="#000000" stroke-width="1"/></g><path d="M264.6899,130.9988c2.2816,0.2655 4.2198,1.6135 5.5085,3.5766c1.2888,1.9631 1.928,4.5422 1.6108,7.2688c-0.3172,2.7266 -1.5315,5.0902 -3.2365,6.7049c-1.7051,1.6148 -3.901,2.4819 -6.1826,2.2164c-2.2816,-0.2654 -4.2198,-1.6135 -5.5086,-3.5766c-1.2887,-1.963 -1.928,-4.5422 -1.6107,-7.2688c0.3172,-2.7266 1.5315,-5.0901 3.2365,-6.7049c1.705,-1.6148 3.9009,-2.4818 6.1826,-2.2164z" fill="#ffffff" stroke="#000000" stroke-width="2" stroke-linecap="butt"/><path d="M248.0399,128.5988c2.2816,0.2655 4.2198,1.6135 5.5085,3.5766c1.2888,1.9631 1.928,4.5422 1.6108,7.2688c-0.3172,2.7266 -1.5315,5.0902 -3.2365,6.7049c-1.7051,1.6148 -3.901,2.4819 -6.1826,2.2164c-2.2816,-0.2654 -4.2198,-1.6135 -5.5086,-3.5766c-1.2887,-1.963 -1.928,-4.5422 -1.6107,-7.2688c0.3172,-2.7266 1.5315,-5.0901 3.2365,-6.7049c1.705,-1.6148 3.9009,-2.4818 6.1826,-2.2164z" fill="#ffffff" stroke="#000000" stroke-width="2" stroke-linecap="butt"/><g stroke-linecap="round"><path d="M233.0355,157.9379l4.8339,-2.6088l8.1588,2.56l-3.2633,6.4158l-1.49,-0.1733z" fill="#3d0101" stroke="none" stroke-width="1"/><path d="M234.7635,156.9309c0.6521,0.0104 1.1789,0.2076 1.6481,0.5441c0.5314,0.382 0.9834,0.9973 1.267,1.6575c0.2528,0.5267 0.7157,1.4977 0.2944,1.7961c-0.4845,0.3392 -1.4788,-0.304 -2.1391,-0.6516c-0.6726,-0.3622 -1.3289,-0.8654 -1.8975,-1.4289c-0.1469,-0.1832 -0.2428,-0.4833 -0.1675,-0.7242c0.0904,-0.2834 0.4737,-0.3848 0.6886,-0.5964c0.1829,-0.171 0.0838,-0.5993 0.306,-0.5966z" fill="#ff9999" stroke="none" stroke-width="1"/><path d="M242.144,164.1663l-9.1798,-5.124c-0.7512,-0.8026 0.8163,-2.0928 1.6325,-2.7413c0.7861,-0.6116 1.9052,-0.6624 2.8318,-0.7704c0.9436,-0.1094 1.913,-0.0645 2.8528,0.0793c0.7671,0.116 1.592,0.3426 2.3179,0.6927c0.9405,0.4508 3.0974,1.8738 3.0974,1.8738" fill="none" stroke="#000000" stroke-width="2"/></g><g stroke="none" stroke-linecap="butt"><path d="M265.2395,138.8237c0.8097,0.0942 1.4862,0.6786 1.9236,1.5457c0.438,0.8672 0.6376,2.0179 0.4948,3.2455c-0.1429,1.2277 -0.6013,2.3019 -1.2267,3.0453c-0.6248,0.7435 -1.4174,1.157 -2.2271,1.0628c-0.8097,-0.0942 -1.4862,-0.6786 -1.9235,-1.5457c-0.4381,-0.8672 -0.6377,-2.0179 -0.4948,-3.2455c0.1428,-1.2277 0.6012,-2.3019 1.2267,-3.0453c0.6247,-0.7435 1.4173,-1.157 2.227,-1.0628z" fill="#4c0099" stroke-width="0.73438"/><path d="M265.4808,140.4777c0.4829,0.0562 0.8767,0.4848 1.1229,1.1328c0.2455,0.648 0.3436,1.5136 0.2353,2.4447c-0.1083,0.931 -0.4026,1.751 -0.7903,2.3252c-0.3884,0.5742 -0.87,0.901 -1.3529,0.8448c-0.4829,-0.0562 -0.8766,-0.4848 -1.1228,-1.1328c-0.2455,-0.6479 -0.3437,-1.5135 -0.2354,-2.4446c0.1083,-0.9311 0.4026,-1.751 0.7903,-2.3253c0.3884,-0.5742 0.87,-0.9009 1.3529,-0.8448z" fill="#000000" stroke-width="0.79668"/><path d="M266.258,140.0748c0.3771,0.0438 0.694,0.3003 0.9006,0.6792c0.2073,0.3783 0.3043,0.8797 0.2422,1.4129c-0.062,0.5333 -0.2715,0.9991 -0.5601,1.3196c-0.2881,0.3214 -0.6554,0.4982 -1.0325,0.4544c-0.3771,-0.0439 -0.694,-0.3004 -0.9006,-0.6793c-0.2074,-0.3782 -0.3043,-0.8797 -0.2422,-1.4129c0.062,-0.5332 0.2715,-0.999 0.5601,-1.3196c0.288,-0.3214 0.6554,-0.4982 1.0325,-0.4543z" fill="#ffffff" stroke-width="0.73438"/><path d="M263.0206,143.9123c0.2013,0.0234 0.3713,0.1511 0.4833,0.3379c0.1121,0.1868 0.1663,0.4334 0.1358,0.6952c-0.0305,0.2619 -0.1398,0.4895 -0.2917,0.6455c-0.152,0.1561 -0.3468,0.2414 -0.5481,0.218c-0.2013,-0.0235 -0.3713,-0.1512 -0.4834,-0.338c-0.1121,-0.1867 -0.1662,-0.4333 -0.1357,-0.6952c0.0304,-0.2619 0.1397,-0.4894 0.2917,-0.6455c0.152,-0.1561 0.3467,-0.2413 0.5481,-0.2179z" fill="#ffffff" stroke-width="0.73438"/></g><g stroke="none" stroke-linecap="butt"><path d="M250.6634,136.4735c0.8097,0.0942 1.4862,0.6786 1.9236,1.5457c0.4381,0.8672 0.6376,2.0178 0.4948,3.2455c-0.1428,1.2277 -0.6012,2.3018 -1.2267,3.0453c-0.6247,0.7435 -1.4174,1.157 -2.2271,1.0628c-0.8096,-0.0942 -1.4862,-0.6786 -1.9235,-1.5457c-0.4381,-0.8672 -0.6376,-2.0179 -0.4948,-3.2456c0.1428,-1.2276 0.6012,-2.3018 1.2267,-3.0452c0.6247,-0.7436 1.4173,-1.1571 2.227,-1.0628z" fill="#4c0099" stroke-width="0.73437"/><path d="M250.8666,138.0224c0.4829,0.0562 0.8767,0.4848 1.1229,1.1328c0.2455,0.6479 0.3436,1.5136 0.2353,2.4446c-0.1083,0.9311 -0.4026,1.7511 -0.7903,2.3253c-0.3884,0.5742 -0.87,0.9009 -1.3529,0.8448c-0.4829,-0.0562 -0.8766,-0.4848 -1.1228,-1.1328c-0.2455,-0.648 -0.3437,-1.5136 -0.2354,-2.4446c0.1084,-0.9311 0.4026,-1.7511 0.7903,-2.3253c0.3884,-0.5742 0.87,-0.901 1.3529,-0.8448z" fill="#000000" stroke-width="0.79668"/><path d="M251.7258,137.78c0.3771,0.0439 0.694,0.3003 0.9006,0.6792c0.2074,0.3783 0.3043,0.8797 0.2422,1.413c-0.062,0.5332 -0.2715,0.999 -0.5601,1.3196c-0.288,0.3213 -0.6554,0.4982 -1.0325,0.4543c-0.3771,-0.0439 -0.694,-0.3003 -0.9006,-0.6792c-0.2073,-0.3783 -0.3043,-0.8798 -0.2422,-1.413c0.062,-0.5332 0.2715,-0.999 0.5601,-1.3196c0.2881,-0.3214 0.6554,-0.4982 1.0325,-0.4543z" fill="#ffffff" stroke-width="0.73437"/><path d="M248.4884,141.6175c0.2013,0.0234 0.3713,0.1511 0.4834,0.3379c0.1121,0.1868 0.1662,0.4334 0.1357,0.6953c-0.0305,0.2618 -0.1397,0.4894 -0.2917,0.6455c-0.152,0.156 -0.3468,0.2413 -0.5481,0.2179c-0.2013,-0.0234 -0.3713,-0.1512 -0.4834,-0.3379c-0.1121,-0.1868 -0.1662,-0.4334 -0.1357,-0.6953c0.0305,-0.2619 0.1397,-0.4894 0.2917,-0.6455c0.152,-0.156 0.3467,-0.2413 0.5481,-0.2179z" fill="#ffffff" stroke-width="0.73437"/></g></g></g></svg>