<svg xmlns="http://www.w3.org/2000/svg" xmlns:xlink="http://www.w3.org/1999/xlink" version="1.1" width="87.35791780172949" height="158.73005677878027" viewBox="4.541024200026368 0.9624318996113288 87.35791780172949 158.73005677878027">
  <!-- Exported by Scratch - http://scratch.mit.edu/ -->
  <g id="ID0.7511085895821452">
    <path id="ID0.9202246675267816" fill="#FFCC77" stroke="#000000" stroke-width="1.999999968315121" stroke-linecap="round" d="M 74.504 54.2206 C 73.2273 54.4556 72.1843 55.5202 71.3649 56.5403 C 70.5656 57.5356 69.9649 58.6225 69.7999 60.0409 C 69.6349 61.4594 69.8645 62.7133 70.5195 63.8073 C 70.9654 64.5518 71.9301 64.9309 72.7593 64.8904 C 73.9292 64.9158 75.1423 64.475 76.0615 63.7645 C 77.1003 62.9612 78.0585 61.8041 78.3533 60.5075 C 78.7992 58.7775 79.0992 56.675 78.1711 55.1506 C 77.5144 54.0715 75.7426 53.9418 74.504 54.2206 Z "/>
    <path id="ID0.32951963087543845" fill="#FFCC77" stroke="none" stroke-linecap="round" d="M 72.7321 57.3367 C 71.6247 57.2582 70.4231 56.6663 69.4389 57.1035 C 68.5527 57.4957 68.0582 58.5698 67.9386 59.5979 C 67.819 60.6259 68.1667 61.6097 68.8262 62.37 C 69.4848 63.1302 70.4544 63.6658 71.5778 63.7965 C 72.7012 63.9273 73.7679 63.6285 74.5834 63.0398 C 75.3999 62.4512 75.9641 61.5736 76.0837 60.5455 C 76.2033 59.5174 75.9231 58.4126 75.1961 57.7733 C 74.5511 57.208 73.5448 57.4815 72.7321 57.3367 Z " stroke-width="0.9999999841575605"/>
    <path id="ID0.32951963087543845" fill="#FFCC77" stroke="none" stroke-linecap="round" d="M 69.9268 54.1914 C 68.6215 53.8754 67.1904 54.7278 66.1565 55.4632 C 65.3652 56.0255 64.7758 56.9295 64.6562 57.9575 C 64.5366 58.9856 64.8842 59.9694 65.5438 60.7297 C 66.2024 61.4899 67.172 62.0255 68.2954 62.1562 C 69.4188 62.2869 70.4855 61.9882 71.301 61.3995 C 72.1175 60.8109 72.4535 59.809 72.8013 58.9052 C 72.9811 58.4408 73.242 57.7212 72.9423 57.2604 C 72.1518 56.059 71.279 54.5793 69.9268 54.1914 Z " stroke-width="0.9999999841575605"/>
    <path id="ID0.08531287917867303" fill="none" stroke="#000000" stroke-width="0.9999999841575605" stroke-linecap="round" d="M 76.7192 57.2468 C 76.7192 57.2468 75.5172 56.2684 74.8135 56.3204 C 74.0945 56.3737 73.5578 57.0492 73.0127 57.5203 C 72.5058 57.9577 71.6797 59.0264 71.6797 59.0264 "/>
    <path id="ID0.08531287917867303" fill="none" stroke="#000000" stroke-width="1.0000000084465572" stroke-linecap="round" d="M 75.7011 61.4785 C 75.7011 61.4785 75.4904 59.8005 74.908 59.3517 C 74.1301 58.7826 72.12 58.7974 72.12 58.7974 "/>
  </g>
  <g id="ID0.23922329768538475">
    <path id="ID0.19963421486318111" fill="#001966" stroke="#000000" stroke-width="2.0000000160849596" stroke-linecap="round" d="M 45.9234 110.2199 C 44.0446 110.2784 41.0014 108.0152 40.3008 109.6643 C 37.5741 116.7053 37.8084 124.6146 37.3416 131.9814 C 37.0331 136.8527 36.6825 141.9148 38.0552 146.6226 C 38.4775 148.1043 40.6433 148.7213 42.212 148.7919 C 44.1293 148.8829 46.7727 148.6839 47.5681 146.9598 C 49.72 142.746 49.5777 137.6885 50.0544 132.9866 C 50.8508 125.1318 52.8371 116.9194 51.4196 109.0046 C 51.0574 107.1078 47.7722 110.1605 45.9234 110.2199 Z "/>
    <path id="ID0.7019679127261043" fill="#663B00" stroke="#000000" stroke-width="2.0000000160849596" stroke-linecap="round" d="M 43.4171 144.9604 C 41.4547 144.7664 39.4384 145.2796 37.9549 146.3198 C 36.5102 147.3336 35.7582 149.0148 35.3191 150.6415 C 35.0346 151.7007 35.4197 152.9998 36.1636 153.7898 C 38.1368 155.8981 40.2138 158.6547 42.9654 158.6825 C 45.4668 158.8824 47.0526 156.0346 48.8211 154.3373 C 49.4557 153.7318 50.3078 153 50.2464 152.1167 C 50.1301 150.4361 49.7258 148.6397 48.5075 147.3626 C 47.2563 146.0522 45.3795 145.1543 43.4171 144.9604 Z "/>
  </g>
  <g id="ID0.23922329768538475">
    <path id="ID0.19963421486318111" fill="#001966" stroke="#000000" stroke-width="1.9999999417971566" stroke-linecap="round" d="M 35.9294 109.7355 C 37.5917 110.6132 41.3197 109.9164 41.2248 111.7056 C 40.5823 119.2287 36.8982 126.2317 34.0822 133.055 C 32.2201 137.5669 30.3119 142.2686 27.0112 145.8953 C 25.981 147.041 23.7643 146.6441 22.324 146.0187 C 20.5615 145.2584 18.274 143.9187 18.3166 142.0204 C 18.234 137.2897 20.583 132.8085 22.2196 128.3749 C 24.9538 120.9684 26.776 112.718 31.5254 106.2299 C 32.6838 104.6849 34.2946 108.8702 35.9294 109.7355 Z "/>
    <path id="ID0.7019679127261043" fill="#663B00" stroke="#000000" stroke-width="1.9999999417971566" stroke-linecap="round" d="M 22.9264 142.0972 C 24.8656 142.8186 26.3708 144.15 27.2366 145.7173 C 28.1021 147.2855 28.0266 149.1033 27.7067 150.7575 C 27.4972 151.834 26.638 153.0679 25.5653 153.2151 C 22.7802 153.5831 19.6895 153.8234 17.0671 152.8276 C 15.4091 151.9557 14.816 149.7068 13.9534 148.1481 C 13.5287 147.3852 13.2109 146.295 13.6481 145.5272 C 14.482 144.0631 15.6181 142.641 17.2982 142.0198 C 18.9779 141.3996 20.9873 141.3757 22.9264 142.0972 Z "/>
  </g>
  <g id="ID0.4572075121104717">
    <path id="ID0.7623941171914339" fill="#2BFFE4" stroke="#000000" stroke-width="1.9999999755220705" stroke-linecap="round" d="M 54.7818 80.0525 C 55.3409 81.5442 57.7124 81.649 59.2621 81.4459 C 62.7106 80.9918 66.1041 79.575 69.1462 77.8361 C 72.5704 75.8791 75.796 73.5432 78.2904 70.5589 C 78.9584 69.7622 78.1879 68.367 77.7455 67.3394 C 77.267 66.4596 76.6664 65.1382 75.6292 65.0473 C 73.3367 64.8499 71.2157 65.7728 69.1687 66.3595 C 67.4079 66.9184 65.6985 67.658 64.2489 68.4709 C 61.4276 70.0486 58.1398 71.1642 56.1046 73.7549 C 54.779 75.4396 53.9237 78.0941 54.7818 80.0525 Z "/>
    <path id="ID0.01313785370439291" fill="#FFCC77" stroke="#000000" stroke-width="1.526548539012826" stroke-linecap="round" d="M 89.0656 59.3355 C 86.9645 59.5868 83.7775 62.2609 83.1993 61.4548 C 82.6208 60.6476 85.8139 58.098 86.5314 56.1351 C 86.711 55.643 86.024 54.7233 85.4998 54.9407 C 83.4886 55.9209 80.7697 59.3703 80.2157 59.1183 C 79.6628 58.8667 82.527 55.4999 82.6076 53.4542 C 82.6357 52.7301 80.9877 53.0157 80.4634 53.4927 C 79.0982 54.656 78.344 56.353 77.4556 57.9254 C 76.4895 59.635 75.0626 61.2779 74.887 63.2333 C 74.7592 64.6707 76.0596 65.6943 76.5465 66.963 C 77.0245 68.2033 76.7573 70.1021 77.8951 70.9793 C 78.9786 71.7203 80.5676 71.029 81.9562 70.9041 C 84.3115 70.6891 86.7908 70.6899 88.9651 69.7386 C 89.6494 69.5065 90.1419 68.2929 89.6599 67.7143 C 88.803 66.6876 85.7568 67.4556 85.9408 66.1941 C 86.284 63.8559 89.8836 62.7197 90.8595 60.381 C 91.1549 59.6624 89.7153 59.2011 89.0656 59.3355 Z "/>
  </g>
  <g id="ID0.4572075121104717">
    <path id="ID0.7623941171914339" fill="#2BFFE4" stroke="#000000" stroke-width="1.9999999497270144" stroke-linecap="round" d="M 38.2696 77.9348 C 37.4801 79.3185 35.1222 79.0444 33.6246 78.5971 C 30.2923 77.5997 27.1677 75.6608 24.4412 73.4597 C 21.3723 70.9825 18.5597 68.1628 16.5723 64.8195 C 16.0396 63.9266 17.0224 62.6719 17.6228 61.7278 C 18.2353 60.9354 19.0386 59.7265 20.077 59.8019 C 22.3717 59.972 24.3188 61.2208 26.2462 62.1259 C 27.8956 62.9581 29.4654 63.9603 30.7671 64.9937 C 33.3012 67.0004 36.3695 68.6252 37.9663 71.5069 C 39.0068 73.3812 39.4285 76.138 38.2696 77.9348 Z "/>
    <path id="ID0.01313785370439291" fill="#FFCC77" stroke="#000000" stroke-width="1.5265485589925243" stroke-linecap="round" d="M 7.7647 52.0186 C 9.7989 52.6012 12.5195 55.7486 13.2187 55.0448 C 13.9184 54.34 11.1719 51.3145 10.7761 49.2625 C 10.6771 48.748 11.5017 47.9495 11.9846 48.2475 C 13.8142 49.5354 15.9491 53.3737 16.5362 53.2132 C 17.1222 53.0528 14.8305 49.2729 15.0766 47.2405 C 15.1642 46.5211 16.7457 47.0655 17.1874 47.6199 C 18.3499 48.9856 18.8243 50.7811 19.4511 52.4748 C 20.1327 54.3165 21.2798 56.1656 21.1418 58.124 C 21.0391 59.5634 19.5924 60.3669 18.9097 61.542 C 18.2403 62.6903 18.2019 64.6074 16.9389 65.2923 C 15.7512 65.8514 14.2926 64.9158 12.9415 64.5715 C 10.6505 63.9843 8.2027 63.5903 6.2076 62.305 C 5.569 61.9669 5.276 60.6904 5.844 60.1959 C 6.8534 59.3187 9.7385 60.5619 9.7577 59.2872 C 9.7911 56.9242 6.4183 55.2294 5.8272 52.7652 C 5.6499 52.0087 7.1446 51.7824 7.7647 52.0186 Z "/>
  </g>
  <path id="ID0.10097399353981018" fill="#2BFFE4" stroke="#000000" stroke-width="1.999999968315121" stroke-linecap="round" d="M 46.8745 75.7589 C 49.4906 76.1176 52.5037 73.306 54.7425 74.7615 C 56.9814 75.9824 56.976 79.3775 57.2288 81.947 C 57.6513 86.2416 57.3913 90.4578 56.9796 94.905 C 56.4353 100.708 57.8709 107.6917 54.218 112.1514 C 51.7902 115.2284 46.4774 112.8767 42.6864 112.6219 C 40.9712 112.5069 39.3655 111.71 37.713 111.2379 C 35.2762 110.5416 31.1238 111.4025 30.4366 108.8812 C 28.8538 103.4227 31.1745 97.4076 32.176 91.7676 C 32.9783 87.251 34.5268 82.8193 36.0877 78.4806 C 36.8309 76.4106 37.1794 73.294 39.3637 72.8213 C 41.9298 72.0949 44.0961 75.3763 46.8745 75.7589 Z "/>
  <path id="ID0.9834481873549521" fill="#FFCC77" stroke="#000000" stroke-width="1.999999968315121" d="M 53.577 23.8221 C 60.1745 24.5897 65.8036 28.29 69.5675 33.6489 C 73.3314 39.0077 75.2313 46.0243 74.3705 53.4234 C 73.5096 60.8225 70.0497 67.2155 65.156 71.5671 C 60.2623 75.9187 53.934 78.2279 47.3365 77.4603 C 40.739 76.6927 35.11 72.9924 31.346 67.6335 C 27.5821 62.2746 25.6822 55.2581 26.5431 47.859 C 27.4039 40.4599 30.8639 34.0669 35.7576 29.7153 C 40.6512 25.3637 46.9795 23.0545 53.577 23.8221 Z "/>
  <path id="ID0.11013443116098642" fill="none" stroke="#000000" stroke-width="1.999999968315121" stroke-linecap="round" d="M 52.1241 60.0849 C 52.1241 60.0849 52.7514 61.659 53.3945 62.1455 C 53.969 62.5808 54.7869 62.7414 55.5012 62.6423 C 56.1971 62.5451 56.7255 61.9492 57.3342 61.5971 C 57.5706 61.4605 58.0377 61.1756 58.0377 61.1756 "/>
  <path id="ID0.09000997431576252" fill="#FFBF02" stroke="#000000" stroke-width="1.999999968315121" stroke-linecap="round" d="M 39.3757 24.3501 C 44.4277 24.8765 48.3576 4.5887 52.4887 4.2307 C 55.8677 3.9413 51.467 21.9685 54.7675 22.7179 C 58.0735 23.5928 61.922 5.9685 65.7018 7.4794 C 70.2657 9.3111 67.2633 27.494 71.5597 28.9503 C 75.1391 30.3231 81.1282 11.9179 81.4534 13.1377 C 81.7796 14.3575 78.5762 30.2619 73.6059 36.8899 C 72.0107 39.1095 69.2356 33.7408 66.5294 33.2477 C 57.0238 31.5247 46.3377 26.779 37.6313 30.691 C 30.5255 33.8853 27.0308 55.6764 26.1954 51.1062 C 24.6747 42.7777 28.6939 10.663 32.7139 2.4334 C 34.7859 -1.8075 34.5403 23.9778 39.3757 24.3501 Z "/>
  <g id="ID0.7511085895821452">
    <path id="ID0.9202246675267816" fill="#FFCC77" stroke="#000000" stroke-width="1.999999968315121" stroke-linecap="round" d="M 25.256 47.8868 C 26.4447 48.4087 27.2154 49.6843 27.7787 50.8653 C 28.3283 52.0175 28.6633 53.2133 28.4983 54.6317 C 28.3333 56.0501 27.8219 57.2179 26.9333 58.1323 C 26.3283 58.7546 25.3024 58.902 24.5046 58.6722 C 23.3601 58.4284 22.2806 57.7209 21.5491 56.8183 C 20.7224 55.7979 20.0555 54.4518 20.0663 53.1222 C 20.0294 51.3359 20.2201 49.2208 21.4734 47.9501 C 22.3603 47.0506 24.1146 47.3312 25.256 47.8868 Z "/>
    <path id="ID0.32951963087543845" fill="#FFCC77" stroke="none" stroke-linecap="round" d="M 26.2653 51.3265 C 27.3611 51.5043 28.6665 51.2042 29.524 51.8556 C 30.2965 52.4408 30.5312 53.5997 30.4116 54.6278 C 30.292 55.6559 29.7278 56.5335 28.9113 57.1221 C 28.0958 57.7108 27.0291 58.0096 25.9057 57.8788 C 24.7823 57.7481 23.8127 57.2125 23.1541 56.4523 C 22.4945 55.692 22.1469 54.7082 22.2665 53.6802 C 22.3861 52.6521 22.9125 51.6411 23.7668 51.1858 C 24.5244 50.7837 25.441 51.2809 26.2653 51.3265 Z " stroke-width="0.9999999841575605"/>
    <path id="ID0.32951963087543845" fill="#FFCC77" stroke="none" stroke-linecap="round" d="M 29.7178 48.9093 C 31.0607 48.9014 32.2579 50.0595 33.0953 51.0127 C 33.7364 51.7417 34.1025 52.7568 33.9829 53.7849 C 33.8633 54.8129 33.2991 55.6906 32.4826 56.2792 C 31.6671 56.8679 30.6004 57.1666 29.477 57.0359 C 28.3536 56.9052 27.384 56.3696 26.7254 55.6094 C 26.0659 54.8491 25.9688 53.7968 25.8378 52.8372 C 25.7694 52.344 25.6807 51.5837 26.0782 51.2041 C 27.1234 50.2162 28.3126 48.9764 29.7178 48.9093 Z " stroke-width="0.9999999841575605"/>
    <path id="ID0.08531287917867303" fill="none" stroke="#000000" stroke-width="0.9999999841575605" stroke-linecap="round" d="M 22.4053 50.3237 C 22.4053 50.3237 23.7998 49.6473 24.4728 49.8595 C 25.1604 50.0764 25.5276 50.8571 25.95 51.4408 C 26.343 51.9829 26.9016 53.2127 26.9016 53.2127 "/>
    <path id="ID0.08531287917867303" fill="none" stroke="#000000" stroke-width="1.0000000084465572" stroke-linecap="round" d="M 22.4247 54.6761 C 22.4247 54.6761 23.015 53.0913 23.6849 52.7882 C 24.5727 52.4129 26.5256 52.8888 26.5256 52.8888 "/>
  </g>
  <path id="ID0.32517488626763225" fill="#FFFFFF" stroke="#000000" stroke-width="1.999999968315121" d="M 66.6899 38.9988 C 68.9715 39.2643 70.9097 40.6123 72.1984 42.5754 C 73.4872 44.5385 74.1264 47.1176 73.8092 49.8442 C 73.492 52.5708 72.2777 54.9344 70.5727 56.5491 C 68.8676 58.1639 66.6717 59.031 64.3901 58.7655 C 62.1085 58.5001 60.1703 57.152 58.8815 55.1889 C 57.5928 53.2259 56.9535 50.6467 57.2708 47.9201 C 57.588 45.1935 58.8023 42.83 60.5073 41.2152 C 62.2123 39.6004 64.4082 38.7334 66.6899 38.9988 Z "/>
  <path id="ID0.32517488626763225" fill="#FFFFFF" stroke="#000000" stroke-width="1.999999968315121" d="M 50.0399 36.5988 C 52.3215 36.8643 54.2597 38.2123 55.5484 40.1754 C 56.8372 42.1385 57.4764 44.7176 57.1592 47.4442 C 56.842 50.1708 55.6277 52.5344 53.9227 54.1491 C 52.2176 55.7639 50.0217 56.631 47.7401 56.3655 C 45.4585 56.1001 43.5203 54.752 42.2315 52.7889 C 40.9428 50.8259 40.3035 48.2467 40.6208 45.5201 C 40.938 42.7935 42.1523 40.43 43.8573 38.8152 C 45.5623 37.2004 47.7582 36.3334 50.0399 36.5988 Z "/>
  <g id="ID0.9259606110863388">
    <path id="ID0.18902716599404812" fill="#3D0101" stroke="none" stroke-linecap="round" d="M 35.0355 65.9379 L 39.8694 63.3291 L 48.0282 65.8891 L 44.7649 72.3049 L 43.2749 72.1316 L 35.0355 65.9379 Z " stroke-width="0.9999999841575605"/>
    <path id="ID0.8991414033807814" fill="#FF9999" stroke="none" stroke-linecap="round" d="M 36.7635 64.9309 C 37.4156 64.9413 37.9424 65.1385 38.4116 65.475 C 38.943 65.857 39.395 66.4723 39.6786 67.1325 C 39.9314 67.6592 40.3943 68.6302 39.973 68.9286 C 39.4885 69.2678 38.4942 68.6246 37.8339 68.277 C 37.1613 67.9148 36.505 67.4116 35.9364 66.8481 C 35.7895 66.6649 35.6936 66.3648 35.7689 66.1239 C 35.8593 65.8405 36.2426 65.7391 36.4575 65.5275 C 36.6404 65.3565 36.5413 64.9282 36.7635 64.9309 Z " stroke-width="0.9999999841575605"/>
    <path id="ID0.7795739038847387" fill="none" stroke="#000000" stroke-width="1.9999999677789775" stroke-linecap="round" d="M 47.6966 66.1764 C 47.6966 66.1764 45.5397 64.7534 44.5992 64.3026 C 43.8733 63.9525 43.0484 63.7259 42.2813 63.6099 C 41.3415 63.4661 40.3721 63.4212 39.4285 63.5306 C 38.5019 63.6386 37.3828 63.6894 36.5967 64.301 C 35.7805 64.9495 34.213 66.2397 34.9642 67.0423 L 44.144 72.1663 "/>
  </g>
  <g id="ID0.5538363005034626">
    <path id="ID0.3123384383507073" fill="#009999" stroke="none" d="M 67.2395 46.8237 C 68.0492 46.9179 68.7257 47.5023 69.1631 48.3694 C 69.6011 49.2366 69.8007 50.3873 69.6579 51.6149 C 69.515 52.8426 69.0566 53.9168 68.4312 54.6602 C 67.8064 55.4037 67.0138 55.8172 66.2041 55.723 C 65.3944 55.6288 64.7179 55.0444 64.2806 54.1773 C 63.8425 53.3101 63.6429 52.1594 63.7858 50.9318 C 63.9286 49.7041 64.387 48.6299 65.0125 47.8865 C 65.6372 47.143 66.4298 46.7295 67.2395 46.8237 Z " stroke-width="0.7343750479703524"/>
    <path id="ID0.9945462001487613" fill="#000000" stroke="none" d="M 67.4808 48.4777 C 67.9637 48.5339 68.3575 48.9625 68.6037 49.6105 C 68.8492 50.2585 68.9473 51.1241 68.839 52.0552 C 68.7307 52.9862 68.4364 53.8062 68.0487 54.3804 C 67.6603 54.9546 67.1787 55.2814 66.6958 55.2252 C 66.2129 55.169 65.8192 54.7404 65.573 54.0924 C 65.3275 53.4445 65.2293 52.5789 65.3376 51.6478 C 65.4459 50.7167 65.7402 49.8968 66.1279 49.3225 C 66.5163 48.7483 66.9979 48.4216 67.4808 48.4777 Z " stroke-width="0.7966841374077747"/>
    <path id="ID0.7593508111312985" fill="#FFFFFF" stroke="none" d="M 68.258 48.0748 C 68.6351 48.1186 68.952 48.3751 69.1586 48.754 C 69.3659 49.1323 69.4629 49.6337 69.4008 50.1669 C 69.3388 50.7002 69.1293 51.166 68.8407 51.4865 C 68.5526 51.8079 68.1853 51.9847 67.8082 51.9409 C 67.4311 51.897 67.1142 51.6405 66.9076 51.2616 C 66.7002 50.8834 66.6033 50.3819 66.6654 49.8487 C 66.7274 49.3155 66.9369 48.8497 67.2255 48.5291 C 67.5135 48.2077 67.8809 48.0309 68.258 48.0748 Z " stroke-width="0.7343750479703524"/>
    <path id="ID0.8557649310678244" fill="#FFFFFF" stroke="none" d="M 65.0206 51.9123 C 65.2219 51.9357 65.3919 52.0634 65.5039 52.2502 C 65.616 52.437 65.6702 52.6836 65.6397 52.9454 C 65.6092 53.2073 65.4999 53.4349 65.348 53.5909 C 65.196 53.747 65.0012 53.8323 64.7999 53.8089 C 64.5986 53.7854 64.4286 53.6577 64.3165 53.4709 C 64.2044 53.2842 64.1503 53.0376 64.1808 52.7757 C 64.2112 52.5138 64.3205 52.2863 64.4725 52.1302 C 64.6245 51.9741 64.8192 51.8889 65.0206 51.9123 Z " stroke-width="0.7343750479703524"/>
  </g>
  <g id="ID0.4285051980987191">
    <path id="ID0.3123384383507073" fill="#009999" stroke="none" d="M 52.6634 44.4735 C 53.4731 44.5677 54.1496 45.1521 54.587 46.0192 C 55.0251 46.8864 55.2246 48.037 55.0818 49.2647 C 54.939 50.4924 54.4806 51.5665 53.8551 52.31 C 53.2304 53.0535 52.4377 53.467 51.628 53.3728 C 50.8184 53.2786 50.1418 52.6942 49.7045 51.8271 C 49.2664 50.9599 49.0669 49.8092 49.2097 48.5815 C 49.3525 47.3539 49.8109 46.2797 50.4364 45.5363 C 51.0611 44.7927 51.8537 44.3792 52.6634 44.4735 Z " stroke-width="0.7343749883657085"/>
    <path id="ID0.9945462001487613" fill="#000000" stroke="none" d="M 52.8666 46.0224 C 53.3495 46.0786 53.7433 46.5072 53.9895 47.1552 C 54.235 47.8031 54.3331 48.6688 54.2248 49.5998 C 54.1165 50.5309 53.8222 51.3509 53.4345 51.9251 C 53.0461 52.4993 52.5645 52.826 52.0816 52.7699 C 51.5987 52.7137 51.205 52.2851 50.9588 51.6371 C 50.7133 50.9891 50.6151 50.1235 50.7234 49.1925 C 50.8318 48.2614 51.126 47.4414 51.5137 46.8672 C 51.9021 46.293 52.3837 45.9662 52.8666 46.0224 Z " stroke-width="0.7966840779726521"/>
    <path id="ID0.7593508111312985" fill="#FFFFFF" stroke="none" d="M 53.7258 45.78 C 54.1029 45.8239 54.4198 46.0803 54.6264 46.4592 C 54.8338 46.8375 54.9307 47.3389 54.8686 47.8722 C 54.8066 48.4054 54.5971 48.8712 54.3085 49.1918 C 54.0205 49.5131 53.6531 49.69 53.276 49.6461 C 52.8989 49.6022 52.582 49.3458 52.3754 48.9669 C 52.1681 48.5886 52.0711 48.0871 52.1332 47.5539 C 52.1952 47.0207 52.4047 46.5549 52.6933 46.2343 C 52.9814 45.9129 53.3487 45.7361 53.7258 45.78 Z " stroke-width="0.7343749883657085"/>
    <path id="ID0.8557649310678244" fill="#FFFFFF" stroke="none" d="M 50.4884 49.6175 C 50.6897 49.6409 50.8597 49.7686 50.9718 49.9554 C 51.0839 50.1422 51.138 50.3888 51.1075 50.6507 C 51.077 50.9125 50.9678 51.1401 50.8158 51.2962 C 50.6638 51.4522 50.469 51.5375 50.2677 51.5141 C 50.0664 51.4907 49.8964 51.3629 49.7843 51.1762 C 49.6722 50.9894 49.6181 50.7428 49.6486 50.4809 C 49.6791 50.219 49.7883 49.9915 49.9403 49.8354 C 50.0923 49.6794 50.287 49.5941 50.4884 49.6175 Z " stroke-width="0.7343749883657085"/>
  </g>
</svg>